<svg width="323" height="180" viewBox="0 0 323 180" fill="none" xmlns="http://www.w3.org/2000/svg">
<path d="M89.5984 32.968V31.048H111.582C113.15 31.048 113.502 31.784 113.502 32.712C113.502 32.904 113.47 33.128 113.438 33.352L110.558 49.992H105.854V48.68L107.038 41.608H89.4384V39.688H107.358L108.382 33.704C108.414 33.64 108.414 33.576 108.414 33.512C108.414 33.16 108.19 32.968 107.71 32.968H89.5984ZM86.9424 55.112V53.192H115.614V55.112H86.9424ZM135.796 42.12V44.04H124.276L122.196 52.36C122.164 52.52 122.132 52.68 122.132 52.776C122.132 53 122.196 53.192 122.804 53.192H135.956V55.112H118.932C117.172 55.112 116.98 54.216 116.98 53.48C116.98 53.256 117.012 53 117.076 52.712L119.252 44.04H117.076V42.12H128.436L130.452 33.8C130.484 33.64 130.516 33.48 130.516 33.384C130.516 33.16 130.452 32.968 129.844 32.968H117.716V31.048H133.716C135.476 31.048 135.668 31.944 135.668 32.68C135.668 32.904 135.636 33.16 135.572 33.448L133.46 42.12H135.796ZM143.508 30.76V55.432H138.356V30.76H143.508ZM170.265 49.032L161.625 34.408C161.465 34.152 161.465 34.056 161.241 34.056C161.081 34.056 160.953 34.216 160.793 34.504L153.241 49.032H147.577L156.025 32.84C156.697 31.656 157.753 30.728 159.801 30.728C161.753 30.728 162.585 31.56 163.321 32.68L173.017 49.032H170.265ZM145.817 55.112V53.192H174.489V55.112H145.817ZM194.063 55.112H177.807C176.047 55.112 175.887 54.216 175.887 53.352C175.887 53.16 175.919 52.936 175.951 52.712L179.087 32.968H176.239V31.048H194.063V55.112ZM201.743 30.76V41.416H204.943V43.336H201.743V55.432H196.591V30.76H201.743ZM188.911 32.968H184.015L181.071 52.36C181.039 52.488 181.039 52.584 181.039 52.68C181.039 53.032 181.071 53.192 181.679 53.192H188.911V32.968ZM230.109 49.032L221.469 34.408C221.309 34.152 221.309 34.056 221.085 34.056C220.925 34.056 220.797 34.216 220.637 34.504L213.085 49.032H207.421L215.869 32.84C216.541 31.656 217.597 30.728 219.645 30.728C221.597 30.728 222.429 31.56 223.165 32.68L232.861 49.032H230.109ZM205.661 55.112V53.192H234.333V55.112H205.661ZM80.8053 67.76V92.432H75.6533V80.976H72.7733C72.5173 89.584 69.1253 92.432 63.7173 92.432C58.1813 92.432 54.6293 89.392 54.6293 80.08C54.6293 70.768 58.1813 67.728 63.7173 67.728C69.0613 67.728 72.5173 70.544 72.7733 79.056H75.6533V67.76H80.8053ZM67.6533 80.08C67.6533 71.536 66.1493 69.648 63.7173 69.648C61.2853 69.648 59.7813 71.536 59.7813 80.08C59.7813 88.624 61.2853 90.512 63.7173 90.512C66.1493 90.512 67.6533 88.624 67.6533 80.08ZM109.354 69.968H92.8743L89.9623 82.96C89.9303 83.088 89.9303 83.216 89.9303 83.312C89.9303 83.568 89.9623 83.792 90.5703 83.792H109.674V85.712H86.6983C84.9383 85.712 84.7463 84.816 84.7463 84.08C84.7463 83.856 84.7783 83.6 84.8423 83.312L87.8503 69.968H85.1303V68.048H109.354V69.968ZM83.1143 92.112V90.192H111.786V92.112H83.1143ZM118.976 69.424L117.952 73.2H123.52V68.048H128V73.52H129.76V67.76H134.336V87.152H129.76V75.44H128V81.136H115.104C113.536 81.136 113.152 80.304 113.152 79.504C113.152 79.28 113.184 79.024 113.248 78.736L114.08 75.12H113.568V73.2L114.976 68.048H118.976V69.424ZM140 67.76V87.152H135.424V67.76H140ZM114.368 90.032L116.704 83.536H121.408V84.848L119.648 89.68C119.616 89.84 119.584 89.968 119.584 90.064C119.584 90.352 119.776 90.512 120.128 90.512H140.32V92.432H116.224C114.656 92.432 114.176 91.6 114.176 90.928C114.176 90.64 114.24 90.352 114.368 90.032ZM118.336 75.152L117.568 78.448C117.536 78.544 117.536 78.64 117.536 78.704C117.536 79.056 117.76 79.216 118.176 79.216H123.52V75.12H118.336V75.152ZM168.382 78.064H150.238L149.15 82.96C149.118 83.088 149.118 83.216 149.118 83.312C149.118 83.568 149.15 83.792 149.758 83.792H168.862V85.712H145.886C144.126 85.712 143.934 84.816 143.934 84.08C143.934 83.856 143.966 83.6 144.03 83.312L147.038 69.968H144.318V68.048H168.542V69.968H152.03L150.654 76.144H168.382V78.064ZM142.302 92.112V90.192H170.974V92.112H142.302ZM207.973 85.68V87.6H188.133L187.429 89.68C187.397 89.84 187.365 89.968 187.365 90.064C187.365 90.352 187.557 90.512 187.909 90.512H208.133V92.432H184.037C182.469 92.432 182.021 91.568 182.021 90.896C182.021 90.64 182.085 90.352 182.181 90.032L183.013 87.6H182.181V85.68H201.861L202.501 83.6C202.533 83.44 202.565 83.312 202.565 83.216C202.565 82.928 202.373 82.768 202.021 82.768H182.821V80.848H205.893C207.461 80.848 207.909 81.712 207.909 82.384C207.909 82.64 207.845 82.928 207.749 83.248L206.981 85.68H207.973ZM201.509 67.76V72.4H203.237V67.76H207.813V79.152H203.237V74.32H201.509V79.152H196.933V67.76H201.509ZM187.557 77.584L188.741 74.48H181.509V72.56H189.509L190.245 70.672C190.277 70.544 190.309 70.448 190.309 70.352C190.309 70.096 190.149 69.968 189.797 69.968H181.669V68.048H193.509C195.141 68.048 195.461 68.944 195.461 69.552C195.461 69.84 195.397 70.192 195.237 70.544L192.005 78.896H187.557V77.584ZM229.218 73.808V75.728H216.354L215.618 78.704C215.586 78.832 215.554 78.96 215.554 79.056C215.554 79.376 215.778 79.536 216.194 79.536H229.378V81.456H212.354C210.786 81.456 210.402 80.624 210.402 79.856C210.402 79.6 210.434 79.344 210.498 79.056L211.33 75.728H210.498V73.808H223.202L223.97 70.8C224.002 70.672 224.034 70.544 224.034 70.448C224.034 70.128 223.81 69.968 223.394 69.968H211.138V68.048H227.234C228.802 68.048 229.186 68.88 229.186 69.68C229.186 69.904 229.154 70.16 229.09 70.448L228.226 73.808H229.218ZM236.93 67.76V87.152H231.778V67.76H236.93ZM217.474 90.512H237.25V92.432H213.346C211.682 92.432 211.426 91.536 211.426 90.928C211.426 90.64 211.49 90.352 211.618 90.032L213.954 83.856H218.658V85.168L216.962 89.68C216.898 89.84 216.866 89.968 216.866 90.064C216.866 90.352 217.058 90.512 217.474 90.512ZM257.415 68.048V69.968H247.687L244.743 89.36C244.711 89.488 244.711 89.584 244.711 89.68C244.711 90.032 244.743 90.192 245.351 90.192H257.735V92.112H241.479C239.719 92.112 239.559 91.216 239.559 90.352C239.559 90.16 239.591 89.936 239.623 89.712L242.759 69.968H239.911V68.048H257.415ZM252.359 80.656V78.736H260.903V67.76H266.055V92.432H260.903V80.656H252.359Z" fill="#FFECA9"/>
<path d="M126.939 2.92L125.479 9.2H132.899V2.1H136.119V17.52H132.899V10.4H126.519L124.879 17.52H121.879V16.7L123.339 10.4H122.199V9.2H122.279L123.939 2.1H126.939V2.92ZM138.79 16.12C138.79 15.16 139.49 14.5 140.59 14.5C141.71 14.5 142.41 15.16 142.41 16.12C142.41 17.06 141.71 17.72 140.59 17.72C139.49 17.72 138.79 17.06 138.79 16.12ZM147.936 17.52H144.776L146.636 3.28H144.776V2.08H154.496C157.596 2.08 158.996 3.76 158.996 5.9C158.996 8.36 157.436 10.6 153.396 10.6H148.836L147.936 17.52ZM153.456 3.28H149.816L148.996 9.4H152.436C154.656 9.4 155.776 8.28 155.776 6.02C155.776 4.26 154.996 3.28 153.456 3.28ZM170.605 13.2C170.605 16.6 168.205 17.72 164.525 17.72C160.845 17.72 158.445 16.6 158.445 13.2C158.445 9.8 160.845 8.68 164.525 8.68C168.205 8.68 170.605 9.8 170.605 13.2ZM167.385 13.2C167.385 11.04 166.225 9.88 164.525 9.88C162.825 9.88 161.665 11.04 161.665 13.2C161.665 15.36 162.825 16.52 164.525 16.52C166.225 16.52 167.385 15.36 167.385 13.2ZM176.034 17.52H172.814V7.88H176.034V17.52ZM172.614 3.9C172.614 2.94 173.314 2.28 174.414 2.28C175.534 2.28 176.234 2.94 176.234 3.9C176.234 4.84 175.534 5.5 174.414 5.5C173.314 5.5 172.614 4.84 172.614 3.9ZM185.35 8.68C188.23 8.68 190.13 10.04 190.13 12.72V17.52H186.91V12.72C186.91 10.64 186.27 9.88 184.91 9.88C183.53 9.88 182.21 10.74 181.89 13.32L181.35 17.52H178.19L179.27 8.88H182.33V9.74L182.31 9.84C183.13 9.14 184.29 8.68 185.35 8.68ZM196.642 4.28V8.32H199.882V9.52H196.642V15.6C196.642 16.3 196.782 16.52 197.082 16.52C197.942 16.52 198.322 15.94 198.582 15.3L199.442 15.78C198.962 17.22 197.562 17.72 196.402 17.72C194.742 17.72 193.422 17.06 193.422 15V9.52H190.642V8.32H193.422V4.28H196.642Z" fill="white"/>
<path d="M50.5268 121.892V133.204H45.9208V121.892H50.5268ZM47.2368 132.014H49.2108V123.082H47.2368V132.014ZM56.1828 121.64V133.736H54.8668V127.688H53.2848V133.596H51.9688V121.696H53.2848V126.498H54.8668V121.64H56.1828ZM59.0762 124.594C59.0762 125.126 59.2489 125.555 59.5942 125.882C59.9489 126.209 60.3922 126.372 60.9242 126.372C61.4469 126.372 61.8809 126.209 62.2262 125.882C62.5809 125.555 62.7582 125.126 62.7582 124.594C62.7582 124.071 62.5809 123.647 62.2262 123.32C61.8809 122.984 61.4469 122.816 60.9242 122.816C60.3922 122.816 59.9489 122.984 59.5942 123.32C59.2489 123.647 59.0762 124.071 59.0762 124.594ZM57.7602 124.594C57.7602 124.174 57.8396 123.782 57.9982 123.418C58.1569 123.054 58.3809 122.741 58.6702 122.48C58.9502 122.219 59.2816 122.013 59.6642 121.864C60.0562 121.715 60.4762 121.64 60.9242 121.64C61.3629 121.64 61.7736 121.715 62.1562 121.864C62.5389 122.013 62.8702 122.219 63.1502 122.48C63.4396 122.741 63.6636 123.054 63.8222 123.418C63.9902 123.782 64.0742 124.174 64.0742 124.594C64.0742 125.023 63.9902 125.42 63.8222 125.784C63.6636 126.148 63.4396 126.461 63.1502 126.722C62.8702 126.993 62.5389 127.203 62.1562 127.352C61.7736 127.492 61.3629 127.562 60.9242 127.562C60.4762 127.562 60.0562 127.492 59.6642 127.352C59.2816 127.203 58.9502 126.993 58.6702 126.722C58.3809 126.461 58.1569 126.148 57.9982 125.784C57.8396 125.42 57.7602 125.023 57.7602 124.594ZM68.2882 121.64V127.604H66.9722V121.64H68.2882ZM68.5542 132.574V133.736H58.4182V130.404H66.9722V129.368H58.4182V128.22H68.2882V131.538H59.7342V132.574H68.5542ZM73.2346 126.092L72.6606 125.056C73.566 124.981 74.462 124.799 75.3486 124.51C76.2446 124.221 77.0006 123.824 77.6166 123.32H73.0526V122.158H77.4346V121.234H78.8206V122.158H83.3146V123.32H79.2686C79.2313 123.357 79.1986 123.395 79.1706 123.432C79.1426 123.469 79.11 123.502 79.0726 123.53C79.0446 123.567 79.012 123.605 78.9746 123.642C78.9466 123.67 78.9186 123.698 78.8906 123.726C79.544 124.09 80.2953 124.37 81.1446 124.566C81.994 124.753 82.8526 124.86 83.7206 124.888L83.1326 125.924C82.7126 125.905 82.2693 125.863 81.8026 125.798C81.3453 125.723 80.888 125.625 80.4306 125.504C79.9826 125.383 79.544 125.238 79.1146 125.07C78.6853 124.893 78.298 124.697 77.9526 124.482C77.262 124.958 76.4966 125.331 75.6566 125.602C74.8166 125.863 74.0093 126.027 73.2346 126.092ZM83.4546 132.434V133.596H73.0526V130.502H81.9986V129.746H73.0526V128.584H77.4626V127.646H72.3946V126.484H83.9726V127.646H78.7786V128.584H83.3146V131.664H74.3686V132.434H83.4546ZM85.2981 130.712V129.536H95.2941V133.862H93.9781V130.712H85.2981ZM87.3981 121.64H88.7141C88.7141 122.051 88.6861 122.457 88.6301 122.858C88.5834 123.259 88.5134 123.656 88.4201 124.048C88.8401 124.739 89.3628 125.392 89.9881 126.008C90.6228 126.615 91.3041 127.123 92.0321 127.534L91.2201 128.528C90.6041 128.164 90.0068 127.716 89.4281 127.184C88.8494 126.643 88.3501 126.087 87.9301 125.518C87.6501 126.19 87.2954 126.815 86.8661 127.394C86.4461 127.973 85.9561 128.472 85.3961 128.892L84.3461 128.038C85.3261 127.357 86.0774 126.451 86.6001 125.322C87.1321 124.193 87.3981 122.965 87.3981 121.64ZM93.9781 124.006V121.64H95.2941V128.836H93.9781V125.182H90.8001V124.006H93.9781ZM97.2636 130.32V128.612C97.2636 127.632 97.5529 126.885 98.1316 126.372C98.7196 125.849 99.4616 125.588 100.358 125.588C101.244 125.588 101.982 125.849 102.57 126.372C103.158 126.885 103.452 127.632 103.452 128.612V130.32C103.452 131.3 103.158 132.047 102.57 132.56C101.982 133.073 101.244 133.33 100.358 133.33C99.4616 133.33 98.7196 133.073 98.1316 132.56C97.5529 132.047 97.2636 131.3 97.2636 130.32ZM107.134 127.646V133.736H105.818V121.64H107.134V126.47H108.842V127.646H107.134ZM98.5796 128.612V130.32C98.5796 130.917 98.7336 131.375 99.0416 131.692C99.3589 132 99.7976 132.154 100.358 132.154C100.918 132.154 101.352 132 101.66 131.692C101.977 131.375 102.136 130.917 102.136 130.32V128.612C102.136 128.024 101.977 127.571 101.66 127.254C101.352 126.927 100.918 126.764 100.358 126.764C99.7976 126.764 99.3589 126.927 99.0416 127.254C98.7336 127.571 98.5796 128.024 98.5796 128.612ZM103.844 124.272H96.8716V123.082H99.6716V121.234H100.988V123.082H103.844V124.272ZM115.025 121.892V133.204H109.243V121.892H115.025ZM110.559 132.014H113.709V123.082H110.559V132.014ZM118.189 129.788H115.557V128.612H118.189V125.84H115.557V124.664H118.189V121.64H119.505V133.736H118.189V129.788ZM134.405 121.64V133.736H133.089V127.688H131.507V133.596H130.191V121.696H131.507V126.498H133.089V121.64H134.405ZM124.801 133.372L123.611 132.812C124.479 131.533 125.091 130.185 125.445 128.766C125.8 127.338 125.991 125.84 126.019 124.272H124.143V123.082H125.991V121.234H127.307V123.082H129.407V124.272H127.335C127.326 124.645 127.307 125.019 127.279 125.392C127.251 125.765 127.219 126.134 127.181 126.498C127.293 126.993 127.438 127.497 127.615 128.01C127.802 128.523 128.017 129.027 128.259 129.522C128.493 130.017 128.749 130.497 129.029 130.964C129.319 131.421 129.631 131.837 129.967 132.21L128.959 133.008C128.502 132.401 128.087 131.743 127.713 131.034C127.34 130.315 127.018 129.597 126.747 128.878C126.542 129.69 126.276 130.479 125.949 131.244C125.632 132 125.249 132.709 124.801 133.372ZM142.955 124.594C142.955 125.07 142.866 125.495 142.689 125.868C142.512 126.232 142.269 126.54 141.961 126.792C141.653 127.044 141.289 127.235 140.869 127.366C140.458 127.497 140.015 127.562 139.539 127.562C139.054 127.562 138.601 127.497 138.181 127.366C137.77 127.235 137.411 127.039 137.103 126.778C136.795 126.526 136.552 126.218 136.375 125.854C136.198 125.481 136.109 125.061 136.109 124.594C136.109 124.137 136.198 123.726 136.375 123.362C136.552 122.998 136.795 122.685 137.103 122.424C137.411 122.172 137.77 121.981 138.181 121.85C138.601 121.71 139.054 121.64 139.539 121.64C140.015 121.64 140.458 121.71 140.869 121.85C141.289 121.981 141.653 122.172 141.961 122.424C142.269 122.676 142.512 122.989 142.689 123.362C142.866 123.726 142.955 124.137 142.955 124.594ZM146.511 121.64V133.736H145.195V131.888H141.961V130.712H145.195V121.64H146.511ZM144.103 128.346V129.536H140.015V133.736H138.699V129.536H135.717V128.346H144.103ZM141.639 124.594C141.639 124.109 141.452 123.684 141.079 123.32C140.706 122.956 140.192 122.774 139.539 122.774C138.876 122.774 138.358 122.956 137.985 123.32C137.612 123.684 137.425 124.109 137.425 124.594C137.425 125.098 137.612 125.527 137.985 125.882C138.358 126.237 138.876 126.414 139.539 126.414C140.192 126.414 140.706 126.237 141.079 125.882C141.452 125.527 141.639 125.098 141.639 124.594ZM148.354 133.204V121.892H149.67V132.014H155.718V133.204H148.354ZM158.35 127.646V133.736H157.034V121.64H158.35V126.47H160.058V127.646H158.35ZM160.46 121.892H166.116V124.51C166.116 125.453 165.994 126.353 165.752 127.212C165.518 128.061 165.178 128.859 164.73 129.606C164.272 130.343 163.712 131.02 163.05 131.636C162.387 132.243 161.631 132.77 160.782 133.218L159.928 132.224C161.514 131.431 162.723 130.381 163.554 129.074C164.384 127.767 164.8 126.325 164.8 124.748V123.082H160.46V121.892ZM170.456 127.646V133.736H169.14V121.64H170.456V126.47H172.164V127.646H170.456ZM172.033 127.688H183.611V128.878H172.033V127.688ZM183.093 132.42V133.596H172.691V129.928H174.007V132.42H183.093ZM172.691 126.078V121.766H174.007V124.93H183.093V126.078H172.691ZM197.854 130.852H196.538V127.814H187.592V126.638H196.538V123.082H187.592V121.892H197.854V130.852ZM198.512 132.014V133.204H186.934V132.014H198.512ZM206.543 132.014V133.204H199.571V126.764H204.303V123.082H199.571V121.892H205.619V127.954H200.887V132.014H206.543ZM209.833 121.64V133.736H208.517V121.64H209.833ZM222.723 132.014V133.204H211.145V132.014H222.723ZM211.943 128.682L211.145 127.702C211.845 127.45 212.493 127.123 213.091 126.722C213.697 126.321 214.229 125.859 214.687 125.336C215.153 124.813 215.541 124.239 215.849 123.614C216.157 122.989 216.376 122.331 216.507 121.64L217.809 121.892C217.753 122.2 217.678 122.503 217.585 122.802C217.501 123.101 217.398 123.39 217.277 123.67C217.939 124.491 218.742 125.215 219.685 125.84C220.637 126.456 221.649 126.904 222.723 127.184L222.037 128.234C221.029 127.935 220.049 127.487 219.097 126.89C218.154 126.283 217.342 125.597 216.661 124.832C216.101 125.709 215.405 126.484 214.575 127.156C213.753 127.828 212.876 128.337 211.943 128.682ZM229.704 121.892V133.204H223.782V121.892H229.704ZM225.098 132.014H228.388V123.082H225.098V132.014ZM233.778 127.646V133.736H232.462V121.64H233.778V126.47H235.486V127.646H233.778ZM246.934 132.014V133.204H235.356V132.014H246.934ZM236.154 128.682L235.356 127.702C236.056 127.45 236.704 127.123 237.302 126.722C237.908 126.321 238.44 125.859 238.898 125.336C239.364 124.813 239.752 124.239 240.06 123.614C240.368 122.989 240.587 122.331 240.718 121.64L242.02 121.892C241.964 122.2 241.889 122.503 241.796 122.802C241.712 123.101 241.609 123.39 241.488 123.67C242.15 124.491 242.953 125.215 243.896 125.84C244.848 126.456 245.86 126.904 246.934 127.184L246.248 128.234C245.24 127.935 244.26 127.487 243.308 126.89C242.365 126.283 241.553 125.597 240.872 124.832C240.312 125.709 239.616 126.484 238.786 127.156C237.964 127.828 237.087 128.337 236.154 128.682ZM261.05 132.574V133.736H251.054V130.404H259.468V129.368H251.054V128.22H260.784V131.538H252.37V132.574H261.05ZM262.492 124.132V125.322H260.784V127.604H259.468V121.64H260.784V124.132H262.492ZM258.152 125.966V127.142H250.788V121.892H257.368V123.068H252.104V125.966H258.152ZM269.739 127.422V128.612H262.893V124.636H267.359V123.082H262.893V121.892H268.675V125.812H264.209V127.422H269.739ZM273.155 121.64V129.354H271.839V126.75H269.333V125.588H271.839V124.314H269.333V123.152H271.839V121.64H273.155ZM273.155 129.928V133.862H271.839V131.104H263.159V129.928H273.155ZM275.013 121.5H276.329V129.928H275.013V121.5ZM276.455 133.47H274.873V131.888H276.455V133.47ZM5.94083 142.892V154.204H1.33483V142.892H5.94083ZM2.65083 153.014H4.62483V144.082H2.65083V153.014ZM11.5968 142.64V154.736H10.2808V148.688H8.69883V154.596H7.38283V142.696H8.69883V147.498H10.2808V142.64H11.5968ZM14.4903 145.594C14.4903 146.126 14.663 146.555 15.0083 146.882C15.363 147.209 15.8063 147.372 16.3383 147.372C16.861 147.372 17.295 147.209 17.6403 146.882C17.995 146.555 18.1723 146.126 18.1723 145.594C18.1723 145.071 17.995 144.647 17.6403 144.32C17.295 143.984 16.861 143.816 16.3383 143.816C15.8063 143.816 15.363 143.984 15.0083 144.32C14.663 144.647 14.4903 145.071 14.4903 145.594ZM13.1743 145.594C13.1743 145.174 13.2536 144.782 13.4123 144.418C13.571 144.054 13.795 143.741 14.0843 143.48C14.3643 143.219 14.6956 143.013 15.0783 142.864C15.4703 142.715 15.8903 142.64 16.3383 142.64C16.777 142.64 17.1876 142.715 17.5703 142.864C17.953 143.013 18.2843 143.219 18.5643 143.48C18.8536 143.741 19.0776 144.054 19.2363 144.418C19.4043 144.782 19.4883 145.174 19.4883 145.594C19.4883 146.023 19.4043 146.42 19.2363 146.784C19.0776 147.148 18.8536 147.461 18.5643 147.722C18.2843 147.993 17.953 148.203 17.5703 148.352C17.1876 148.492 16.777 148.562 16.3383 148.562C15.8903 148.562 15.4703 148.492 15.0783 148.352C14.6956 148.203 14.3643 147.993 14.0843 147.722C13.795 147.461 13.571 147.148 13.4123 146.784C13.2536 146.42 13.1743 146.023 13.1743 145.594ZM23.7023 142.64V148.604H22.3863V142.64H23.7023ZM23.9683 153.574V154.736H13.8323V151.404H22.3863V150.368H13.8323V149.22H23.7023V152.538H15.1483V153.574H23.9683ZM38.6027 153.574V154.736H28.6067V151.404H37.0207V150.368H28.6067V149.22H38.3367V152.538H29.9227V153.574H38.6027ZM40.0447 145.132V146.322H38.3367V148.604H37.0207V142.64H38.3367V145.132H40.0447ZM35.7047 146.966V148.142H28.3407V142.892H34.9207V144.068H29.6567V146.966H35.7047ZM47.2922 153.014V154.204H40.4462V147.764H45.0522V144.082H40.4462V142.892H46.3682V148.954H41.7622V153.014H47.2922ZM50.4422 148.646V154.736H49.1262V142.64H50.4422V147.47H52.1502V148.646H50.4422ZM52.5516 144.082V142.892H58.9776V144.082H56.2336C56.2243 144.67 56.1916 145.249 56.1356 145.818C56.089 146.378 56.0236 146.933 55.9396 147.484C56.1076 148.035 56.313 148.581 56.5556 149.122C56.8076 149.663 57.097 150.191 57.4236 150.704C57.741 151.217 58.091 151.703 58.4736 152.16C58.8563 152.617 59.267 153.028 59.7056 153.392L58.7116 154.204C58.0303 153.56 57.4143 152.841 56.8636 152.048C56.313 151.255 55.851 150.438 55.4776 149.598C55.235 150.466 54.927 151.301 54.5536 152.104C54.1803 152.897 53.7323 153.653 53.2096 154.372L52.0196 153.756C53.0836 152.328 53.8256 150.816 54.2456 149.22C54.6656 147.615 54.8896 145.902 54.9176 144.082H52.5516ZM61.4976 142.64H62.8136V154.736H61.4976V142.64ZM64.1251 148.688H75.7031V149.878H64.1251V148.688ZM75.1851 153.42V154.596H64.7831V150.928H66.0991V153.42H75.1851ZM64.7831 147.078V142.766H66.0991V145.93H75.1851V147.078H64.7831ZM84.5555 149.22V151.852C84.5555 152.636 84.3315 153.243 83.8835 153.672C83.4448 154.111 82.8335 154.33 82.0495 154.33C81.2655 154.33 80.6542 154.111 80.2155 153.672C79.7768 153.243 79.5575 152.636 79.5575 151.852V149.22C79.5575 148.436 79.7768 147.825 80.2155 147.386C80.6542 146.938 81.2655 146.714 82.0495 146.714C82.8335 146.714 83.4448 146.938 83.8835 147.386C84.3315 147.825 84.5555 148.436 84.5555 149.22ZM87.3135 142.696V154.596H85.9975V150.928H84.8215V149.738H85.9975V147.498H84.8215V146.322H85.9975V142.696H87.3135ZM89.8195 154.736H88.5035V142.64H89.8195V154.736ZM83.2395 151.852V149.22C83.2395 148.828 83.1368 148.511 82.9315 148.268C82.7355 148.025 82.4415 147.904 82.0495 147.904C81.6575 147.904 81.3635 148.025 81.1675 148.268C80.9715 148.511 80.8735 148.828 80.8735 149.22V151.852C80.8735 152.244 80.9715 152.561 81.1675 152.804C81.3635 153.037 81.6575 153.154 82.0495 153.154C82.4415 153.154 82.7355 153.037 82.9315 152.804C83.1368 152.561 83.2395 152.244 83.2395 151.852ZM84.8355 144.082V145.272H79.2915V144.082H81.3915V142.234H82.7075V144.082H84.8355ZM101.925 150.928V154.862H100.609V152.104H91.929V150.928H101.925ZM96.927 148.562V149.738H91.663V142.892H96.535V144.082H92.979V145.664H96.395V146.84H92.979V148.562H96.927ZM101.925 142.64V150.34H100.609V146.98H99.069V150.34H97.781V142.696H99.069V145.79H100.609V142.64H101.925ZM113.764 148.646V154.736H112.448V142.64H113.764V147.47H115.472V148.646H113.764ZM111.482 153.014V154.204H103.236V153.014H105.602V147.372H106.918V153.014H111.482ZM110.208 150.788H108.892V144.082H103.768V142.892H110.208V150.788ZM126.033 154.204H118.669V142.892H125.249V144.082H119.985V153.014H126.033V154.204ZM127.615 148.814H123.667V147.638H127.615V142.64H128.931V154.736H127.615V148.814ZM141.302 153.434V154.596H130.9V151.502H139.846V150.746H130.9V149.584H135.31V148.786H130.242V147.61H141.82V148.786H136.626V149.584H141.162V152.664H132.216V153.434H141.302ZM141.162 142.892V146.84H130.9V142.892H132.216V143.676H139.846V142.892H141.162ZM132.216 145.706H139.846V144.824H132.216V145.706ZM142.74 150.536V146.588C142.74 145.337 143.029 144.39 143.608 143.746C144.186 143.093 144.952 142.766 145.904 142.766C146.856 142.766 147.621 143.093 148.2 143.746C148.778 144.39 149.068 145.337 149.068 146.588V150.536C149.068 151.777 148.778 152.72 148.2 153.364C147.621 154.008 146.856 154.33 145.904 154.33C144.952 154.33 144.186 154.008 143.608 153.364C143.029 152.72 142.74 151.777 142.74 150.536ZM144.056 146.588V150.536C144.056 151.46 144.214 152.127 144.532 152.538C144.849 152.949 145.306 153.154 145.904 153.154C146.492 153.154 146.944 152.949 147.262 152.538C147.588 152.127 147.752 151.46 147.752 150.536V146.588C147.752 145.664 147.588 144.997 147.262 144.586C146.944 144.166 146.492 143.956 145.904 143.956C145.306 143.956 144.849 144.166 144.532 144.586C144.214 144.997 144.056 145.664 144.056 146.588ZM151.826 148.688H149.586V147.498H151.826V142.64H153.142V154.736H151.826V148.688ZM159.768 153.672H158.452V144.348H157.262V143.158H159.768V153.672ZM162.459 150.2L161.479 149.318C161.917 149.103 162.333 148.833 162.725 148.506C163.117 148.179 163.467 147.815 163.775 147.414C164.083 147.022 164.335 146.597 164.531 146.14C164.727 145.683 164.853 145.216 164.909 144.74H162.011V143.55H164.839V142.234H166.155V143.55H168.997V144.74H166.225C166.206 144.936 166.178 145.127 166.141 145.314C166.103 145.501 166.057 145.683 166.001 145.86C166.393 146.476 166.911 147.05 167.555 147.582C168.199 148.114 168.857 148.525 169.529 148.814L168.717 149.822C168.147 149.533 167.569 149.15 166.981 148.674C166.393 148.189 165.889 147.685 165.469 147.162C165.105 147.834 164.657 148.436 164.125 148.968C163.602 149.491 163.047 149.901 162.459 150.2ZM172.539 153.42V154.596H162.403V150.928H163.719V153.42H172.539ZM170.957 142.64H172.273V151.782H170.957V147.008H168.325V145.818H170.957V142.64ZM185.82 146.266V147.456H184.112V151.782H182.796V142.64H184.112V146.266H185.82ZM184.378 153.42V154.596H174.382V150.788H175.698V153.42H184.378ZM180.304 142.892V149.346H174.116V142.892H180.304ZM175.432 148.156H178.988V144.082H175.432V148.156ZM192.158 146.448C192.158 147.512 191.868 148.329 191.29 148.898C190.72 149.458 189.913 149.738 188.868 149.738H187.286V153.672H185.97V143.158H188.868C189.913 143.158 190.72 143.447 191.29 144.026C191.868 144.595 192.158 145.403 192.158 146.448ZM190.842 146.448C190.842 145.664 190.65 145.118 190.268 144.81C189.894 144.502 189.381 144.348 188.728 144.348H187.286V148.562H188.728C189.381 148.562 189.894 148.408 190.268 148.1C190.65 147.792 190.842 147.241 190.842 146.448ZM207.562 145.272V146.448H205.854V149.444H204.538V142.64H205.854V145.272H207.562ZM203.222 147.498V148.688H195.858V142.892H202.438V144.082H197.174V147.498H203.222ZM202.956 154.862H199.148C198.159 154.862 197.384 154.638 196.824 154.19C196.264 153.742 195.984 153.159 195.984 152.44C195.984 151.721 196.264 151.138 196.824 150.69C197.384 150.233 198.159 150.004 199.148 150.004H202.956C203.936 150.004 204.706 150.233 205.266 150.69C205.836 151.138 206.12 151.721 206.12 152.44C206.12 153.159 205.836 153.742 205.266 154.19C204.706 154.638 203.936 154.862 202.956 154.862ZM199.148 153.7H202.956C203.488 153.7 203.918 153.588 204.244 153.364C204.571 153.14 204.734 152.832 204.734 152.44C204.734 152.048 204.571 151.74 204.244 151.516C203.918 151.283 203.488 151.166 202.956 151.166H199.148C198.616 151.166 198.187 151.283 197.86 151.516C197.534 151.74 197.37 152.048 197.37 152.44C197.37 152.832 197.534 153.14 197.86 153.364C198.187 153.588 198.616 153.7 199.148 153.7ZM208.426 149.612L207.432 148.702C208.318 148.31 209.065 147.764 209.672 147.064C210.288 146.355 210.68 145.58 210.848 144.74H207.964V143.55H210.792V142.234H212.108V143.55H214.95V144.74H212.178C212.15 144.889 212.117 145.039 212.08 145.188C212.042 145.328 212 145.468 211.954 145.608C212.346 146.196 212.859 146.723 213.494 147.19C214.128 147.647 214.791 147.997 215.482 148.24L214.726 149.29C214.11 149.047 213.498 148.707 212.892 148.268C212.285 147.829 211.781 147.363 211.38 146.868C211.034 147.456 210.605 147.993 210.092 148.478C209.578 148.954 209.023 149.332 208.426 149.612ZM218.226 150.27V154.596H208.356V150.27H218.226ZM209.672 151.432V153.434H216.91V151.432H209.672ZM216.91 142.64H218.226V149.766H216.91V146.812H214.278V145.622H216.91V142.64ZM223.256 154.596V150.788H224.572V153.42H233.392V154.596H223.256ZM225.23 142.64H226.546C226.546 143.06 226.518 143.48 226.462 143.9C226.406 144.32 226.327 144.735 226.224 145.146C226.644 145.846 227.171 146.504 227.806 147.12C228.45 147.727 229.136 148.24 229.864 148.66L229.052 149.668C228.427 149.304 227.82 148.851 227.232 148.31C226.653 147.759 226.154 147.19 225.734 146.602C225.454 147.283 225.099 147.918 224.67 148.506C224.25 149.094 223.769 149.598 223.228 150.018L222.178 149.178C222.654 148.823 223.079 148.408 223.452 147.932C223.835 147.456 224.157 146.938 224.418 146.378C224.679 145.809 224.88 145.211 225.02 144.586C225.16 143.951 225.23 143.303 225.23 142.64ZM231.81 145.272V142.64H233.126V151.782H231.81V146.448H228.632V145.272H231.81ZM245.498 153.434V154.596H235.096V151.474H244.042V150.69H235.096V149.528H239.506V148.548H234.438V147.372H246.016V148.548H240.822V149.528H245.358V152.636H236.412V153.434H245.498ZM245.358 142.892V146.574H235.096V142.892H245.358ZM236.412 145.426H244.042V144.04H236.412V145.426ZM257.603 153.42V154.596H247.201V151.39H256.147V150.578H247.201V149.402H257.463V152.552H248.517V153.42H257.603ZM246.543 147.372H258.121V148.548H246.543V147.372ZM249.441 145.468H255.097C255.424 145.468 255.704 145.398 255.937 145.258C256.17 145.109 256.287 144.903 256.287 144.642C256.287 144.381 256.17 144.175 255.937 144.026C255.704 143.877 255.424 143.802 255.097 143.802H249.441C249.105 143.802 248.844 143.877 248.657 144.026C248.48 144.175 248.391 144.381 248.391 144.642C248.391 144.903 248.48 145.109 248.657 145.258C248.844 145.398 249.105 145.468 249.441 145.468ZM249.441 142.64H255.097C255.825 142.64 256.422 142.813 256.889 143.158C257.365 143.494 257.603 143.989 257.603 144.642C257.603 145.305 257.365 145.804 256.889 146.14C256.422 146.467 255.825 146.63 255.097 146.63H249.441C248.713 146.63 248.134 146.467 247.705 146.14C247.285 145.804 247.075 145.305 247.075 144.642C247.075 143.989 247.285 143.494 247.705 143.158C248.134 142.813 248.713 142.64 249.441 142.64ZM272.363 142.892V144.082H268.345C268.261 144.241 268.168 144.39 268.065 144.53C267.972 144.67 267.874 144.81 267.771 144.95C268.406 145.482 269.157 145.925 270.025 146.28C270.903 146.625 271.817 146.84 272.769 146.924L272.125 147.974C271.668 147.918 271.201 147.829 270.725 147.708C270.259 147.577 269.806 147.419 269.367 147.232C268.919 147.036 268.49 146.821 268.079 146.588C267.678 146.345 267.319 146.084 267.001 145.804C266.367 146.42 265.648 146.933 264.845 147.344C264.043 147.745 263.226 148.016 262.395 148.156L261.709 147.092C262.773 146.952 263.753 146.621 264.649 146.098C265.555 145.575 266.297 144.903 266.875 144.082H262.101V142.892H272.363ZM272.503 153.42V154.596H262.101V151.32H263.417V153.42H272.503ZM267.953 152.272H266.637V150.13H261.443V148.954H273.021V150.13H267.953V152.272ZM284.343 142.64V154.736H283.027V142.64H284.343ZM280.129 142.892V154.204H274.081V142.892H275.397V146.84H278.813V142.892H280.129ZM275.397 153.014H278.813V148.03H275.397V153.014ZM286.466 154.596L285.64 153.63C286.49 153.378 287.194 152.967 287.754 152.398C288.324 151.819 288.674 151.119 288.804 150.298L290.022 150.578C289.994 150.774 289.952 150.97 289.896 151.166C289.84 151.362 289.775 151.544 289.7 151.712C289.934 152.001 290.204 152.277 290.512 152.538C290.83 152.799 291.152 153.014 291.478 153.182C291.926 152.921 292.328 152.524 292.682 151.992C293.046 151.451 293.284 150.886 293.396 150.298L294.628 150.578C294.591 150.783 294.54 150.984 294.474 151.18C294.409 151.376 294.334 151.572 294.25 151.768C294.67 152.151 295.142 152.487 295.664 152.776C296.196 153.056 296.7 153.28 297.176 153.448L296.546 154.54C296.052 154.363 295.548 154.115 295.034 153.798C294.521 153.49 294.059 153.154 293.648 152.79C293.359 153.191 293.028 153.551 292.654 153.868C292.29 154.195 291.912 154.456 291.52 154.652C291.1 154.428 290.671 154.148 290.232 153.812C289.794 153.485 289.402 153.14 289.056 152.776C288.72 153.205 288.324 153.574 287.866 153.882C287.418 154.199 286.952 154.437 286.466 154.596ZM295.132 142.64H296.448V149.934H295.132V146.84H293.592V149.934H292.304V142.696H293.592V145.664H295.132V142.64ZM288.118 143.298V142.234H289.434V143.298H291.772V144.446H285.794V143.298H288.118ZM286.186 147.358C286.186 146.658 286.434 146.089 286.928 145.65C287.432 145.211 288.062 144.992 288.818 144.992C289.574 144.992 290.2 145.211 290.694 145.65C291.198 146.089 291.45 146.658 291.45 147.358C291.45 148.077 291.198 148.651 290.694 149.08C290.2 149.509 289.574 149.724 288.818 149.724C288.062 149.724 287.432 149.509 286.928 149.08C286.434 148.651 286.186 148.077 286.186 147.358ZM287.488 147.358C287.488 147.713 287.61 148.011 287.852 148.254C288.095 148.497 288.417 148.618 288.818 148.618C289.21 148.618 289.528 148.497 289.77 148.254C290.022 148.011 290.148 147.713 290.148 147.358C290.148 147.013 290.022 146.719 289.77 146.476C289.528 146.224 289.21 146.098 288.818 146.098C288.417 146.098 288.095 146.224 287.852 146.476C287.61 146.719 287.488 147.013 287.488 147.358ZM298.152 150.536V146.588C298.152 145.337 298.441 144.39 299.02 143.746C299.599 143.093 300.364 142.766 301.316 142.766C302.268 142.766 303.033 143.093 303.612 143.746C304.191 144.39 304.48 145.337 304.48 146.588V150.536C304.48 151.777 304.191 152.72 303.612 153.364C303.033 154.008 302.268 154.33 301.316 154.33C300.364 154.33 299.599 154.008 299.02 153.364C298.441 152.72 298.152 151.777 298.152 150.536ZM299.468 146.588V150.536C299.468 151.46 299.627 152.127 299.944 152.538C300.261 152.949 300.719 153.154 301.316 153.154C301.904 153.154 302.357 152.949 302.674 152.538C303.001 152.127 303.164 151.46 303.164 150.536V146.588C303.164 145.664 303.001 144.997 302.674 144.586C302.357 144.166 301.904 143.956 301.316 143.956C300.719 143.956 300.261 144.166 299.944 144.586C299.627 144.997 299.468 145.664 299.468 146.588ZM307.238 148.688H304.998V147.498H307.238V142.64H308.554V154.736H307.238V148.688ZM317.243 149.22H314.079C313.519 149.22 313.001 149.145 312.525 148.996C312.059 148.837 311.657 148.613 311.321 148.324C310.985 148.035 310.724 147.689 310.537 147.288C310.351 146.877 310.257 146.425 310.257 145.93C310.257 145.445 310.351 145.001 310.537 144.6C310.724 144.189 310.985 143.839 311.321 143.55C311.657 143.261 312.059 143.037 312.525 142.878C313.001 142.719 313.519 142.64 314.079 142.64H317.243C317.794 142.64 318.303 142.719 318.769 142.878C319.236 143.037 319.637 143.261 319.973 143.55C320.309 143.839 320.571 144.189 320.757 144.6C320.953 145.001 321.051 145.445 321.051 145.93C321.051 146.425 320.953 146.877 320.757 147.288C320.571 147.689 320.309 148.035 319.973 148.324C319.637 148.613 319.236 148.837 318.769 148.996C318.303 149.145 317.794 149.22 317.243 149.22ZM314.079 148.03H317.243C317.962 148.03 318.545 147.839 318.993 147.456C319.441 147.064 319.665 146.555 319.665 145.93C319.665 145.305 319.441 144.796 318.993 144.404C318.545 144.012 317.962 143.816 317.243 143.816H314.079C313.351 143.816 312.763 144.012 312.315 144.404C311.867 144.796 311.643 145.305 311.643 145.93C311.643 146.555 311.867 147.064 312.315 147.456C312.763 147.839 313.351 148.03 314.079 148.03ZM321.443 153.014V154.204H309.865V153.014H312.497V150.004H313.813V153.014H317.495V150.004H318.811V153.014H321.443ZM17.8186 163.64H19.1346C19.1346 163.976 19.1113 164.303 19.0646 164.62C19.0273 164.937 18.9666 165.245 18.8826 165.544C19.3306 166.104 19.8813 166.613 20.5346 167.07C21.1973 167.527 21.93 167.896 22.7326 168.176L22.1166 169.296C21.4446 169.035 20.782 168.689 20.1286 168.26C19.4753 167.831 18.906 167.359 18.4206 166.846C18.1406 167.434 17.8 167.971 17.3986 168.456C17.0066 168.932 16.5726 169.333 16.0966 169.66L15.0606 168.862C15.9286 168.33 16.6053 167.607 17.0906 166.692C17.576 165.777 17.8186 164.76 17.8186 163.64ZM26.2466 174.574V175.736H16.1106V172.404H24.6646V171.368H16.1106V170.22H25.9806V173.538H17.4266V174.574H26.2466ZM25.9806 163.64V169.604H24.6646V166.664H21.4866V165.474H24.6646V163.64H25.9806ZM32.6961 174.014V175.204H27.8241V168.764H30.7221V165.082H27.8241V163.892H32.0381V169.954H29.1401V174.014H32.6961ZM35.3841 163.696V175.596H34.0681V169.954H32.5561V168.764H34.0681V163.696H35.3841ZM38.0861 175.736H36.7701V163.64H38.0861V175.736ZM39.3976 169.688H50.9756V170.878H39.3976V169.688ZM50.4576 174.42V175.596H40.0556V171.928H41.3716V174.42H50.4576ZM40.0556 168.078V163.766H41.3716V166.93H50.4576V168.078H40.0556ZM65.2179 172.852H63.9019V169.814H54.9559V168.638H63.9019V165.082H54.9559V163.892H65.2179V172.852ZM65.8759 174.014V175.204H54.2979V174.014H65.8759ZM73.9074 174.014V175.204H66.9354V168.764H71.6674V165.082H66.9354V163.892H72.9834V169.954H68.2514V174.014H73.9074ZM77.1974 163.64V175.736H75.8814V163.64H77.1974ZM90.0869 174.014V175.204H78.5089V174.014H90.0869ZM79.3069 170.682L78.5089 169.702C79.2089 169.45 79.8575 169.123 80.4549 168.722C81.0615 168.321 81.5935 167.859 82.0509 167.336C82.5175 166.813 82.9049 166.239 83.2129 165.614C83.5209 164.989 83.7402 164.331 83.8709 163.64L85.1729 163.892C85.1169 164.2 85.0422 164.503 84.9489 164.802C84.8649 165.101 84.7622 165.39 84.6409 165.67C85.3035 166.491 86.1062 167.215 87.0489 167.84C88.0009 168.456 89.0135 168.904 90.0869 169.184L89.4009 170.234C88.3929 169.935 87.4129 169.487 86.4609 168.89C85.5182 168.283 84.7062 167.597 84.0249 166.832C83.4649 167.709 82.7695 168.484 81.9389 169.156C81.1175 169.828 80.2402 170.337 79.3069 170.682ZM97.0684 163.892V175.204H91.1464V163.892H97.0684ZM92.4624 174.014H95.7524V165.082H92.4624V174.014ZM101.142 169.646V175.736H99.8264V163.64H101.142V168.47H102.85V169.646H101.142ZM114.298 174.014V175.204H102.72V174.014H114.298ZM103.518 170.682L102.72 169.702C103.42 169.45 104.068 169.123 104.666 168.722C105.272 168.321 105.804 167.859 106.262 167.336C106.728 166.813 107.116 166.239 107.424 165.614C107.732 164.989 107.951 164.331 108.082 163.64L109.384 163.892C109.328 164.2 109.253 164.503 109.16 164.802C109.076 165.101 108.973 165.39 108.852 165.67C109.514 166.491 110.317 167.215 111.26 167.84C112.212 168.456 113.224 168.904 114.298 169.184L113.612 170.234C112.604 169.935 111.624 169.487 110.672 168.89C109.729 168.283 108.917 167.597 108.236 166.832C107.676 167.709 106.98 168.484 106.15 169.156C105.328 169.828 104.451 170.337 103.518 170.682ZM125.885 170.024V171.2H115.483V166.93H124.429V165.082H115.483V163.892H125.745V168.106H116.799V170.024H125.885ZM126.403 174.014V175.204H114.825V174.014H119.963V171.872H121.279V174.014H126.403ZM126.931 175.204V174.014H135.443V175.204H126.931ZM136.409 175.736V163.64H137.725V175.736H136.409ZM134.435 167.056C134.435 167.551 134.346 168.008 134.169 168.428C134.001 168.848 133.758 169.207 133.441 169.506C133.133 169.814 132.759 170.052 132.321 170.22C131.882 170.388 131.401 170.472 130.879 170.472C130.347 170.472 129.861 170.388 129.423 170.22C128.993 170.052 128.62 169.814 128.303 169.506C127.995 169.207 127.752 168.848 127.575 168.428C127.407 168.008 127.323 167.551 127.323 167.056C127.323 166.571 127.407 166.118 127.575 165.698C127.752 165.278 127.995 164.919 128.303 164.62C128.62 164.312 128.993 164.074 129.423 163.906C129.861 163.729 130.347 163.64 130.879 163.64C131.401 163.64 131.882 163.729 132.321 163.906C132.759 164.074 133.133 164.312 133.441 164.62C133.758 164.919 134.001 165.278 134.169 165.698C134.346 166.118 134.435 166.571 134.435 167.056ZM133.119 167.056C133.119 166.44 132.918 165.913 132.517 165.474C132.115 165.035 131.569 164.816 130.879 164.816C130.179 164.816 129.628 165.035 129.227 165.474C128.835 165.913 128.639 166.44 128.639 167.056C128.639 167.681 128.835 168.213 129.227 168.652C129.628 169.081 130.179 169.296 130.879 169.296C131.569 169.296 132.115 169.081 132.517 168.652C132.918 168.213 133.119 167.681 133.119 167.056ZM142.223 171.536V167.588C142.223 166.337 142.512 165.39 143.091 164.746C143.67 164.093 144.435 163.766 145.387 163.766C146.339 163.766 147.104 164.093 147.683 164.746C148.262 165.39 148.551 166.337 148.551 167.588V171.536C148.551 172.777 148.262 173.72 147.683 174.364C147.104 175.008 146.339 175.33 145.387 175.33C144.435 175.33 143.67 175.008 143.091 174.364C142.512 173.72 142.223 172.777 142.223 171.536ZM143.539 167.588V171.536C143.539 172.46 143.698 173.127 144.015 173.538C144.332 173.949 144.79 174.154 145.387 174.154C145.975 174.154 146.428 173.949 146.745 173.538C147.072 173.127 147.235 172.46 147.235 171.536V167.588C147.235 166.664 147.072 165.997 146.745 165.586C146.428 165.166 145.975 164.956 145.387 164.956C144.79 164.956 144.332 165.166 144.015 165.586C143.698 165.997 143.539 166.664 143.539 167.588ZM151.309 171.788H149.069V170.612H151.309V167.84H149.069V166.664H151.309V163.64H152.625V175.736H151.309V171.788ZM154.973 170.752L153.937 169.912C154.805 169.38 155.5 168.722 156.023 167.938C156.545 167.145 156.853 166.193 156.947 165.082H154.469V163.892H160.895V165.082H158.263C158.244 165.306 158.216 165.525 158.179 165.74C158.151 165.945 158.118 166.146 158.081 166.342C158.473 166.958 158.963 167.532 159.551 168.064C160.148 168.596 160.801 169.049 161.511 169.422L160.657 170.402C160.05 170.057 159.485 169.66 158.963 169.212C158.44 168.755 157.978 168.269 157.577 167.756C157.297 168.372 156.933 168.932 156.485 169.436C156.046 169.931 155.542 170.369 154.973 170.752ZM161.973 175.862H157.759C156.769 175.862 156.018 175.643 155.505 175.204C154.991 174.765 154.735 174.219 154.735 173.566C154.735 172.913 154.991 172.367 155.505 171.928C156.018 171.489 156.769 171.27 157.759 171.27H161.973C162.953 171.27 163.699 171.489 164.213 171.928C164.735 172.367 164.997 172.913 164.997 173.566C164.997 174.219 164.735 174.765 164.213 175.204C163.699 175.643 162.953 175.862 161.973 175.862ZM157.759 174.7H161.973C162.495 174.7 162.897 174.602 163.177 174.406C163.466 174.21 163.611 173.93 163.611 173.566C163.611 173.211 163.466 172.936 163.177 172.74C162.897 172.535 162.495 172.432 161.973 172.432H157.759C157.227 172.432 156.816 172.535 156.527 172.74C156.247 172.936 156.107 173.211 156.107 173.566C156.107 173.93 156.247 174.21 156.527 174.406C156.816 174.602 157.227 174.7 157.759 174.7ZM163.415 163.64H164.731V170.836H163.415V167.588H160.657V166.398H163.415V163.64ZM176.836 175.736H175.52V163.64H176.836V175.736ZM167.75 166.398V172.712C167.75 173.244 167.853 173.617 168.058 173.832C168.263 174.047 168.534 174.154 168.87 174.154C169.197 174.154 169.463 174.047 169.668 173.832C169.883 173.617 169.99 173.244 169.99 172.712V166.398C169.99 165.875 169.883 165.507 169.668 165.292C169.463 165.068 169.197 164.956 168.87 164.956C168.534 164.956 168.263 165.068 168.058 165.292C167.853 165.507 167.75 165.875 167.75 166.398ZM166.434 172.712V166.398C166.434 165.941 166.495 165.549 166.616 165.222C166.747 164.886 166.924 164.611 167.148 164.396C167.372 164.181 167.629 164.023 167.918 163.92C168.217 163.817 168.534 163.766 168.87 163.766C169.197 163.766 169.505 163.817 169.794 163.92C170.093 164.023 170.354 164.181 170.578 164.396C170.802 164.611 170.979 164.886 171.11 165.222C171.241 165.549 171.306 165.941 171.306 166.398V168.498H172.818V163.696H174.134V175.596H172.818V169.688H171.306V172.712C171.306 173.179 171.241 173.575 171.11 173.902C170.979 174.229 170.802 174.499 170.578 174.714C170.354 174.929 170.093 175.083 169.794 175.176C169.505 175.279 169.197 175.33 168.87 175.33C168.534 175.33 168.217 175.279 167.918 175.176C167.629 175.083 167.372 174.929 167.148 174.714C166.924 174.499 166.747 174.229 166.616 173.902C166.495 173.575 166.434 173.179 166.434 172.712ZM185.688 165.74C185.66 165.889 185.628 166.039 185.59 166.188C185.553 166.328 185.511 166.468 185.464 166.608C185.856 167.196 186.37 167.723 187.004 168.19C187.639 168.647 188.302 168.997 188.992 169.24L188.236 170.29C187.62 170.047 187.009 169.707 186.402 169.268C185.796 168.829 185.292 168.363 184.89 167.868C184.545 168.456 184.116 168.993 183.602 169.478C183.089 169.954 182.534 170.332 181.936 170.612L180.942 169.702C181.829 169.31 182.576 168.764 183.182 168.064C183.798 167.355 184.19 166.58 184.358 165.74H181.474V164.55H184.302V163.234H185.618V164.55H188.46V165.74H185.688ZM190.154 170.696V163.64H191.47V166.524H193.178V167.714H191.47V170.696H190.154ZM181.74 175.596V171.27H191.47V175.596H181.74ZM190.154 174.434V172.432H183.056V174.434H190.154ZM193.44 171.536V167.588C193.44 166.337 193.729 165.39 194.308 164.746C194.887 164.093 195.652 163.766 196.604 163.766C197.556 163.766 198.321 164.093 198.9 164.746C199.479 165.39 199.768 166.337 199.768 167.588V171.536C199.768 172.777 199.479 173.72 198.9 174.364C198.321 175.008 197.556 175.33 196.604 175.33C195.652 175.33 194.887 175.008 194.308 174.364C193.729 173.72 193.44 172.777 193.44 171.536ZM194.756 167.588V171.536C194.756 172.46 194.915 173.127 195.232 173.538C195.549 173.949 196.007 174.154 196.604 174.154C197.192 174.154 197.645 173.949 197.962 173.538C198.289 173.127 198.452 172.46 198.452 171.536V167.588C198.452 166.664 198.289 165.997 197.962 165.586C197.645 165.166 197.192 164.956 196.604 164.956C196.007 164.956 195.549 165.166 195.232 165.586C194.915 165.997 194.756 166.664 194.756 167.588ZM202.526 171.788H200.286V170.612H202.526V167.84H200.286V166.664H202.526V163.64H203.842V175.736H202.526V171.788ZM210.683 170.22V172.852C210.683 173.636 210.459 174.243 210.011 174.672C209.573 175.111 208.961 175.33 208.177 175.33C207.393 175.33 206.782 175.111 206.343 174.672C205.905 174.243 205.685 173.636 205.685 172.852V170.22C205.685 169.436 205.905 168.825 206.343 168.386C206.782 167.938 207.393 167.714 208.177 167.714C208.961 167.714 209.573 167.938 210.011 168.386C210.459 168.825 210.683 169.436 210.683 170.22ZM209.367 172.852V170.22C209.367 169.828 209.265 169.511 209.059 169.268C208.863 169.025 208.569 168.904 208.177 168.904C207.785 168.904 207.491 169.025 207.295 169.268C207.099 169.511 207.001 169.828 207.001 170.22V172.852C207.001 173.244 207.099 173.561 207.295 173.804C207.491 174.037 207.785 174.154 208.177 174.154C208.569 174.154 208.863 174.037 209.059 173.804C209.265 173.561 209.367 173.244 209.367 172.852ZM215.947 163.64V175.736H214.631V169.688H213.049V175.596H211.733V163.696H213.049V168.498H214.631V163.64H215.947ZM210.963 165.082V166.272H205.419V165.082H207.519V163.234H208.835V165.082H210.963ZM228.179 163.892V171.13H217.917V163.892H219.233V166.272H226.863V163.892H228.179ZM219.233 169.954H226.863V167.448H219.233V169.954ZM228.837 174.014V175.204H217.259V174.014H222.397V171.746H223.713V174.014H228.837ZM229.364 169.688H240.942V170.878H229.364V169.688ZM240.424 174.42V175.596H230.022V171.928H231.338V174.42H240.424ZM230.022 168.078V163.766H231.338V166.93H240.424V168.078H230.022ZM244.797 163.892H250.579V164.592C250.579 165.404 250.439 166.165 250.159 166.874C249.879 167.574 249.487 168.199 248.983 168.75C248.479 169.301 247.881 169.772 247.191 170.164C246.5 170.556 245.744 170.85 244.923 171.046L244.237 169.996C244.955 169.856 245.613 169.637 246.211 169.338C246.808 169.03 247.326 168.661 247.765 168.232C248.203 167.812 248.549 167.336 248.801 166.804C249.062 166.263 249.216 165.689 249.263 165.082H244.797V163.892ZM255.059 163.64V172.782H253.743V168.106H250.565V166.93H253.743V163.64H255.059ZM255.325 174.42V175.596H245.189V171.788H246.505V174.42H255.325ZM259.557 171.536V167.588C259.557 166.337 259.846 165.39 260.425 164.746C261.004 164.093 261.769 163.766 262.721 163.766C263.673 163.766 264.438 164.093 265.017 164.746C265.596 165.39 265.885 166.337 265.885 167.588V171.536C265.885 172.777 265.596 173.72 265.017 174.364C264.438 175.008 263.673 175.33 262.721 175.33C261.769 175.33 261.004 175.008 260.425 174.364C259.846 173.72 259.557 172.777 259.557 171.536ZM260.873 167.588V171.536C260.873 172.46 261.032 173.127 261.349 173.538C261.666 173.949 262.124 174.154 262.721 174.154C263.309 174.154 263.762 173.949 264.079 173.538C264.406 173.127 264.569 172.46 264.569 171.536V167.588C264.569 166.664 264.406 165.997 264.079 165.586C263.762 165.166 263.309 164.956 262.721 164.956C262.124 164.956 261.666 165.166 261.349 165.586C261.032 165.997 260.873 166.664 260.873 167.588ZM268.643 169.688H266.403V168.498H268.643V163.64H269.959V175.736H268.643V169.688ZM282.331 174.574V175.736H272.195V172.46H280.749V171.508H272.195V170.346H282.065V173.594H273.511V174.574H282.331ZM279.433 168.12V169.296H275.611V163.892H279.307V165.068H276.927V168.12H279.433ZM275.149 168.12V169.296H271.803V163.892H275.149V165.068H273.119V168.12H275.149ZM282.065 163.64V169.73H280.749V167.112H278.229V165.936H280.749V163.64H282.065ZM294.044 169.646V175.736H292.728V163.64H294.044V168.47H295.612V169.646H294.044ZM287.716 163.892H291.076V167.42C291.076 168.111 291.039 168.811 290.964 169.52C290.889 170.22 290.759 170.906 290.572 171.578C290.395 172.259 290.152 172.922 289.844 173.566C289.536 174.201 289.149 174.793 288.682 175.344L287.506 174.672C287.935 174.196 288.295 173.678 288.584 173.118C288.873 172.549 289.107 171.951 289.284 171.326C289.452 170.71 289.573 170.075 289.648 169.422C289.723 168.769 289.76 168.115 289.76 167.462V165.082H287.716V163.892ZM283.908 163.892H287.324V167.028C287.324 167.719 287.273 168.419 287.17 169.128C287.067 169.828 286.909 170.514 286.694 171.186C286.479 171.867 286.195 172.53 285.84 173.174C285.495 173.809 285.07 174.401 284.566 174.952L283.362 174.28C283.829 173.804 284.23 173.286 284.566 172.726C284.902 172.157 285.177 171.559 285.392 170.934C285.597 170.318 285.751 169.683 285.854 169.03C285.957 168.377 286.008 167.723 286.008 167.07V165.082H283.908V163.892ZM302.86 170.22H299.696C299.136 170.22 298.618 170.145 298.142 169.996C297.675 169.837 297.274 169.613 296.938 169.324C296.602 169.035 296.34 168.689 296.154 168.288C295.967 167.877 295.874 167.425 295.874 166.93C295.874 166.445 295.967 166.001 296.154 165.6C296.34 165.189 296.602 164.839 296.938 164.55C297.274 164.261 297.675 164.037 298.142 163.878C298.618 163.719 299.136 163.64 299.696 163.64H302.86C303.41 163.64 303.919 163.719 304.386 163.878C304.852 164.037 305.254 164.261 305.59 164.55C305.926 164.839 306.187 165.189 306.374 165.6C306.57 166.001 306.668 166.445 306.668 166.93C306.668 167.425 306.57 167.877 306.374 168.288C306.187 168.689 305.926 169.035 305.59 169.324C305.254 169.613 304.852 169.837 304.386 169.996C303.919 170.145 303.41 170.22 302.86 170.22ZM299.696 169.03H302.86C303.578 169.03 304.162 168.839 304.61 168.456C305.058 168.064 305.282 167.555 305.282 166.93C305.282 166.305 305.058 165.796 304.61 165.404C304.162 165.012 303.578 164.816 302.86 164.816H299.696C298.968 164.816 298.38 165.012 297.932 165.404C297.484 165.796 297.26 166.305 297.26 166.93C297.26 167.555 297.484 168.064 297.932 168.456C298.38 168.839 298.968 169.03 299.696 169.03ZM307.06 174.014V175.204H295.482V174.014H298.114V171.004H299.43V174.014H303.112V171.004H304.428V174.014H307.06Z" fill="white"/>
</svg>
