<svg width="325" height="253" viewBox="0 0 325 253" fill="none" xmlns="http://www.w3.org/2000/svg">
<path d="M92.4656 32.968V31.048H114.45C116.018 31.048 116.37 31.784 116.37 32.712C116.37 32.904 116.338 33.128 116.306 33.352L113.426 49.992H108.722V48.68L109.906 41.608H92.3056V39.688H110.226L111.25 33.704C111.282 33.64 111.282 33.576 111.282 33.512C111.282 33.16 111.058 32.968 110.578 32.968H92.4656ZM89.8096 55.112V53.192H118.482V55.112H89.8096ZM138.664 42.12V44.04H127.144L125.064 52.36C125.032 52.52 125 52.68 125 52.776C125 53 125.064 53.192 125.672 53.192H138.824V55.112H121.8C120.04 55.112 119.848 54.216 119.848 53.48C119.848 53.256 119.88 53 119.944 52.712L122.12 44.04H119.944V42.12H131.304L133.32 33.8C133.352 33.64 133.384 33.48 133.384 33.384C133.384 33.16 133.32 32.968 132.712 32.968H120.584V31.048H136.584C138.344 31.048 138.536 31.944 138.536 32.68C138.536 32.904 138.504 33.16 138.44 33.448L136.328 42.12H138.664ZM146.376 30.76V55.432H141.224V30.76H146.376ZM173.133 49.032L164.493 34.408C164.333 34.152 164.333 34.056 164.109 34.056C163.949 34.056 163.821 34.216 163.661 34.504L156.109 49.032H150.445L158.893 32.84C159.565 31.656 160.621 30.728 162.669 30.728C164.621 30.728 165.453 31.56 166.189 32.68L175.885 49.032H173.133ZM148.685 55.112V53.192H177.357V55.112H148.685ZM196.931 55.112H180.675C178.915 55.112 178.755 54.216 178.755 53.352C178.755 53.16 178.787 52.936 178.819 52.712L181.955 32.968H179.107V31.048H196.931V55.112ZM204.611 30.76V41.416H207.811V43.336H204.611V55.432H199.459V30.76H204.611ZM191.779 32.968H186.883L183.939 52.36C183.907 52.488 183.907 52.584 183.907 52.68C183.907 53.032 183.939 53.192 184.547 53.192H191.779V32.968ZM232.976 49.032L224.336 34.408C224.176 34.152 224.176 34.056 223.952 34.056C223.792 34.056 223.664 34.216 223.504 34.504L215.952 49.032H210.288L218.736 32.84C219.408 31.656 220.464 30.728 222.512 30.728C224.464 30.728 225.296 31.56 226.032 32.68L235.728 49.032H232.976ZM208.528 55.112V53.192H237.2V55.112H208.528ZM83.6725 67.76V92.432H78.5205V80.976H75.6405C75.3845 89.584 71.9925 92.432 66.5845 92.432C61.0485 92.432 57.4965 89.392 57.4965 80.08C57.4965 70.768 61.0485 67.728 66.5845 67.728C71.9285 67.728 75.3845 70.544 75.6405 79.056H78.5205V67.76H83.6725ZM70.5205 80.08C70.5205 71.536 69.0165 69.648 66.5845 69.648C64.1525 69.648 62.6485 71.536 62.6485 80.08C62.6485 88.624 64.1525 90.512 66.5845 90.512C69.0165 90.512 70.5205 88.624 70.5205 80.08ZM112.222 69.968H95.7415L92.8295 82.96C92.7975 83.088 92.7975 83.216 92.7975 83.312C92.7975 83.568 92.8295 83.792 93.4375 83.792H112.542V85.712H89.5655C87.8055 85.712 87.6135 84.816 87.6135 84.08C87.6135 83.856 87.6455 83.6 87.7095 83.312L90.7175 69.968H87.9975V68.048H112.222V69.968ZM85.9815 92.112V90.192H114.654V92.112H85.9815ZM121.844 69.424L120.82 73.2H126.388V68.048H130.868V73.52H132.628V67.76H137.204V87.152H132.628V75.44H130.868V81.136H117.972C116.404 81.136 116.02 80.304 116.02 79.504C116.02 79.28 116.052 79.024 116.116 78.736L116.948 75.12H116.436V73.2L117.844 68.048H121.844V69.424ZM142.868 67.76V87.152H138.292V67.76H142.868ZM117.236 90.032L119.572 83.536H124.276V84.848L122.516 89.68C122.484 89.84 122.452 89.968 122.452 90.064C122.452 90.352 122.644 90.512 122.996 90.512H143.188V92.432H119.092C117.524 92.432 117.044 91.6 117.044 90.928C117.044 90.64 117.108 90.352 117.236 90.032ZM121.204 75.152L120.436 78.448C120.404 78.544 120.404 78.64 120.404 78.704C120.404 79.056 120.628 79.216 121.044 79.216H126.388V75.12H121.204V75.152ZM171.249 78.064H153.105L152.017 82.96C151.985 83.088 151.985 83.216 151.985 83.312C151.985 83.568 152.017 83.792 152.625 83.792H171.729V85.712H148.753C146.993 85.712 146.801 84.816 146.801 84.08C146.801 83.856 146.833 83.6 146.897 83.312L149.905 69.968H147.185V68.048H171.409V69.968H154.897L153.521 76.144H171.249V78.064ZM145.169 92.112V90.192H173.841V92.112H145.169ZM210.84 85.68V87.6H191L190.296 89.68C190.264 89.84 190.232 89.968 190.232 90.064C190.232 90.352 190.424 90.512 190.776 90.512H211V92.432H186.904C185.336 92.432 184.888 91.568 184.888 90.896C184.888 90.64 184.952 90.352 185.048 90.032L185.88 87.6H185.048V85.68H204.728L205.368 83.6C205.4 83.44 205.432 83.312 205.432 83.216C205.432 82.928 205.24 82.768 204.888 82.768H185.688V80.848H208.76C210.328 80.848 210.776 81.712 210.776 82.384C210.776 82.64 210.712 82.928 210.616 83.248L209.848 85.68H210.84ZM204.376 67.76V72.4H206.104V67.76H210.68V79.152H206.104V74.32H204.376V79.152H199.8V67.76H204.376ZM190.424 77.584L191.608 74.48H184.376V72.56H192.376L193.112 70.672C193.144 70.544 193.176 70.448 193.176 70.352C193.176 70.096 193.016 69.968 192.664 69.968H184.536V68.048H196.376C198.008 68.048 198.328 68.944 198.328 69.552C198.328 69.84 198.264 70.192 198.104 70.544L194.872 78.896H190.424V77.584ZM232.086 73.808V75.728H219.222L218.486 78.704C218.454 78.832 218.422 78.96 218.422 79.056C218.422 79.376 218.646 79.536 219.062 79.536H232.246V81.456H215.222C213.654 81.456 213.27 80.624 213.27 79.856C213.27 79.6 213.302 79.344 213.366 79.056L214.198 75.728H213.366V73.808H226.07L226.838 70.8C226.87 70.672 226.902 70.544 226.902 70.448C226.902 70.128 226.678 69.968 226.262 69.968H214.006V68.048H230.102C231.67 68.048 232.054 68.88 232.054 69.68C232.054 69.904 232.022 70.16 231.958 70.448L231.094 73.808H232.086ZM239.798 67.76V87.152H234.646V67.76H239.798ZM220.342 90.512H240.118V92.432H216.214C214.549 92.432 214.294 91.536 214.294 90.928C214.294 90.64 214.358 90.352 214.486 90.032L216.822 83.856H221.526V85.168L219.83 89.68C219.766 89.84 219.734 89.968 219.734 90.064C219.734 90.352 219.926 90.512 220.342 90.512ZM260.283 68.048V69.968H250.555L247.611 89.36C247.579 89.488 247.579 89.584 247.579 89.68C247.579 90.032 247.611 90.192 248.219 90.192H260.603V92.112H244.347C242.587 92.112 242.427 91.216 242.427 90.352C242.427 90.16 242.459 89.936 242.491 89.712L245.627 69.968H242.779V68.048H260.283ZM255.227 80.656V78.736H263.771V67.76H268.923V92.432H263.771V80.656H255.227Z" fill="#FFECA9"/>
<path d="M129.806 2.92L128.346 9.2H135.766V2.1H138.986V17.52H135.766V10.4H129.386L127.746 17.52H124.746V16.7L126.206 10.4H125.066V9.2H125.146L126.806 2.1H129.806V2.92ZM141.657 16.12C141.657 15.16 142.357 14.5 143.457 14.5C144.577 14.5 145.277 15.16 145.277 16.12C145.277 17.06 144.577 17.72 143.457 17.72C142.357 17.72 141.657 17.06 141.657 16.12ZM150.804 17.52H147.644L149.504 3.28H147.644V2.08H157.364C160.464 2.08 161.864 3.76 161.864 5.9C161.864 8.36 160.304 10.6 156.264 10.6H151.704L150.804 17.52ZM156.324 3.28H152.684L151.864 9.4H155.304C157.524 9.4 158.644 8.28 158.644 6.02C158.644 4.26 157.864 3.28 156.324 3.28ZM173.472 13.2C173.472 16.6 171.072 17.72 167.392 17.72C163.712 17.72 161.312 16.6 161.312 13.2C161.312 9.8 163.712 8.68 167.392 8.68C171.072 8.68 173.472 9.8 173.472 13.2ZM170.252 13.2C170.252 11.04 169.092 9.88 167.392 9.88C165.692 9.88 164.532 11.04 164.532 13.2C164.532 15.36 165.692 16.52 167.392 16.52C169.092 16.52 170.252 15.36 170.252 13.2ZM178.901 17.52H175.681V7.88H178.901V17.52ZM175.481 3.9C175.481 2.94 176.181 2.28 177.281 2.28C178.401 2.28 179.101 2.94 179.101 3.9C179.101 4.84 178.401 5.5 177.281 5.5C176.181 5.5 175.481 4.84 175.481 3.9ZM188.217 8.68C191.097 8.68 192.997 10.04 192.997 12.72V17.52H189.777V12.72C189.777 10.64 189.137 9.88 187.777 9.88C186.397 9.88 185.077 10.74 184.757 13.32L184.217 17.52H181.057L182.137 8.88H185.197V9.74L185.177 9.84C185.997 9.14 187.157 8.68 188.217 8.68ZM199.509 4.28V8.32H202.749V9.52H199.509V15.6C199.509 16.3 199.649 16.52 199.949 16.52C200.809 16.52 201.189 15.94 201.449 15.3L202.309 15.78C201.829 17.22 200.429 17.72 199.269 17.72C197.609 17.72 196.289 17.06 196.289 15V9.52H193.509V8.32H196.289V4.28H199.509Z" fill="white"/>
<path d="M53.894 121.892V133.204H49.288V121.892H53.894ZM50.604 132.014H52.578V123.082H50.604V132.014ZM59.55 121.64V133.736H58.234V127.688H56.652V133.596H55.336V121.696H56.652V126.498H58.234V121.64H59.55ZM62.4434 124.594C62.4434 125.126 62.6161 125.555 62.9614 125.882C63.3161 126.209 63.7594 126.372 64.2914 126.372C64.8141 126.372 65.2481 126.209 65.5934 125.882C65.9481 125.555 66.1254 125.126 66.1254 124.594C66.1254 124.071 65.9481 123.647 65.5934 123.32C65.2481 122.984 64.8141 122.816 64.2914 122.816C63.7594 122.816 63.3161 122.984 62.9614 123.32C62.6161 123.647 62.4434 124.071 62.4434 124.594ZM61.1274 124.594C61.1274 124.174 61.2068 123.782 61.3654 123.418C61.5241 123.054 61.7481 122.741 62.0374 122.48C62.3174 122.219 62.6488 122.013 63.0314 121.864C63.4234 121.715 63.8434 121.64 64.2914 121.64C64.7301 121.64 65.1408 121.715 65.5234 121.864C65.9061 122.013 66.2374 122.219 66.5174 122.48C66.8068 122.741 67.0308 123.054 67.1894 123.418C67.3574 123.782 67.4414 124.174 67.4414 124.594C67.4414 125.023 67.3574 125.42 67.1894 125.784C67.0308 126.148 66.8068 126.461 66.5174 126.722C66.2374 126.993 65.9061 127.203 65.5234 127.352C65.1408 127.492 64.7301 127.562 64.2914 127.562C63.8434 127.562 63.4234 127.492 63.0314 127.352C62.6488 127.203 62.3174 126.993 62.0374 126.722C61.7481 126.461 61.5241 126.148 61.3654 125.784C61.2068 125.42 61.1274 125.023 61.1274 124.594ZM71.6554 121.64V127.604H70.3394V121.64H71.6554ZM71.9214 132.574V133.736H61.7854V130.404H70.3394V129.368H61.7854V128.22H71.6554V131.538H63.1014V132.574H71.9214ZM76.6018 126.092L76.0278 125.056C76.9331 124.981 77.8291 124.799 78.7158 124.51C79.6118 124.221 80.3678 123.824 80.9838 123.32H76.4198V122.158H80.8018V121.234H82.1878V122.158H86.6818V123.32H82.6358C82.5985 123.357 82.5658 123.395 82.5378 123.432C82.5098 123.469 82.4771 123.502 82.4398 123.53C82.4118 123.567 82.3791 123.605 82.3418 123.642C82.3138 123.67 82.2858 123.698 82.2578 123.726C82.9111 124.09 83.6625 124.37 84.5118 124.566C85.3611 124.753 86.2198 124.86 87.0878 124.888L86.4998 125.924C86.0798 125.905 85.6365 125.863 85.1698 125.798C84.7125 125.723 84.2551 125.625 83.7978 125.504C83.3498 125.383 82.9111 125.238 82.4818 125.07C82.0525 124.893 81.6651 124.697 81.3198 124.482C80.6291 124.958 79.8638 125.331 79.0238 125.602C78.1838 125.863 77.3765 126.027 76.6018 126.092ZM86.8218 132.434V133.596H76.4198V130.502H85.3658V129.746H76.4198V128.584H80.8298V127.646H75.7618V126.484H87.3398V127.646H82.1458V128.584H86.6818V131.664H77.7358V132.434H86.8218ZM88.6653 130.712V129.536H98.6613V133.862H97.3453V130.712H88.6653ZM90.7653 121.64H92.0813C92.0813 122.051 92.0533 122.457 91.9973 122.858C91.9506 123.259 91.8806 123.656 91.7873 124.048C92.2073 124.739 92.7299 125.392 93.3553 126.008C93.9899 126.615 94.6713 127.123 95.3993 127.534L94.5873 128.528C93.9713 128.164 93.3739 127.716 92.7953 127.184C92.2166 126.643 91.7173 126.087 91.2973 125.518C91.0173 126.19 90.6626 126.815 90.2333 127.394C89.8133 127.973 89.3233 128.472 88.7633 128.892L87.7133 128.038C88.6933 127.357 89.4446 126.451 89.9673 125.322C90.4993 124.193 90.7653 122.965 90.7653 121.64ZM97.3453 124.006V121.64H98.6613V128.836H97.3453V125.182H94.1673V124.006H97.3453ZM110.767 132.588V133.736H100.771V130.6H109.185V129.76H100.771V128.612H110.501V131.734H102.087V132.588H110.767ZM104.229 127.968H103.095C102.367 127.968 101.774 127.786 101.317 127.422C100.859 127.049 100.631 126.549 100.631 125.924C100.631 125.308 100.859 124.813 101.317 124.44C101.774 124.067 102.367 123.88 103.095 123.88H104.229C104.947 123.88 105.535 124.067 105.993 124.44C106.459 124.813 106.693 125.308 106.693 125.924C106.693 126.549 106.459 127.049 105.993 127.422C105.535 127.786 104.947 127.968 104.229 127.968ZM112.209 124.202V125.392H110.501V127.996H109.185V121.64H110.501V124.202H112.209ZM107.351 122.298V123.432H100.113V122.298H102.997V121.234H104.313V122.298H107.351ZM103.095 126.862H104.229C104.593 126.862 104.873 126.773 105.069 126.596C105.274 126.419 105.377 126.195 105.377 125.924C105.377 125.672 105.274 125.453 105.069 125.266C104.873 125.07 104.593 124.972 104.229 124.972H103.095C102.712 124.972 102.423 125.07 102.227 125.266C102.04 125.453 101.947 125.672 101.947 125.924C101.947 126.195 102.04 126.419 102.227 126.596C102.423 126.773 102.712 126.862 103.095 126.862ZM112.722 127.1L112.078 126.05C112.704 125.938 113.301 125.751 113.87 125.49C114.44 125.229 114.958 124.907 115.424 124.524C115.9 124.151 116.306 123.721 116.642 123.236C116.988 122.741 117.254 122.209 117.44 121.64L118.742 121.892C118.686 122.079 118.621 122.261 118.546 122.438C118.472 122.606 118.392 122.774 118.308 122.942C118.635 123.269 119.004 123.572 119.414 123.852C119.825 124.132 120.264 124.389 120.73 124.622C121.188 124.846 121.664 125.042 122.158 125.21C122.662 125.369 123.162 125.49 123.656 125.574L123.068 126.652C122.583 126.568 122.093 126.442 121.598 126.274C121.113 126.097 120.632 125.887 120.156 125.644C119.69 125.411 119.242 125.154 118.812 124.874C118.392 124.585 118.014 124.281 117.678 123.964C117.081 124.767 116.344 125.443 115.466 125.994C114.598 126.535 113.684 126.904 112.722 127.1ZM123.656 128.612V129.788H118.532V133.862H117.216V129.788H112.078V128.612H123.656ZM124.184 129.34V128.164H129.252V127.156H124.842V123.936H133.788V123.068H124.842V121.892H135.104V125.112H126.158V125.994H135.244V127.156H130.568V128.164H135.762V129.34H124.184ZM124.842 131.496V130.32H135.104V133.862H133.788V131.496H124.842ZM140.792 121.766H142.108C142.108 122.158 142.085 122.555 142.038 122.956C142.001 123.357 141.94 123.754 141.856 124.146C141.987 124.491 142.155 124.851 142.36 125.224C142.575 125.588 142.808 125.896 143.06 126.148C143.247 125.915 143.415 125.63 143.564 125.294C143.723 124.949 143.858 124.58 143.97 124.188C144.082 123.796 144.166 123.395 144.222 122.984C144.287 122.564 144.32 122.158 144.32 121.766H145.636C145.636 122.093 145.617 122.419 145.58 122.746C145.543 123.063 145.491 123.376 145.426 123.684C145.706 124.235 146.07 124.757 146.518 125.252C146.966 125.747 147.451 126.195 147.974 126.596L147.078 127.506C146.686 127.198 146.308 126.848 145.944 126.456C145.58 126.055 145.253 125.644 144.964 125.224C144.74 125.756 144.474 126.26 144.166 126.736C143.867 127.203 143.522 127.618 143.13 127.982C142.757 127.674 142.416 127.333 142.108 126.96C141.809 126.587 141.548 126.195 141.324 125.784C141.147 126.185 140.941 126.563 140.708 126.918C140.475 127.263 140.213 127.571 139.924 127.842L138.79 127.072C139.546 126.409 140.069 125.625 140.358 124.72C140.647 123.805 140.792 122.821 140.792 121.766ZM148.296 127.856V121.64H149.612V124.132H151.32V125.322H149.612V127.856H148.296ZM147.372 133.862H142.248C141.585 133.862 141.044 133.713 140.624 133.414C140.213 133.125 140.008 132.719 140.008 132.196C140.008 131.683 140.213 131.277 140.624 130.978C141.044 130.679 141.585 130.53 142.248 130.53H147.372C148.025 130.53 148.562 130.679 148.982 130.978C149.402 131.277 149.612 131.683 149.612 132.196C149.612 132.719 149.402 133.125 148.982 133.414C148.562 133.713 148.025 133.862 147.372 133.862ZM142.248 132.714H147.372C147.624 132.714 147.829 132.667 147.988 132.574C148.147 132.49 148.226 132.364 148.226 132.196C148.226 132.028 148.147 131.902 147.988 131.818C147.829 131.725 147.624 131.678 147.372 131.678H142.248C141.996 131.678 141.791 131.725 141.632 131.818C141.473 131.902 141.394 132.028 141.394 132.196C141.394 132.364 141.473 132.49 141.632 132.574C141.791 132.667 141.996 132.714 142.248 132.714ZM139.742 129.942V128.794H144.096V127.814H145.412V128.794H149.878V129.942H139.742ZM151.582 129.536V125.588C151.582 124.337 151.871 123.39 152.45 122.746C153.028 122.093 153.794 121.766 154.746 121.766C155.698 121.766 156.463 122.093 157.042 122.746C157.62 123.39 157.91 124.337 157.91 125.588V129.536C157.91 130.777 157.62 131.72 157.042 132.364C156.463 133.008 155.698 133.33 154.746 133.33C153.794 133.33 153.028 133.008 152.45 132.364C151.871 131.72 151.582 130.777 151.582 129.536ZM152.898 125.588V129.536C152.898 130.46 153.056 131.127 153.374 131.538C153.691 131.949 154.148 132.154 154.746 132.154C155.334 132.154 155.786 131.949 156.104 131.538C156.43 131.127 156.594 130.46 156.594 129.536V125.588C156.594 124.664 156.43 123.997 156.104 123.586C155.786 123.166 155.334 122.956 154.746 122.956C154.148 122.956 153.691 123.166 153.374 123.586C153.056 123.997 152.898 124.664 152.898 125.588ZM160.668 129.788H158.428V128.612H160.668V125.84H158.428V124.664H160.668V121.64H161.984V133.736H160.668V129.788ZM163.827 121.892H169.483V124.51C169.483 125.453 169.362 126.353 169.119 127.212C168.886 128.061 168.545 128.859 168.097 129.606C167.64 130.343 167.08 131.02 166.417 131.636C165.754 132.243 164.998 132.77 164.149 133.218L163.295 132.224C164.882 131.431 166.09 130.381 166.921 129.074C167.752 127.767 168.167 126.325 168.167 124.748V123.082H163.827V121.892ZM173.823 127.646V133.736H172.507V121.64H173.823V126.47H175.531V127.646H173.823ZM175.4 127.688H186.978V128.878H175.4V127.688ZM186.46 132.42V133.596H176.058V129.928H177.374V132.42H186.46ZM176.058 126.078V121.766H177.374V124.93H186.46V126.078H176.058ZM201.221 130.852H199.905V127.814H190.959V126.638H199.905V123.082H190.959V121.892H201.221V130.852ZM201.879 132.014V133.204H190.301V132.014H201.879ZM209.91 132.014V133.204H202.938V126.764H207.67V123.082H202.938V121.892H208.986V127.954H204.254V132.014H209.91ZM213.2 121.64V133.736H211.884V121.64H213.2ZM226.09 132.014V133.204H214.512V132.014H226.09ZM215.31 128.682L214.512 127.702C215.212 127.45 215.86 127.123 216.458 126.722C217.064 126.321 217.596 125.859 218.054 125.336C218.52 124.813 218.908 124.239 219.216 123.614C219.524 122.989 219.743 122.331 219.874 121.64L221.176 121.892C221.12 122.2 221.045 122.503 220.952 122.802C220.868 123.101 220.765 123.39 220.644 123.67C221.306 124.491 222.109 125.215 223.052 125.84C224.004 126.456 225.016 126.904 226.09 127.184L225.404 128.234C224.396 127.935 223.416 127.487 222.464 126.89C221.521 126.283 220.709 125.597 220.028 124.832C219.468 125.709 218.772 126.484 217.942 127.156C217.12 127.828 216.243 128.337 215.31 128.682ZM233.071 121.892V133.204H227.149V121.892H233.071ZM228.465 132.014H231.755V123.082H228.465V132.014ZM237.145 127.646V133.736H235.829V121.64H237.145V126.47H238.853V127.646H237.145ZM250.301 132.014V133.204H238.723V132.014H250.301ZM239.521 128.682L238.723 127.702C239.423 127.45 240.071 127.123 240.669 126.722C241.275 126.321 241.807 125.859 242.265 125.336C242.731 124.813 243.119 124.239 243.427 123.614C243.735 122.989 243.954 122.331 244.085 121.64L245.387 121.892C245.331 122.2 245.256 122.503 245.163 122.802C245.079 123.101 244.976 123.39 244.855 123.67C245.517 124.491 246.32 125.215 247.263 125.84C248.215 126.456 249.227 126.904 250.301 127.184L249.615 128.234C248.607 127.935 247.627 127.487 246.675 126.89C245.732 126.283 244.92 125.597 244.239 124.832C243.679 125.709 242.983 126.484 242.153 127.156C241.331 127.828 240.454 128.337 239.521 128.682ZM259.153 128.22V130.852C259.153 131.636 258.929 132.243 258.481 132.672C258.042 133.111 257.431 133.33 256.647 133.33C255.863 133.33 255.252 133.111 254.813 132.672C254.374 132.243 254.155 131.636 254.155 130.852V128.22C254.155 127.436 254.374 126.825 254.813 126.386C255.252 125.938 255.863 125.714 256.647 125.714C257.431 125.714 258.042 125.938 258.481 126.386C258.929 126.825 259.153 127.436 259.153 128.22ZM261.911 121.696V133.596H260.595V129.928H259.419V128.738H260.595V126.498H259.419V125.322H260.595V121.696H261.911ZM264.417 133.736H263.101V121.64H264.417V133.736ZM257.837 130.852V128.22C257.837 127.828 257.734 127.511 257.529 127.268C257.333 127.025 257.039 126.904 256.647 126.904C256.255 126.904 255.961 127.025 255.765 127.268C255.569 127.511 255.471 127.828 255.471 128.22V130.852C255.471 131.244 255.569 131.561 255.765 131.804C255.961 132.037 256.255 132.154 256.647 132.154C257.039 132.154 257.333 132.037 257.529 131.804C257.734 131.561 257.837 131.244 257.837 130.852ZM259.433 123.082V124.272H253.889V123.082H255.989V121.234H257.305V123.082H259.433ZM276.523 129.928V133.862H275.207V131.104H266.527V129.928H276.523ZM271.525 127.562V128.738H266.261V121.892H271.133V123.082H267.577V124.664H270.993V125.84H267.577V127.562H271.525ZM276.523 121.64V129.34H275.207V125.98H273.667V129.34H272.379V121.696H273.667V124.79H275.207V121.64H276.523ZM278.38 121.5H279.696V129.928H278.38V121.5ZM279.822 133.47H278.24V131.888H279.822V133.47ZM30.137 153.672H28.821V148.758H25.265V153.672H23.949V143.158H25.265V147.568H28.821V143.158H30.137V153.672ZM32.783 154.078H31.201V152.51H32.783V154.078ZM39.9652 146.448C39.9652 147.512 39.6758 148.329 39.0972 148.898C38.5278 149.458 37.7205 149.738 36.6752 149.738H35.0932V153.672H33.7772V143.158H36.6752C37.7205 143.158 38.5278 143.447 39.0972 144.026C39.6758 144.595 39.9652 145.403 39.9652 146.448ZM38.6492 146.448C38.6492 145.664 38.4578 145.118 38.0752 144.81C37.7018 144.502 37.1885 144.348 36.5352 144.348H35.0932V148.562H36.5352C37.1885 148.562 37.7018 148.408 38.0752 148.1C38.4578 147.792 38.6492 147.241 38.6492 146.448ZM40.2195 151.194V148.296C40.2195 147.447 40.4855 146.798 41.0175 146.35C41.5495 145.893 42.2449 145.664 43.1035 145.664C43.9622 145.664 44.6575 145.893 45.1895 146.35C45.7309 146.798 46.0015 147.447 46.0015 148.296V151.194C46.0015 152.043 45.7309 152.692 45.1895 153.14C44.6575 153.588 43.9622 153.812 43.1035 153.812C42.2449 153.812 41.5495 153.588 41.0175 153.14C40.4855 152.692 40.2195 152.043 40.2195 151.194ZM41.5355 148.492V150.998C41.5355 151.558 41.6615 151.973 41.9135 152.244C42.1749 152.505 42.5715 152.636 43.1035 152.636C43.6355 152.636 44.0322 152.505 44.2935 152.244C44.5549 151.973 44.6855 151.558 44.6855 150.998V148.492C44.6855 147.932 44.5549 147.517 44.2935 147.246C44.0322 146.975 43.6355 146.84 43.1035 146.84C42.5715 146.84 42.1749 146.975 41.9135 147.246C41.6615 147.517 41.5355 147.932 41.5355 148.492ZM46.9412 153.672V145.79H48.2572V153.672H46.9412ZM48.3272 144.614H46.8712V143.158H48.3272V144.614ZM54.982 148.156V153.672H53.666V148.296C53.666 147.839 53.54 147.479 53.288 147.218C53.036 146.957 52.6813 146.826 52.224 146.826C51.7573 146.826 51.3747 146.999 51.076 147.344C50.7867 147.68 50.642 148.114 50.642 148.646V153.672H49.326V145.79H50.516L50.642 146.658C50.81 146.369 51.0713 146.131 51.426 145.944C51.79 145.757 52.1867 145.664 52.616 145.664C53.3347 145.664 53.9087 145.902 54.338 146.378C54.7673 146.845 54.982 147.437 54.982 148.156ZM56.2561 152.104V146.98H55.3321V145.79H56.2561V143.956L57.5721 143.69V145.79H58.8741V146.98H57.5721V151.852C57.5721 152.188 57.6514 152.389 57.8101 152.454C57.9781 152.519 58.2907 152.538 58.7481 152.51V153.672C57.9641 153.812 57.3527 153.765 56.9141 153.532C56.4754 153.308 56.2561 152.832 56.2561 152.104ZM70.0783 154.736H68.7623V142.64H70.0783V154.736ZM60.9923 145.398V151.712C60.9923 152.244 61.0949 152.617 61.3003 152.832C61.5056 153.047 61.7763 153.154 62.1123 153.154C62.4389 153.154 62.7049 153.047 62.9103 152.832C63.1249 152.617 63.2323 152.244 63.2323 151.712V145.398C63.2323 144.875 63.1249 144.507 62.9103 144.292C62.7049 144.068 62.4389 143.956 62.1123 143.956C61.7763 143.956 61.5056 144.068 61.3003 144.292C61.0949 144.507 60.9923 144.875 60.9923 145.398ZM59.6763 151.712V145.398C59.6763 144.941 59.7369 144.549 59.8583 144.222C59.9889 143.886 60.1663 143.611 60.3903 143.396C60.6143 143.181 60.8709 143.023 61.1603 142.92C61.4589 142.817 61.7763 142.766 62.1123 142.766C62.4389 142.766 62.7469 142.817 63.0363 142.92C63.3349 143.023 63.5963 143.181 63.8203 143.396C64.0443 143.611 64.2216 143.886 64.3523 144.222C64.4829 144.549 64.5483 144.941 64.5483 145.398V147.498H66.0603V142.696H67.3763V154.596H66.0603V148.688H64.5483V151.712C64.5483 152.179 64.4829 152.575 64.3523 152.902C64.2216 153.229 64.0443 153.499 63.8203 153.714C63.5963 153.929 63.3349 154.083 63.0363 154.176C62.7469 154.279 62.4389 154.33 62.1123 154.33C61.7763 154.33 61.4589 154.279 61.1603 154.176C60.8709 154.083 60.6143 153.929 60.3903 153.714C60.1663 153.499 59.9889 153.229 59.8583 152.902C59.7369 152.575 59.6763 152.179 59.6763 151.712ZM73.7557 142.766H75.0717C75.0717 143.438 75.0484 144.115 75.0017 144.796C74.9551 145.477 74.8897 146.154 74.8057 146.826C75.1137 148.03 75.5757 149.206 76.1917 150.354C76.8077 151.502 77.5497 152.487 78.4177 153.308L77.4517 154.204C76.7797 153.541 76.1824 152.785 75.6597 151.936C75.1371 151.077 74.7031 150.205 74.3577 149.318C74.1431 150.214 73.8771 151.091 73.5597 151.95C73.2517 152.799 72.8784 153.607 72.4397 154.372L71.2637 153.756C71.7211 152.953 72.1084 152.109 72.4257 151.222C72.7431 150.335 72.9997 149.425 73.1957 148.492C73.3917 147.559 73.5317 146.611 73.6157 145.65C73.7091 144.689 73.7557 143.727 73.7557 142.766ZM80.8677 142.64H82.1837V154.736H80.8677V148.646H77.0457V147.47H80.8677V142.64ZM91.4281 142.892V154.204H86.8221V142.892H91.4281ZM88.1381 153.014H90.1121V144.082H88.1381V153.014ZM97.0841 142.64V154.736H95.7681V148.688H94.1861V154.596H92.8701V142.696H94.1861V147.498H95.7681V142.64H97.0841ZM99.9776 145.594C99.9776 146.126 100.15 146.555 100.496 146.882C100.85 147.209 101.294 147.372 101.826 147.372C102.348 147.372 102.782 147.209 103.128 146.882C103.482 146.555 103.66 146.126 103.66 145.594C103.66 145.071 103.482 144.647 103.128 144.32C102.782 143.984 102.348 143.816 101.826 143.816C101.294 143.816 100.85 143.984 100.496 144.32C100.15 144.647 99.9776 145.071 99.9776 145.594ZM98.6616 145.594C98.6616 145.174 98.7409 144.782 98.8996 144.418C99.0583 144.054 99.2823 143.741 99.5716 143.48C99.8516 143.219 100.183 143.013 100.566 142.864C100.958 142.715 101.378 142.64 101.826 142.64C102.264 142.64 102.675 142.715 103.058 142.864C103.44 143.013 103.772 143.219 104.052 143.48C104.341 143.741 104.565 144.054 104.724 144.418C104.892 144.782 104.976 145.174 104.976 145.594C104.976 146.023 104.892 146.42 104.724 146.784C104.565 147.148 104.341 147.461 104.052 147.722C103.772 147.993 103.44 148.203 103.058 148.352C102.675 148.492 102.264 148.562 101.826 148.562C101.378 148.562 100.958 148.492 100.566 148.352C100.183 148.203 99.8516 147.993 99.5716 147.722C99.2823 147.461 99.0583 147.148 98.8996 146.784C98.7409 146.42 98.6616 146.023 98.6616 145.594ZM109.19 142.64V148.604H107.874V142.64H109.19ZM109.456 153.574V154.736H99.3196V151.404H107.874V150.368H99.3196V149.22H109.19V152.538H100.636V153.574H109.456ZM121.192 154.204H113.828V142.892H120.408V144.082H115.144V153.014H121.192V154.204ZM123.824 148.646V154.736H122.508V142.64H123.824V147.47H125.532V148.646H123.824ZM136.461 153.42V154.596H126.059V151.712H127.375V153.42H136.461ZM125.401 149.808H136.979V150.998H125.401V149.808ZM136.461 147.596V148.772H126.059V145.216H135.005V144.068H126.059V142.892H136.321V146.392H127.375V147.596H136.461ZM142.668 142.766H143.984C143.984 143.438 143.961 144.115 143.914 144.796C143.867 145.477 143.802 146.154 143.718 146.826C144.026 148.03 144.488 149.206 145.104 150.354C145.72 151.502 146.462 152.487 147.33 153.308L146.364 154.204C145.692 153.541 145.095 152.785 144.572 151.936C144.049 151.077 143.615 150.205 143.27 149.318C143.055 150.214 142.789 151.091 142.472 151.95C142.164 152.799 141.791 153.607 141.352 154.372L140.176 153.756C140.633 152.953 141.021 152.109 141.338 151.222C141.655 150.335 141.912 149.425 142.108 148.492C142.304 147.559 142.444 146.611 142.528 145.65C142.621 144.689 142.668 143.727 142.668 142.766ZM149.78 142.64H151.096V154.736H149.78V148.646H145.958V147.47H149.78V142.64ZM163.467 148.562V149.738H152.939V148.562H155.039V144.866H156.355V148.562H159.477L160.415 144.866H161.759L160.821 148.562H163.467ZM163.985 153.014V154.204H152.407V153.014H163.985ZM163.327 142.892V144.082H153.065V142.892H163.327ZM171.891 153.014V154.204H165.045V147.764H169.651V144.082H165.045V142.892H170.967V148.954H166.361V153.014H171.891ZM175.041 148.646V154.736H173.725V142.64H175.041V147.47H176.749V148.646H175.041ZM187.412 142.64V154.736H186.096V142.64H187.412ZM178.326 146.588V150.536C178.326 151.46 178.485 152.127 178.802 152.538C179.129 152.949 179.61 153.154 180.244 153.154C180.86 153.154 181.332 152.949 181.658 152.538C181.985 152.127 182.148 151.46 182.148 150.536V146.588C182.148 145.664 181.985 144.997 181.658 144.586C181.332 144.166 180.86 143.956 180.244 143.956C179.61 143.956 179.129 144.166 178.802 144.586C178.485 144.997 178.326 145.664 178.326 146.588ZM177.01 150.536V146.588C177.01 145.3 177.309 144.343 177.906 143.718C178.504 143.083 179.283 142.766 180.244 142.766C181.196 142.766 181.971 143.083 182.568 143.718C183.166 144.343 183.464 145.3 183.464 146.588V150.536C183.464 151.815 183.166 152.767 182.568 153.392C181.971 154.017 181.196 154.33 180.244 154.33C179.283 154.33 178.504 154.017 177.906 153.392C177.309 152.767 177.01 151.815 177.01 150.536ZM200.302 153.014V154.204H188.724V153.014H200.302ZM189.634 150.074L188.864 149.08C190.142 148.641 191.234 147.997 192.14 147.148C193.045 146.299 193.656 145.277 193.974 144.082H189.382V142.892H199.644V144.082H195.332C195.276 144.334 195.206 144.577 195.122 144.81C195.047 145.034 194.963 145.258 194.87 145.482C195.495 146.266 196.27 146.929 197.194 147.47C198.127 148.002 199.121 148.403 200.176 148.674L199.56 149.752C198.552 149.472 197.581 149.057 196.648 148.506C195.714 147.955 194.912 147.321 194.24 146.602C193.698 147.395 193.026 148.091 192.224 148.688C191.421 149.276 190.558 149.738 189.634 150.074ZM204.548 154.596V150.788H205.864V153.42H214.684V154.596H204.548ZM206.522 142.64H207.838C207.838 143.06 207.81 143.48 207.754 143.9C207.698 144.32 207.619 144.735 207.516 145.146C207.936 145.846 208.463 146.504 209.098 147.12C209.742 147.727 210.428 148.24 211.156 148.66L210.344 149.668C209.719 149.304 209.112 148.851 208.524 148.31C207.945 147.759 207.446 147.19 207.026 146.602C206.746 147.283 206.391 147.918 205.962 148.506C205.542 149.094 205.061 149.598 204.52 150.018L203.47 149.178C203.946 148.823 204.371 148.408 204.744 147.932C205.127 147.456 205.449 146.938 205.71 146.378C205.971 145.809 206.172 145.211 206.312 144.586C206.452 143.951 206.522 143.303 206.522 142.64ZM213.102 145.272V142.64H214.418V151.782H213.102V146.448H209.924V145.272H213.102ZM226.79 153.434V154.596H216.388V151.474H225.334V150.69H216.388V149.528H220.798V148.548H215.73V147.372H227.308V148.548H222.114V149.528H226.65V152.636H217.704V153.434H226.79ZM226.65 142.892V146.574H216.388V142.892H226.65ZM217.704 145.426H225.334V144.04H217.704V145.426ZM238.895 153.42V154.596H228.493V151.39H237.439V150.578H228.493V149.402H238.755V152.552H229.809V153.42H238.895ZM227.835 147.372H239.413V148.548H227.835V147.372ZM230.733 145.468H236.389C236.716 145.468 236.996 145.398 237.229 145.258C237.462 145.109 237.579 144.903 237.579 144.642C237.579 144.381 237.462 144.175 237.229 144.026C236.996 143.877 236.716 143.802 236.389 143.802H230.733C230.397 143.802 230.136 143.877 229.949 144.026C229.772 144.175 229.683 144.381 229.683 144.642C229.683 144.903 229.772 145.109 229.949 145.258C230.136 145.398 230.397 145.468 230.733 145.468ZM230.733 142.64H236.389C237.117 142.64 237.714 142.813 238.181 143.158C238.657 143.494 238.895 143.989 238.895 144.642C238.895 145.305 238.657 145.804 238.181 146.14C237.714 146.467 237.117 146.63 236.389 146.63H230.733C230.005 146.63 229.426 146.467 228.997 146.14C228.577 145.804 228.367 145.305 228.367 144.642C228.367 143.989 228.577 143.494 228.997 143.158C229.426 142.813 230.005 142.64 230.733 142.64ZM253.655 142.892V144.082H249.637C249.553 144.241 249.46 144.39 249.357 144.53C249.264 144.67 249.166 144.81 249.063 144.95C249.698 145.482 250.449 145.925 251.317 146.28C252.195 146.625 253.109 146.84 254.061 146.924L253.417 147.974C252.96 147.918 252.493 147.829 252.017 147.708C251.551 147.577 251.098 147.419 250.659 147.232C250.211 147.036 249.782 146.821 249.371 146.588C248.97 146.345 248.611 146.084 248.293 145.804C247.659 146.42 246.94 146.933 246.137 147.344C245.335 147.745 244.518 148.016 243.687 148.156L243.001 147.092C244.065 146.952 245.045 146.621 245.941 146.098C246.847 145.575 247.589 144.903 248.167 144.082H243.393V142.892H253.655ZM253.795 153.42V154.596H243.393V151.32H244.709V153.42H253.795ZM249.245 152.272H247.929V150.13H242.735V148.954H254.313V150.13H249.245V152.272ZM265.635 142.64V154.736H264.319V142.64H265.635ZM261.421 142.892V154.204H255.373V142.892H256.689V146.84H260.105V142.892H261.421ZM256.689 153.014H260.105V148.03H256.689V153.014ZM267.758 154.596L266.932 153.63C267.782 153.378 268.486 152.967 269.046 152.398C269.616 151.819 269.966 151.119 270.096 150.298L271.314 150.578C271.286 150.774 271.244 150.97 271.188 151.166C271.132 151.362 271.067 151.544 270.992 151.712C271.226 152.001 271.496 152.277 271.804 152.538C272.122 152.799 272.444 153.014 272.77 153.182C273.218 152.921 273.62 152.524 273.974 151.992C274.338 151.451 274.576 150.886 274.688 150.298L275.92 150.578C275.883 150.783 275.832 150.984 275.766 151.18C275.701 151.376 275.626 151.572 275.542 151.768C275.962 152.151 276.434 152.487 276.956 152.776C277.488 153.056 277.992 153.28 278.468 153.448L277.838 154.54C277.344 154.363 276.84 154.115 276.326 153.798C275.813 153.49 275.351 153.154 274.94 152.79C274.651 153.191 274.32 153.551 273.946 153.868C273.582 154.195 273.204 154.456 272.812 154.652C272.392 154.428 271.963 154.148 271.524 153.812C271.086 153.485 270.694 153.14 270.348 152.776C270.012 153.205 269.616 153.574 269.158 153.882C268.71 154.199 268.244 154.437 267.758 154.596ZM276.424 142.64H277.74V149.934H276.424V146.84H274.884V149.934H273.596V142.696H274.884V145.664H276.424V142.64ZM269.41 143.298V142.234H270.726V143.298H273.064V144.446H267.086V143.298H269.41ZM267.478 147.358C267.478 146.658 267.726 146.089 268.22 145.65C268.724 145.211 269.354 144.992 270.11 144.992C270.866 144.992 271.492 145.211 271.986 145.65C272.49 146.089 272.742 146.658 272.742 147.358C272.742 148.077 272.49 148.651 271.986 149.08C271.492 149.509 270.866 149.724 270.11 149.724C269.354 149.724 268.724 149.509 268.22 149.08C267.726 148.651 267.478 148.077 267.478 147.358ZM268.78 147.358C268.78 147.713 268.902 148.011 269.144 148.254C269.387 148.497 269.709 148.618 270.11 148.618C270.502 148.618 270.82 148.497 271.062 148.254C271.314 148.011 271.44 147.713 271.44 147.358C271.44 147.013 271.314 146.719 271.062 146.476C270.82 146.224 270.502 146.098 270.11 146.098C269.709 146.098 269.387 146.224 269.144 146.476C268.902 146.719 268.78 147.013 268.78 147.358ZM279.444 150.536V146.588C279.444 145.337 279.733 144.39 280.312 143.746C280.891 143.093 281.656 142.766 282.608 142.766C283.56 142.766 284.325 143.093 284.904 143.746C285.483 144.39 285.772 145.337 285.772 146.588V150.536C285.772 151.777 285.483 152.72 284.904 153.364C284.325 154.008 283.56 154.33 282.608 154.33C281.656 154.33 280.891 154.008 280.312 153.364C279.733 152.72 279.444 151.777 279.444 150.536ZM280.76 146.588V150.536C280.76 151.46 280.919 152.127 281.236 152.538C281.553 152.949 282.011 153.154 282.608 153.154C283.196 153.154 283.649 152.949 283.966 152.538C284.293 152.127 284.456 151.46 284.456 150.536V146.588C284.456 145.664 284.293 144.997 283.966 144.586C283.649 144.166 283.196 143.956 282.608 143.956C282.011 143.956 281.553 144.166 281.236 144.586C280.919 144.997 280.76 145.664 280.76 146.588ZM288.53 148.688H286.29V147.498H288.53V142.64H289.846V154.736H288.53V148.688ZM298.535 149.22H295.371C294.811 149.22 294.293 149.145 293.817 148.996C293.351 148.837 292.949 148.613 292.613 148.324C292.277 148.035 292.016 147.689 291.829 147.288C291.643 146.877 291.549 146.425 291.549 145.93C291.549 145.445 291.643 145.001 291.829 144.6C292.016 144.189 292.277 143.839 292.613 143.55C292.949 143.261 293.351 143.037 293.817 142.878C294.293 142.719 294.811 142.64 295.371 142.64H298.535C299.086 142.64 299.595 142.719 300.061 142.878C300.528 143.037 300.929 143.261 301.265 143.55C301.601 143.839 301.863 144.189 302.049 144.6C302.245 145.001 302.343 145.445 302.343 145.93C302.343 146.425 302.245 146.877 302.049 147.288C301.863 147.689 301.601 148.035 301.265 148.324C300.929 148.613 300.528 148.837 300.061 148.996C299.595 149.145 299.086 149.22 298.535 149.22ZM295.371 148.03H298.535C299.254 148.03 299.837 147.839 300.285 147.456C300.733 147.064 300.957 146.555 300.957 145.93C300.957 145.305 300.733 144.796 300.285 144.404C299.837 144.012 299.254 143.816 298.535 143.816H295.371C294.643 143.816 294.055 144.012 293.607 144.404C293.159 144.796 292.935 145.305 292.935 145.93C292.935 146.555 293.159 147.064 293.607 147.456C294.055 147.839 294.643 148.03 295.371 148.03ZM302.735 153.014V154.204H291.157V153.014H293.789V150.004H295.105V153.014H298.787V150.004H300.103V153.014H302.735ZM305.125 154.078H303.543V152.51H305.125V154.078ZM50.149 169.422V170.612H39.621V169.422H41.721V165.866H43.037V169.422H46.201L47.097 165.866H48.441L47.545 169.422H50.149ZM50.667 174.014V175.204H39.089V174.014H44.227V171.354H45.543V174.014H50.667ZM50.009 163.892V165.082H39.747V163.892H50.009ZM52.7764 166.86V167.392C52.7764 167.952 52.9538 168.433 53.3084 168.834C53.6724 169.226 54.1531 169.422 54.7504 169.422C55.3384 169.422 55.8144 169.226 56.1784 168.834C56.5424 168.433 56.7244 167.952 56.7244 167.392V166.86C56.7244 166.3 56.5424 165.819 56.1784 165.418C55.8144 165.017 55.3384 164.816 54.7504 164.816C54.1531 164.816 53.6724 165.017 53.3084 165.418C52.9538 165.819 52.7764 166.3 52.7764 166.86ZM51.4604 167.392V166.86C51.4604 166.403 51.5398 165.978 51.6984 165.586C51.8664 165.194 52.0998 164.853 52.3984 164.564C52.6878 164.275 53.0331 164.051 53.4344 163.892C53.8358 163.724 54.2744 163.64 54.7504 163.64C55.2078 163.64 55.6371 163.724 56.0384 163.892C56.4398 164.051 56.7898 164.275 57.0884 164.564C57.3778 164.853 57.6064 165.194 57.7744 165.586C57.9518 165.978 58.0404 166.403 58.0404 166.86V167.392C58.0404 167.859 57.9518 168.288 57.7744 168.68C57.6064 169.072 57.3778 169.413 57.0884 169.702C56.7898 169.982 56.4398 170.206 56.0384 170.374C55.6371 170.533 55.2078 170.612 54.7504 170.612C54.2744 170.612 53.8358 170.533 53.4344 170.374C53.0331 170.206 52.6878 169.982 52.3984 169.702C52.0998 169.413 51.8664 169.072 51.6984 168.68C51.5398 168.288 51.4604 167.859 51.4604 167.392ZM62.2544 174.42V175.596H52.1184V171.788H53.4344V174.42H62.2544ZM61.9884 163.64V172.782H60.6724V163.64H61.9884ZM65.2739 165.082V167.182H74.2199V168.372H65.2739V170.542H74.3599V171.732H63.9579V163.892H74.2199V165.082H65.2739ZM74.8779 174.014V175.204H63.2999V174.014H74.8779ZM82.9094 167.056C82.9094 167.551 82.8207 168.008 82.6434 168.428C82.4754 168.848 82.2327 169.207 81.9154 169.506C81.6074 169.814 81.234 170.052 80.7954 170.22C80.3567 170.388 79.876 170.472 79.3534 170.472C78.8214 170.472 78.336 170.388 77.8974 170.22C77.468 170.052 77.0947 169.814 76.7774 169.506C76.4694 169.207 76.2267 168.848 76.0494 168.428C75.8814 168.008 75.7974 167.551 75.7974 167.056C75.7974 166.571 75.8814 166.118 76.0494 165.698C76.2267 165.278 76.4694 164.919 76.7774 164.62C77.0947 164.312 77.468 164.074 77.8974 163.906C78.336 163.729 78.8214 163.64 79.3534 163.64C79.876 163.64 80.3567 163.729 80.7954 163.906C81.234 164.074 81.6074 164.312 81.9154 164.62C82.2327 164.919 82.4754 165.278 82.6434 165.698C82.8207 166.118 82.9094 166.571 82.9094 167.056ZM85.9334 169.646V175.736H84.6174V163.64H85.9334V168.47H87.6414V169.646H85.9334ZM81.5934 167.056C81.5934 166.44 81.3927 165.913 80.9914 165.474C80.59 165.035 80.044 164.816 79.3534 164.816C78.6534 164.816 78.1027 165.035 77.7014 165.474C77.3094 165.913 77.1134 166.44 77.1134 167.056C77.1134 167.681 77.3094 168.213 77.7014 168.652C78.1027 169.081 78.6534 169.296 79.3534 169.296C80.044 169.296 80.59 169.081 80.9914 168.652C81.3927 168.213 81.5934 167.681 81.5934 167.056ZM83.6514 174.014V175.204H75.4054V174.014H78.6674V171.13H79.9834V174.014H83.6514ZM101.226 170.472H99.9098V168.568H90.9638V167.392H99.9098V165.082H90.9638V163.892H101.226V170.472ZM101.884 171.27V172.446H96.7598V175.862H95.4438V172.446H90.3058V171.27H101.884ZM113.471 174.42V175.596H103.069V172.446H104.385V174.42H113.471ZM113.331 163.892V165.082H103.069V163.892H113.331ZM106.359 167.728H109.691L110.223 165.614H111.553L111.035 167.728H113.471V168.904H108.795V170.346H113.989V171.536H102.411V170.346H107.479V168.904H102.943V167.728H105.043V165.614H106.359V167.728ZM128.232 172.712H126.916V165.082H117.97V163.892H128.232V172.712ZM128.89 174.014V175.204H117.312V174.014H128.89ZM136.921 174.014V175.204H129.949V168.764H134.681V165.082H129.949V163.892H135.997V169.954H131.265V174.014H136.921ZM140.211 163.64V175.736H138.895V163.64H140.211ZM152.443 172.446H151.127V165.082H142.181V163.892H152.443V172.446ZM153.101 174.014V175.204H141.523V174.014H145.737V168.456H147.053V174.014H153.101ZM158.943 174.672H157.627V165.348H156.437V164.158H158.943V174.672ZM161.633 171.2L160.653 170.318C161.092 170.103 161.507 169.833 161.899 169.506C162.291 169.179 162.641 168.815 162.949 168.414C163.257 168.022 163.509 167.597 163.705 167.14C163.901 166.683 164.027 166.216 164.083 165.74H161.185V164.55H164.013V163.234H165.329V164.55H168.171V165.74H165.399C165.381 165.936 165.353 166.127 165.315 166.314C165.278 166.501 165.231 166.683 165.175 166.86C165.567 167.476 166.085 168.05 166.729 168.582C167.373 169.114 168.031 169.525 168.703 169.814L167.891 170.822C167.322 170.533 166.743 170.15 166.155 169.674C165.567 169.189 165.063 168.685 164.643 168.162C164.279 168.834 163.831 169.436 163.299 169.968C162.777 170.491 162.221 170.901 161.633 171.2ZM171.713 174.42V175.596H161.577V171.928H162.893V174.42H171.713ZM170.131 163.64H171.447V172.782H170.131V168.008H167.499V166.818H170.131V163.64ZM184.995 167.266V168.456H183.287V172.782H181.971V163.64H183.287V167.266H184.995ZM183.553 174.42V175.596H173.557V171.788H174.873V174.42H183.553ZM179.479 163.892V170.346H173.291V163.892H179.479ZM174.607 169.156H178.163V165.082H174.607V169.156ZM191.332 167.448C191.332 168.512 191.043 169.329 190.464 169.898C189.895 170.458 189.088 170.738 188.042 170.738H186.46V174.672H185.144V164.158H188.042C189.088 164.158 189.895 164.447 190.464 165.026C191.043 165.595 191.332 166.403 191.332 167.448ZM190.016 167.448C190.016 166.664 189.825 166.118 189.442 165.81C189.069 165.502 188.556 165.348 187.902 165.348H186.46V169.562H187.902C188.556 169.562 189.069 169.408 189.442 169.1C189.825 168.792 190.016 168.241 190.016 167.448ZM206.737 166.272V167.448H205.029V170.444H203.713V163.64H205.029V166.272H206.737ZM202.397 168.498V169.688H195.033V163.892H201.613V165.082H196.349V168.498H202.397ZM202.131 175.862H198.323C197.334 175.862 196.559 175.638 195.999 175.19C195.439 174.742 195.159 174.159 195.159 173.44C195.159 172.721 195.439 172.138 195.999 171.69C196.559 171.233 197.334 171.004 198.323 171.004H202.131C203.111 171.004 203.881 171.233 204.441 171.69C205.01 172.138 205.295 172.721 205.295 173.44C205.295 174.159 205.01 174.742 204.441 175.19C203.881 175.638 203.111 175.862 202.131 175.862ZM198.323 174.7H202.131C202.663 174.7 203.092 174.588 203.419 174.364C203.746 174.14 203.909 173.832 203.909 173.44C203.909 173.048 203.746 172.74 203.419 172.516C203.092 172.283 202.663 172.166 202.131 172.166H198.323C197.791 172.166 197.362 172.283 197.035 172.516C196.708 172.74 196.545 173.048 196.545 173.44C196.545 173.832 196.708 174.14 197.035 174.364C197.362 174.588 197.791 174.7 198.323 174.7ZM207.601 170.612L206.607 169.702C207.493 169.31 208.24 168.764 208.847 168.064C209.463 167.355 209.855 166.58 210.023 165.74H207.139V164.55H209.967V163.234H211.283V164.55H214.125V165.74H211.353C211.325 165.889 211.292 166.039 211.255 166.188C211.217 166.328 211.175 166.468 211.129 166.608C211.521 167.196 212.034 167.723 212.669 168.19C213.303 168.647 213.966 168.997 214.657 169.24L213.901 170.29C213.285 170.047 212.673 169.707 212.067 169.268C211.46 168.829 210.956 168.363 210.555 167.868C210.209 168.456 209.78 168.993 209.267 169.478C208.753 169.954 208.198 170.332 207.601 170.612ZM217.401 171.27V175.596H207.531V171.27H217.401ZM208.847 172.432V174.434H216.085V172.432H208.847ZM216.085 163.64H217.401V170.766H216.085V167.812H213.453V166.622H216.085V163.64ZM218.712 175.204V174.014H227.224V175.204H218.712ZM228.19 175.736V163.64H229.506V175.736H228.19ZM226.216 167.056C226.216 167.551 226.127 168.008 225.95 168.428C225.782 168.848 225.539 169.207 225.222 169.506C224.914 169.814 224.541 170.052 224.102 170.22C223.663 170.388 223.183 170.472 222.66 170.472C222.128 170.472 221.643 170.388 221.204 170.22C220.775 170.052 220.401 169.814 220.084 169.506C219.776 169.207 219.533 168.848 219.356 168.428C219.188 168.008 219.104 167.551 219.104 167.056C219.104 166.571 219.188 166.118 219.356 165.698C219.533 165.278 219.776 164.919 220.084 164.62C220.401 164.312 220.775 164.074 221.204 163.906C221.643 163.729 222.128 163.64 222.66 163.64C223.183 163.64 223.663 163.729 224.102 163.906C224.541 164.074 224.914 164.312 225.222 164.62C225.539 164.919 225.782 165.278 225.95 165.698C226.127 166.118 226.216 166.571 226.216 167.056ZM224.9 167.056C224.9 166.44 224.699 165.913 224.298 165.474C223.897 165.035 223.351 164.816 222.66 164.816C221.96 164.816 221.409 165.035 221.008 165.474C220.616 165.913 220.42 166.44 220.42 167.056C220.42 167.681 220.616 168.213 221.008 168.652C221.409 169.081 221.96 169.296 222.66 169.296C223.351 169.296 223.897 169.081 224.298 168.652C224.699 168.213 224.9 167.681 224.9 167.056ZM234.144 163.892H239.926V166.37C239.926 167.322 239.8 168.237 239.548 169.114C239.296 169.982 238.937 170.794 238.47 171.55C238.004 172.306 237.43 172.997 236.748 173.622C236.076 174.238 235.316 174.77 234.466 175.218L233.612 174.224C234.406 173.832 235.11 173.361 235.726 172.81C236.352 172.259 236.879 171.653 237.308 170.99C237.728 170.337 238.05 169.632 238.274 168.876C238.498 168.111 238.61 167.317 238.61 166.496V165.082H234.144V163.892ZM244.406 163.64V175.736H243.09V163.64H244.406ZM256.512 163.64V175.736H255.196V163.64H256.512ZM252.956 168.904C252.956 169.315 252.872 169.688 252.704 170.024C252.536 170.351 252.312 170.631 252.032 170.864C251.743 171.097 251.402 171.279 251.01 171.41C250.618 171.531 250.193 171.592 249.736 171.592C249.269 171.592 248.84 171.531 248.448 171.41C248.056 171.279 247.715 171.097 247.426 170.864C247.137 170.631 246.913 170.351 246.754 170.024C246.595 169.688 246.516 169.315 246.516 168.904C246.516 168.493 246.595 168.125 246.754 167.798C246.913 167.462 247.137 167.177 247.426 166.944C247.715 166.711 248.056 166.529 248.448 166.398C248.84 166.267 249.269 166.202 249.736 166.202C250.193 166.202 250.618 166.267 251.01 166.398C251.402 166.529 251.743 166.711 252.032 166.944C252.312 167.177 252.536 167.462 252.704 167.798C252.872 168.125 252.956 168.493 252.956 168.904ZM251.64 168.904C251.64 168.428 251.463 168.045 251.108 167.756C250.753 167.467 250.296 167.322 249.736 167.322C249.176 167.322 248.719 167.467 248.364 167.756C248.009 168.045 247.832 168.428 247.832 168.904C247.832 169.38 248.009 169.758 248.364 170.038C248.719 170.318 249.176 170.458 249.736 170.458C250.296 170.458 250.753 170.318 251.108 170.038C251.463 169.758 251.64 169.38 251.64 168.904ZM254.37 174.014V175.204H245.718V174.014H249.106V172.054H250.422V174.014H254.37ZM253.502 164.494V165.67H245.984V164.494H249.078V163.234H250.394V164.494H253.502ZM268.491 169.646V175.736H267.175V163.64H268.491V168.47H270.059V169.646H268.491ZM262.163 163.892H265.523V167.42C265.523 168.111 265.486 168.811 265.411 169.52C265.337 170.22 265.206 170.906 265.019 171.578C264.842 172.259 264.599 172.922 264.291 173.566C263.983 174.201 263.596 174.793 263.129 175.344L261.953 174.672C262.383 174.196 262.742 173.678 263.031 173.118C263.321 172.549 263.554 171.951 263.731 171.326C263.899 170.71 264.021 170.075 264.095 169.422C264.17 168.769 264.207 168.115 264.207 167.462V165.082H262.163V163.892ZM258.355 163.892H261.771V167.028C261.771 167.719 261.72 168.419 261.617 169.128C261.515 169.828 261.356 170.514 261.141 171.186C260.927 171.867 260.642 172.53 260.287 173.174C259.942 173.809 259.517 174.401 259.013 174.952L257.809 174.28C258.276 173.804 258.677 173.286 259.013 172.726C259.349 172.157 259.625 171.559 259.839 170.934C260.045 170.318 260.199 169.683 260.301 169.03C260.404 168.377 260.455 167.723 260.455 167.07V165.082H258.355V163.892ZM270.461 165.082V163.892H276.887V165.082H274.143C274.133 165.67 274.101 166.249 274.045 166.818C273.998 167.378 273.933 167.933 273.849 168.484C274.017 169.035 274.222 169.581 274.465 170.122C274.717 170.663 275.006 171.191 275.333 171.704C275.65 172.217 276 172.703 276.383 173.16C276.765 173.617 277.176 174.028 277.615 174.392L276.621 175.204C275.939 174.56 275.323 173.841 274.773 173.048C274.222 172.255 273.76 171.438 273.387 170.598C273.144 171.466 272.836 172.301 272.463 173.104C272.089 173.897 271.641 174.653 271.119 175.372L269.929 174.756C270.993 173.328 271.735 171.816 272.155 170.22C272.575 168.615 272.799 166.902 272.827 165.082H270.461ZM279.407 163.64H280.723V175.736H279.407V163.64ZM43.7141 189.092L43.1401 188.056C44.0455 187.981 44.9415 187.799 45.8281 187.51C46.7241 187.221 47.4801 186.824 48.0961 186.32H43.5321V185.158H47.9141V184.234H49.3001V185.158H53.7941V186.32H49.7481C49.7108 186.357 49.6781 186.395 49.6501 186.432C49.6221 186.469 49.5895 186.502 49.5521 186.53C49.5241 186.567 49.4915 186.605 49.4541 186.642C49.4261 186.67 49.3981 186.698 49.3701 186.726C50.0235 187.09 50.7748 187.37 51.6241 187.566C52.4735 187.753 53.3321 187.86 54.2001 187.888L53.6121 188.924C53.1921 188.905 52.7488 188.863 52.2821 188.798C51.8248 188.723 51.3675 188.625 50.9101 188.504C50.4621 188.383 50.0235 188.238 49.5941 188.07C49.1648 187.893 48.7775 187.697 48.4321 187.482C47.7415 187.958 46.9761 188.331 46.1361 188.602C45.2961 188.863 44.4888 189.027 43.7141 189.092ZM53.9341 195.434V196.596H43.5321V193.502H52.4781V192.746H43.5321V191.584H47.9421V190.646H42.8741V189.484H54.4521V190.646H49.2581V191.584H53.7941V194.664H44.8481V195.434H53.9341ZM55.7776 193.712V192.536H65.7736V196.862H64.4576V193.712H55.7776ZM57.8776 184.64H59.1936C59.1936 185.051 59.1656 185.457 59.1096 185.858C59.0629 186.259 58.9929 186.656 58.8996 187.048C59.3196 187.739 59.8423 188.392 60.4676 189.008C61.1023 189.615 61.7836 190.123 62.5116 190.534L61.6996 191.528C61.0836 191.164 60.4863 190.716 59.9076 190.184C59.3289 189.643 58.8296 189.087 58.4096 188.518C58.1296 189.19 57.7749 189.815 57.3456 190.394C56.9256 190.973 56.4356 191.472 55.8756 191.892L54.8256 191.038C55.8056 190.357 56.5569 189.451 57.0796 188.322C57.6116 187.193 57.8776 185.965 57.8776 184.64ZM64.4576 187.006V184.64H65.7736V191.836H64.4576V188.182H61.2796V187.006H64.4576ZM68.2751 196.372L67.0851 195.812C67.9531 194.533 68.5644 193.185 68.9191 191.766C69.2737 190.338 69.4651 188.84 69.4931 187.272H67.6171V186.082H69.4651V184.234H70.7811V186.082H72.8811V187.272H70.8091C70.7997 187.645 70.7811 188.019 70.7531 188.392C70.7251 188.765 70.6924 189.134 70.6551 189.498C70.7671 189.993 70.9117 190.497 71.0891 191.01C71.2757 191.523 71.4904 192.027 71.7331 192.522C71.9664 193.017 72.2231 193.497 72.5031 193.964C72.7924 194.421 73.1051 194.837 73.4411 195.21L72.4331 196.008C71.9757 195.401 71.5604 194.743 71.1871 194.034C70.8137 193.315 70.4917 192.597 70.2211 191.878C70.0157 192.69 69.7497 193.479 69.4231 194.244C69.1057 195 68.7231 195.709 68.2751 196.372ZM77.8791 196.736H76.5631V184.64H77.8791V196.736ZM75.1771 184.696V196.596H73.8611V190.814H71.9571V189.638H73.8611V184.696H75.1771ZM90.1105 193.852H88.7945V190.814H79.8485V189.638H88.7945V186.082H79.8485V184.892H90.1105V193.852ZM90.7685 195.014V196.204H79.1905V195.014H90.7685ZM91.954 193.32V191.612C91.954 190.632 92.2433 189.885 92.822 189.372C93.41 188.849 94.152 188.588 95.048 188.588C95.9347 188.588 96.672 188.849 97.26 189.372C97.848 189.885 98.142 190.632 98.142 191.612V193.32C98.142 194.3 97.848 195.047 97.26 195.56C96.672 196.073 95.9347 196.33 95.048 196.33C94.152 196.33 93.41 196.073 92.822 195.56C92.2433 195.047 91.954 194.3 91.954 193.32ZM101.824 190.646V196.736H100.508V184.64H101.824V189.47H103.532V190.646H101.824ZM93.27 191.612V193.32C93.27 193.917 93.424 194.375 93.732 194.692C94.0493 195 94.488 195.154 95.048 195.154C95.608 195.154 96.042 195 96.35 194.692C96.6673 194.375 96.826 193.917 96.826 193.32V191.612C96.826 191.024 96.6673 190.571 96.35 190.254C96.042 189.927 95.608 189.764 95.048 189.764C94.488 189.764 94.0493 189.927 93.732 190.254C93.424 190.571 93.27 191.024 93.27 191.612ZM98.534 187.272H91.562V186.082H94.362V184.234H95.678V186.082H98.534V187.272ZM114.321 193.446H113.005V186.082H104.059V184.892H114.321V193.446ZM114.979 195.014V196.204H103.401V195.014H107.615V189.456H108.931V195.014H114.979ZM125.68 191.346H122.516C121.956 191.346 121.438 191.267 120.962 191.108C120.495 190.94 120.094 190.707 119.758 190.408C119.422 190.119 119.161 189.769 118.974 189.358C118.787 188.938 118.694 188.481 118.694 187.986C118.694 187.501 118.787 187.053 118.974 186.642C119.161 186.231 119.422 185.877 119.758 185.578C120.094 185.289 120.495 185.06 120.962 184.892C121.438 184.724 121.956 184.64 122.516 184.64H125.68C126.231 184.64 126.739 184.724 127.206 184.892C127.673 185.06 128.074 185.289 128.41 185.578C128.746 185.877 129.007 186.231 129.194 186.642C129.39 187.053 129.488 187.501 129.488 187.986C129.488 188.481 129.39 188.938 129.194 189.358C129.007 189.769 128.746 190.119 128.41 190.408C128.074 190.707 127.673 190.94 127.206 191.108C126.739 191.267 126.231 191.346 125.68 191.346ZM122.516 190.156H125.68C126.399 190.156 126.982 189.955 127.43 189.554C127.878 189.143 128.102 188.621 128.102 187.986C128.102 187.37 127.878 186.857 127.43 186.446C126.982 186.026 126.399 185.816 125.68 185.816H122.516C121.788 185.816 121.2 186.026 120.752 186.446C120.304 186.857 120.08 187.37 120.08 187.986C120.08 188.621 120.304 189.143 120.752 189.554C121.2 189.955 121.788 190.156 122.516 190.156ZM129.88 195.014V196.204H118.302V195.014H123.44V191.948H124.756V195.014H129.88ZM141.467 195.42V196.596H131.065V193.32H140.011V192.438H131.065V191.262H141.327V194.496H132.381V195.42H141.467ZM130.407 189.092H141.985V190.268H130.407V189.092ZM141.467 186.95V188.126H131.065V184.766H132.381V186.95H141.467ZM142.513 196.204V195.014H151.025V196.204H142.513ZM151.991 196.736V184.64H153.307V196.736H151.991ZM150.017 188.056C150.017 188.551 149.928 189.008 149.751 189.428C149.583 189.848 149.34 190.207 149.023 190.506C148.715 190.814 148.341 191.052 147.903 191.22C147.464 191.388 146.983 191.472 146.461 191.472C145.929 191.472 145.443 191.388 145.005 191.22C144.575 191.052 144.202 190.814 143.885 190.506C143.577 190.207 143.334 189.848 143.157 189.428C142.989 189.008 142.905 188.551 142.905 188.056C142.905 187.571 142.989 187.118 143.157 186.698C143.334 186.278 143.577 185.919 143.885 185.62C144.202 185.312 144.575 185.074 145.005 184.906C145.443 184.729 145.929 184.64 146.461 184.64C146.983 184.64 147.464 184.729 147.903 184.906C148.341 185.074 148.715 185.312 149.023 185.62C149.34 185.919 149.583 186.278 149.751 186.698C149.928 187.118 150.017 187.571 150.017 188.056ZM148.701 188.056C148.701 187.44 148.5 186.913 148.099 186.474C147.697 186.035 147.151 185.816 146.461 185.816C145.761 185.816 145.21 186.035 144.809 186.474C144.417 186.913 144.221 187.44 144.221 188.056C144.221 188.681 144.417 189.213 144.809 189.652C145.21 190.081 145.761 190.296 146.461 190.296C147.151 190.296 147.697 190.081 148.099 189.652C148.5 189.213 148.701 188.681 148.701 188.056ZM158.337 196.596V192.788H159.653V195.42H168.473V196.596H158.337ZM160.311 184.64H161.627C161.627 185.06 161.599 185.48 161.543 185.9C161.487 186.32 161.408 186.735 161.305 187.146C161.725 187.846 162.253 188.504 162.887 189.12C163.531 189.727 164.217 190.24 164.945 190.66L164.133 191.668C163.508 191.304 162.901 190.851 162.313 190.31C161.735 189.759 161.235 189.19 160.815 188.602C160.535 189.283 160.181 189.918 159.751 190.506C159.331 191.094 158.851 191.598 158.309 192.018L157.259 191.178C157.735 190.823 158.16 190.408 158.533 189.932C158.916 189.456 159.238 188.938 159.499 188.378C159.761 187.809 159.961 187.211 160.101 186.586C160.241 185.951 160.311 185.303 160.311 184.64ZM166.891 187.272V184.64H168.207V193.782H166.891V188.448H163.713V187.272H166.891ZM180.579 195.434V196.596H170.177V193.474H179.123V192.69H170.177V191.528H174.587V190.548H169.519V189.372H181.097V190.548H175.903V191.528H180.439V194.636H171.493V195.434H180.579ZM180.439 184.892V188.574H170.177V184.892H180.439ZM171.493 187.426H179.123V186.04H171.493V187.426ZM196.655 187.664V188.84H194.947V192.102H193.631V184.64H194.947V187.664H196.655ZM194.947 192.788V196.862H193.631V193.978H185.077V192.788H194.947ZM191.139 184.892V191.416H184.951V184.892H186.267V186.936H189.823V184.892H191.139ZM186.267 190.226H189.823V188.126H186.267V190.226ZM208.103 195.014V196.204H196.525V195.014H208.103ZM197.323 191.682L196.525 190.702C197.225 190.45 197.873 190.123 198.471 189.722C199.077 189.321 199.609 188.859 200.067 188.336C200.533 187.813 200.921 187.239 201.229 186.614C201.537 185.989 201.756 185.331 201.887 184.64L203.189 184.892C203.133 185.2 203.058 185.503 202.965 185.802C202.881 186.101 202.778 186.39 202.657 186.67C203.319 187.491 204.122 188.215 205.065 188.84C206.017 189.456 207.029 189.904 208.103 190.184L207.417 191.234C206.409 190.935 205.429 190.487 204.477 189.89C203.534 189.283 202.722 188.597 202.041 187.832C201.481 188.709 200.785 189.484 199.955 190.156C199.133 190.828 198.256 191.337 197.323 191.682ZM219.69 195.462V196.596H209.288V193.684H218.234V193.068H209.288V191.934H219.55V194.804H210.604V195.462H219.69ZM208.63 190.156H220.208V191.304H208.63V190.156ZM219.69 188.406V189.54H209.288V186.656H218.234V186.026H209.288V184.892H219.55V187.776H210.604V188.406H219.69ZM234.59 195.574V196.736H224.454V193.404H233.008V192.368H224.454V191.22H234.324V194.538H225.77V195.574H234.59ZM223.796 187.594C223.796 187.174 223.876 186.782 224.034 186.418C224.193 186.054 224.417 185.741 224.706 185.48C224.986 185.219 225.318 185.013 225.7 184.864C226.092 184.715 226.512 184.64 226.96 184.64C227.399 184.64 227.81 184.715 228.192 184.864C228.575 185.013 228.906 185.219 229.186 185.48C229.476 185.741 229.7 186.054 229.858 186.418C230.026 186.782 230.11 187.174 230.11 187.594C230.11 188.023 230.026 188.42 229.858 188.784C229.7 189.148 229.476 189.461 229.186 189.722C228.906 189.993 228.575 190.203 228.192 190.352C227.81 190.492 227.399 190.562 226.96 190.562C226.512 190.562 226.092 190.492 225.7 190.352C225.318 190.203 224.986 189.993 224.706 189.722C224.417 189.461 224.193 189.148 224.034 188.784C223.876 188.42 223.796 188.023 223.796 187.594ZM234.324 184.64V190.604H233.008V189.442H230.642V188.252H233.008V186.936H230.642V185.76H233.008V184.64H234.324ZM225.112 187.594C225.112 188.126 225.285 188.555 225.63 188.882C225.985 189.209 226.428 189.372 226.96 189.372C227.483 189.372 227.917 189.209 228.262 188.882C228.617 188.555 228.794 188.126 228.794 187.594C228.794 187.071 228.617 186.647 228.262 186.32C227.917 185.984 227.483 185.816 226.96 185.816C226.428 185.816 225.985 185.984 225.63 186.32C225.285 186.647 225.112 187.071 225.112 187.594ZM236.028 192.536V188.588C236.028 187.337 236.317 186.39 236.896 185.746C237.475 185.093 238.24 184.766 239.192 184.766C240.144 184.766 240.909 185.093 241.488 185.746C242.067 186.39 242.356 187.337 242.356 188.588V192.536C242.356 193.777 242.067 194.72 241.488 195.364C240.909 196.008 240.144 196.33 239.192 196.33C238.24 196.33 237.475 196.008 236.896 195.364C236.317 194.72 236.028 193.777 236.028 192.536ZM237.344 188.588V192.536C237.344 193.46 237.503 194.127 237.82 194.538C238.137 194.949 238.595 195.154 239.192 195.154C239.78 195.154 240.233 194.949 240.55 194.538C240.877 194.127 241.04 193.46 241.04 192.536V188.588C241.04 187.664 240.877 186.997 240.55 186.586C240.233 186.166 239.78 185.956 239.192 185.956C238.595 185.956 238.137 186.166 237.82 186.586C237.503 186.997 237.344 187.664 237.344 188.588ZM245.114 190.688H242.874V189.498H245.114V184.64H246.43V196.736H245.114V190.688ZM258.661 184.892V192.13H248.399V184.892H249.715V187.272H257.345V184.892H258.661ZM249.715 190.954H257.345V188.448H249.715V190.954ZM259.319 195.014V196.204H247.741V195.014H252.879V192.746H254.195V195.014H259.319ZM260.953 196.372L259.721 195.882C260.169 195.079 260.528 194.23 260.799 193.334C261.079 192.429 261.293 191.505 261.443 190.562C261.592 189.61 261.69 188.649 261.737 187.678C261.793 186.698 261.821 185.727 261.821 184.766H263.137C263.137 185.457 263.123 186.152 263.095 186.852C263.067 187.552 263.02 188.252 262.955 188.952C263.235 190.072 263.636 191.187 264.159 192.298C264.681 193.399 265.321 194.403 266.077 195.308L264.999 196.078C264.485 195.462 264.023 194.771 263.613 194.006C263.211 193.241 262.866 192.457 262.577 191.654C262.409 192.503 262.194 193.329 261.933 194.132C261.671 194.925 261.345 195.672 260.953 196.372ZM270.641 196.736H269.325V184.64H270.641V196.736ZM267.813 184.696V196.596H266.497V190.156H264.327V188.98H266.497V184.696H267.813ZM279.33 191.22H276.166C275.606 191.22 275.088 191.145 274.612 190.996C274.146 190.837 273.744 190.613 273.408 190.324C273.072 190.035 272.811 189.689 272.624 189.288C272.438 188.877 272.344 188.425 272.344 187.93C272.344 187.445 272.438 187.001 272.624 186.6C272.811 186.189 273.072 185.839 273.408 185.55C273.744 185.261 274.146 185.037 274.612 184.878C275.088 184.719 275.606 184.64 276.166 184.64H279.33C279.881 184.64 280.39 184.719 280.856 184.878C281.323 185.037 281.724 185.261 282.06 185.55C282.396 185.839 282.658 186.189 282.844 186.6C283.04 187.001 283.138 187.445 283.138 187.93C283.138 188.425 283.04 188.877 282.844 189.288C282.658 189.689 282.396 190.035 282.06 190.324C281.724 190.613 281.323 190.837 280.856 190.996C280.39 191.145 279.881 191.22 279.33 191.22ZM276.166 190.03H279.33C280.049 190.03 280.632 189.839 281.08 189.456C281.528 189.064 281.752 188.555 281.752 187.93C281.752 187.305 281.528 186.796 281.08 186.404C280.632 186.012 280.049 185.816 279.33 185.816H276.166C275.438 185.816 274.85 186.012 274.402 186.404C273.954 186.796 273.73 187.305 273.73 187.93C273.73 188.555 273.954 189.064 274.402 189.456C274.85 189.839 275.438 190.03 276.166 190.03ZM283.53 195.014V196.204H271.952V195.014H274.584V192.004H275.9V195.014H279.582V192.004H280.898V195.014H283.53ZM285.92 196.078H284.338V194.51H285.92V196.078Z" fill="white"/>
<path d="M285 178.05H300V163.05H285V178.05Z" fill="white"/>
<path d="M21.252 231.26L21.624 228.5H20.388L20.016 231.26H18.888L19.26 228.5H18.108V227.492H19.404L19.728 225.116H18.504V224.108H19.86L20.244 221.336H21.372L20.988 224.108H22.224L22.608 221.336H23.736L23.352 224.108H24.528V225.116H23.22L22.896 227.492H24.132V228.5H22.752L22.38 231.26H21.252ZM21.768 227.492L22.092 225.116H20.856L20.532 227.492H21.768ZM26.7248 230.576H25.5968V222.584H24.5768V221.564H26.7248V230.576ZM38.6075 224.228V225.248H37.1435V228.956H36.0155V221.12H37.1435V224.228H38.6075ZM37.3715 230.36V231.368H28.8035V228.104H29.9315V230.36H37.3715ZM33.8795 221.336V226.868H28.5755V221.336H33.8795ZM29.7035 225.848H32.7515V222.356H29.7035V225.848ZM43.7402 230.36V231.368H38.6642V230.36H43.7402ZM53.8261 230.372V231.368H44.9101V228.716H52.5781V228.068H44.9101V227.072H53.7061V229.712H46.0381V230.372H53.8261ZM44.3461 225.404H54.2701V226.412H44.3461V225.404ZM53.7061 221.336V222.344H44.9101V221.336H53.7061ZM47.7301 223.748H50.7061L50.9821 222.644H52.1341L51.8581 223.748H53.8261V224.72H44.8021V223.748H46.6021V222.644H47.7301V223.748ZM60.5188 230.012V231.032H55.1068V225.512H58.5988V222.356H55.1068V221.336H59.7268V226.532H56.2348V230.012H60.5188ZM62.7748 226.532H60.2908V225.512H62.7748V221.12H63.9028V231.488H62.7748V226.532ZM74.8794 230.012V231.032H64.9554V230.012H74.8794ZM65.6394 227.156L64.9554 226.316C65.5554 226.1 66.1114 225.82 66.6234 225.476C67.1434 225.132 67.5994 224.736 67.9914 224.288C68.3914 223.84 68.7234 223.348 68.9874 222.812C69.2514 222.276 69.4394 221.712 69.5514 221.12L70.6674 221.336C70.6194 221.6 70.5554 221.86 70.4754 222.116C70.4034 222.372 70.3154 222.62 70.2114 222.86C70.7794 223.564 71.4674 224.184 72.2754 224.72C73.0914 225.248 73.9594 225.632 74.8794 225.872L74.2914 226.772C73.4274 226.516 72.5874 226.132 71.7714 225.62C70.9634 225.1 70.2674 224.512 69.6834 223.856C69.2034 224.608 68.6074 225.272 67.8954 225.848C67.1914 226.424 66.4394 226.86 65.6394 227.156ZM84.7401 226.076V227.096H75.7161V226.076H77.5161V223.028H78.6441V226.076H81.3561L82.1241 223.028H83.2761L82.5081 226.076H84.7401ZM85.1841 230.012V231.032H75.2601V230.012H79.6641V227.732H80.7921V230.012H85.1841ZM84.6201 221.336V222.356H75.8241V221.336H84.6201ZM86.9208 223.88V224.336C86.9208 224.816 87.0728 225.228 87.3768 225.572C87.6888 225.908 88.1008 226.076 88.6128 226.076C89.1168 226.076 89.5248 225.908 89.8368 225.572C90.1488 225.228 90.3048 224.816 90.3048 224.336V223.88C90.3048 223.4 90.1488 222.988 89.8368 222.644C89.5248 222.3 89.1168 222.128 88.6128 222.128C88.1008 222.128 87.6888 222.3 87.3768 222.644C87.0728 222.988 86.9208 223.4 86.9208 223.88ZM85.7928 224.336V223.88C85.7928 223.488 85.8608 223.124 85.9968 222.788C86.1408 222.452 86.3408 222.16 86.5968 221.912C86.8448 221.664 87.1408 221.472 87.4848 221.336C87.8288 221.192 88.2048 221.12 88.6128 221.12C89.0048 221.12 89.3728 221.192 89.7168 221.336C90.0608 221.472 90.3608 221.664 90.6168 221.912C90.8648 222.16 91.0608 222.452 91.2048 222.788C91.3568 223.124 91.4328 223.488 91.4328 223.88V224.336C91.4328 224.736 91.3568 225.104 91.2048 225.44C91.0608 225.776 90.8648 226.068 90.6168 226.316C90.3608 226.556 90.0608 226.748 89.7168 226.892C89.3728 227.028 89.0048 227.096 88.6128 227.096C88.2048 227.096 87.8288 227.028 87.4848 226.892C87.1408 226.748 86.8448 226.556 86.5968 226.316C86.3408 226.068 86.1408 225.776 85.9968 225.44C85.8608 225.104 85.7928 224.736 85.7928 224.336ZM95.0448 230.36V231.368H86.3568V228.104H87.4848V230.36H95.0448ZM94.8168 221.12V228.956H93.6888V221.12H94.8168ZM97.5615 222.356V224.156H105.23V225.176H97.5615V227.036H105.35V228.056H96.4335V221.336H105.23V222.356H97.5615ZM105.794 230.012V231.032H95.8695V230.012H105.794Z" fill="#FFECA9"/>
<path d="M114.252 231.26L114.624 228.5H113.388L113.016 231.26H111.888L112.26 228.5H111.108V227.492H112.404L112.728 225.116H111.504V224.108H112.86L113.244 221.336H114.372L113.988 224.108H115.224L115.608 221.336H116.736L116.352 224.108H117.528V225.116H116.22L115.896 227.492H117.132V228.5H115.752L115.38 231.26H114.252ZM114.768 227.492L115.092 225.116H113.856L113.532 227.492H114.768ZM119.725 230.576H118.597V222.584H117.577V221.564H119.725V230.576ZM124.972 228.284V223.88C124.972 223.432 124.86 223.084 124.636 222.836C124.412 222.588 124.092 222.464 123.676 222.464C123.244 222.464 122.92 222.588 122.704 222.836C122.488 223.084 122.38 223.432 122.38 223.88V228.284C122.38 228.74 122.488 229.088 122.704 229.328C122.92 229.568 123.244 229.688 123.676 229.688C124.092 229.688 124.412 229.568 124.636 229.328C124.86 229.088 124.972 228.74 124.972 228.284ZM126.1 223.772V228.392C126.1 229.096 125.884 229.656 125.452 230.072C125.028 230.488 124.436 230.696 123.676 230.696C122.908 230.696 122.312 230.488 121.888 230.072C121.464 229.656 121.252 229.096 121.252 228.392V223.772C121.252 223.068 121.464 222.508 121.888 222.092C122.312 221.668 122.908 221.456 123.676 221.456C124.436 221.456 125.028 221.668 125.452 222.092C125.884 222.508 126.1 223.068 126.1 223.772ZM130.448 228.284V223.88C130.448 223.432 130.336 223.084 130.112 222.836C129.888 222.588 129.568 222.464 129.152 222.464C128.72 222.464 128.396 222.588 128.18 222.836C127.964 223.084 127.856 223.432 127.856 223.88V228.284C127.856 228.74 127.964 229.088 128.18 229.328C128.396 229.568 128.72 229.688 129.152 229.688C129.568 229.688 129.888 229.568 130.112 229.328C130.336 229.088 130.448 228.74 130.448 228.284ZM131.576 223.772V228.392C131.576 229.096 131.36 229.656 130.928 230.072C130.504 230.488 129.912 230.696 129.152 230.696C128.384 230.696 127.788 230.488 127.364 230.072C126.94 229.656 126.728 229.096 126.728 228.392V223.772C126.728 223.068 126.94 222.508 127.364 222.092C127.788 221.668 128.384 221.456 129.152 221.456C129.912 221.456 130.504 221.668 130.928 222.092C131.36 222.508 131.576 223.068 131.576 223.772ZM137.617 224.384C137.617 225.296 137.369 225.996 136.873 226.484C136.385 226.964 135.693 227.204 134.797 227.204H133.441V230.576H132.313V221.564H134.797C135.693 221.564 136.385 221.812 136.873 222.308C137.369 222.796 137.617 223.488 137.617 224.384ZM136.489 224.384C136.489 223.712 136.325 223.244 135.997 222.98C135.677 222.716 135.237 222.584 134.677 222.584H133.441V226.196H134.677C135.237 226.196 135.677 226.064 135.997 225.8C136.325 225.536 136.489 225.064 136.489 224.384Z" fill="#FFECA9"/>
<path d="M145.252 231.26L145.624 228.5H144.388L144.016 231.26H142.888L143.26 228.5H142.108V227.492H143.404L143.728 225.116H142.504V224.108H143.86L144.244 221.336H145.372L144.988 224.108H146.224L146.608 221.336H147.736L147.352 224.108H148.528V225.116H147.22L146.896 227.492H148.132V228.5H146.752L146.38 231.26H145.252ZM145.768 227.492L146.092 225.116H144.856L144.532 227.492H145.768ZM148.745 230.576V228.704C148.745 228.128 148.833 227.676 149.009 227.348C149.193 227.02 149.493 226.72 149.909 226.448L151.661 225.308C151.925 225.14 152.125 224.932 152.261 224.684C152.397 224.428 152.465 224.14 152.465 223.82C152.465 223.372 152.361 223.036 152.153 222.812C151.953 222.58 151.625 222.464 151.169 222.464C150.713 222.464 150.381 222.58 150.173 222.812C149.973 223.036 149.873 223.372 149.873 223.82H148.745C148.745 222.98 148.965 222.376 149.405 222.008C149.845 221.64 150.433 221.456 151.169 221.456C151.905 221.456 152.493 221.64 152.933 222.008C153.373 222.376 153.593 222.98 153.593 223.82C153.593 224.388 153.481 224.852 153.257 225.212C153.041 225.564 152.729 225.872 152.321 226.136L150.593 227.252C150.329 227.42 150.141 227.616 150.029 227.84C149.917 228.056 149.861 228.336 149.861 228.68V229.58H153.593V230.576H148.745ZM157.999 228.284V223.88C157.999 223.432 157.887 223.084 157.663 222.836C157.439 222.588 157.119 222.464 156.703 222.464C156.271 222.464 155.947 222.588 155.731 222.836C155.515 223.084 155.407 223.432 155.407 223.88V228.284C155.407 228.74 155.515 229.088 155.731 229.328C155.947 229.568 156.271 229.688 156.703 229.688C157.119 229.688 157.439 229.568 157.663 229.328C157.887 229.088 157.999 228.74 157.999 228.284ZM159.127 223.772V228.392C159.127 229.096 158.911 229.656 158.479 230.072C158.055 230.488 157.463 230.696 156.703 230.696C155.935 230.696 155.339 230.488 154.915 230.072C154.491 229.656 154.279 229.096 154.279 228.392V223.772C154.279 223.068 154.491 222.508 154.915 222.092C155.339 221.668 155.935 221.456 156.703 221.456C157.463 221.456 158.055 221.668 158.479 222.092C158.911 222.508 159.127 223.068 159.127 223.772ZM165.275 221.564H166.403L161.555 230.576H160.427L165.275 221.564ZM161.963 224.156V223.148C161.963 222.9 161.911 222.708 161.807 222.572C161.711 222.428 161.551 222.356 161.327 222.356C161.103 222.356 160.939 222.428 160.835 222.572C160.739 222.708 160.691 222.9 160.691 223.148V224.156C160.691 224.42 160.739 224.62 160.835 224.756C160.939 224.884 161.103 224.948 161.327 224.948C161.551 224.948 161.711 224.884 161.807 224.756C161.911 224.62 161.963 224.42 161.963 224.156ZM163.019 223.148V224.156C163.019 224.724 162.867 225.148 162.563 225.428C162.267 225.708 161.855 225.848 161.327 225.848C160.791 225.848 160.375 225.708 160.079 225.428C159.783 225.148 159.635 224.724 159.635 224.156V223.148C159.635 222.588 159.783 222.168 160.079 221.888C160.375 221.6 160.791 221.456 161.327 221.456C161.855 221.456 162.267 221.6 162.563 221.888C162.867 222.168 163.019 222.588 163.019 223.148ZM166.247 229.016V227.996C166.247 227.748 166.195 227.556 166.091 227.42C165.995 227.276 165.835 227.204 165.611 227.204C165.387 227.204 165.227 227.276 165.131 227.42C165.035 227.556 164.987 227.748 164.987 227.996V229.016C164.987 229.272 165.035 229.468 165.131 229.604C165.227 229.732 165.387 229.796 165.611 229.796C165.835 229.796 165.995 229.732 166.091 229.604C166.195 229.468 166.247 229.272 166.247 229.016ZM167.303 227.996V229.016C167.303 229.576 167.155 229.996 166.859 230.276C166.563 230.556 166.147 230.696 165.611 230.696C165.075 230.696 164.659 230.556 164.363 230.276C164.067 229.996 163.919 229.576 163.919 229.016V227.996C163.919 227.436 164.067 227.016 164.363 226.736C164.659 226.448 165.075 226.304 165.611 226.304C166.147 226.304 166.563 226.448 166.859 226.736C167.155 227.016 167.303 227.436 167.303 227.996ZM176.942 230.504V231.488H168.374V228.8H175.586V228.08H168.374V227.096H176.714V229.772H169.502V230.504H176.942ZM171.338 226.544H170.366C169.742 226.544 169.234 226.388 168.842 226.076C168.45 225.756 168.254 225.328 168.254 224.792C168.254 224.264 168.45 223.84 168.842 223.52C169.234 223.2 169.742 223.04 170.366 223.04H171.338C171.954 223.04 172.458 223.2 172.85 223.52C173.25 223.84 173.45 224.264 173.45 224.792C173.45 225.328 173.25 225.756 172.85 226.076C172.458 226.388 171.954 226.544 171.338 226.544ZM178.178 223.316V224.336H176.714V226.568H175.586V221.12H176.714V223.316H178.178ZM174.014 221.684V222.656H167.81V221.684H170.282V220.772H171.41V221.684H174.014ZM170.366 225.596H171.338C171.65 225.596 171.89 225.52 172.058 225.368C172.234 225.216 172.322 225.024 172.322 224.792C172.322 224.576 172.234 224.388 172.058 224.228C171.89 224.06 171.65 223.976 171.338 223.976H170.366C170.038 223.976 169.79 224.06 169.622 224.228C169.462 224.388 169.382 224.576 169.382 224.792C169.382 225.024 169.462 225.216 169.622 225.368C169.79 225.52 170.038 225.596 170.366 225.596ZM179.351 223.88V224.336C179.351 224.816 179.503 225.228 179.807 225.572C180.119 225.908 180.531 226.076 181.043 226.076C181.547 226.076 181.955 225.908 182.267 225.572C182.579 225.228 182.735 224.816 182.735 224.336V223.88C182.735 223.4 182.579 222.988 182.267 222.644C181.955 222.3 181.547 222.128 181.043 222.128C180.531 222.128 180.119 222.3 179.807 222.644C179.503 222.988 179.351 223.4 179.351 223.88ZM178.223 224.336V223.88C178.223 223.488 178.291 223.124 178.427 222.788C178.571 222.452 178.771 222.16 179.027 221.912C179.275 221.664 179.571 221.472 179.915 221.336C180.259 221.192 180.635 221.12 181.043 221.12C181.435 221.12 181.803 221.192 182.147 221.336C182.491 221.472 182.791 221.664 183.047 221.912C183.295 222.16 183.491 222.452 183.635 222.788C183.787 223.124 183.863 223.488 183.863 223.88V224.336C183.863 224.736 183.787 225.104 183.635 225.44C183.491 225.776 183.295 226.068 183.047 226.316C182.791 226.556 182.491 226.748 182.147 226.892C181.803 227.028 181.435 227.096 181.043 227.096C180.635 227.096 180.259 227.028 179.915 226.892C179.571 226.748 179.275 226.556 179.027 226.316C178.771 226.068 178.571 225.776 178.427 225.44C178.291 225.104 178.223 224.736 178.223 224.336ZM187.475 230.36V231.368H178.787V228.104H179.915V230.36H187.475ZM187.247 221.12V228.956H186.119V221.12H187.247ZM197.551 221.12V228.98H196.423V227.864H193.759V226.868H196.423V221.12H197.551ZM197.779 230.36V231.368H189.091V228.38H190.219V230.36H197.779ZM195.283 225.176V226.196H191.635V228.104H190.507V226.196H188.299V225.176H195.283ZM194.395 224.72H193.267V222.344H188.755V221.336H194.395V224.72Z" fill="#FFECA9"/>
<path d="M208.576 231.26L208.948 228.5H207.712L207.34 231.26H206.212L206.584 228.5H205.432V227.492H206.728L207.052 225.116H205.828V224.108H207.184L207.568 221.336H208.696L208.312 224.108H209.548L209.932 221.336H211.06L210.676 224.108H211.852V225.116H210.544L210.22 227.492H211.456V228.5H210.076L209.704 231.26H208.576ZM209.092 227.492L209.416 225.116H208.18L207.856 227.492H209.092ZM216.293 221.336V225.284H217.697V221.168H218.825V231.368H217.697V226.304H216.293V231.032H212.345V221.336H216.293ZM213.473 230.012H215.165V222.356H213.473V230.012ZM221.141 231.488H220.013V221.12H221.141V231.488ZM222.65 221.336H227.498V223.58C227.498 224.388 227.394 225.16 227.186 225.896C226.986 226.624 226.694 227.308 226.31 227.948C225.918 228.58 225.438 229.16 224.87 229.688C224.302 230.208 223.654 230.66 222.926 231.044L222.194 230.192C223.554 229.512 224.59 228.612 225.302 227.492C226.014 226.372 226.37 225.136 226.37 223.784V222.356H222.65V221.336ZM231.218 226.268V231.488H230.09V221.12H231.218V225.26H232.682V226.268H231.218ZM242.986 223.712V224.72H241.522V227.516H240.394V221.12H241.522V223.712H242.986ZM241.522 228.104V231.596H240.394V229.124H233.062V228.104H241.522ZM238.258 221.336V226.928H232.954V221.336H234.082V223.088H237.13V221.336H238.258ZM234.082 225.908H237.13V224.108H234.082V225.908ZM252.727 230.012V231.032H242.803V230.012H252.727ZM243.487 227.156L242.803 226.316C243.403 226.1 243.959 225.82 244.471 225.476C244.991 225.132 245.447 224.736 245.839 224.288C246.239 223.84 246.571 223.348 246.835 222.812C247.099 222.276 247.287 221.712 247.399 221.12L248.515 221.336C248.467 221.6 248.403 221.86 248.323 222.116C248.251 222.372 248.163 222.62 248.059 222.86C248.627 223.564 249.315 224.184 250.123 224.72C250.939 225.248 251.807 225.632 252.727 225.872L252.139 226.772C251.275 226.516 250.435 226.132 249.619 225.62C248.811 225.1 248.115 224.512 247.531 223.856C247.051 224.608 246.455 225.272 245.743 225.848C245.039 226.424 244.287 226.86 243.487 227.156ZM262.132 227.324V231.368H253.792V227.324H254.932V228.284H261.004V227.324H262.132ZM257.884 225.644H259.372V226.64H253.336V225.644H254.404V222.92H255.532V225.644H256.756L257.224 222.92H258.352L257.884 225.644ZM263.596 223.484V224.504H262.132V226.892H261.004V221.12H262.132V223.484H263.596ZM254.92 230.372H261.004V229.268H254.92V230.372ZM259.144 221.336V222.356H253.564V221.336H259.144ZM272.772 225.74H271.644V224.552H263.976V223.556H271.644V222.356H263.976V221.336H272.772V225.74ZM268.152 226.532H273.336V227.54H263.412V226.532H267.024V225.008H268.152V226.532ZM272.892 230.36V231.368H263.976V228.332H265.104V230.36H272.892ZM279.033 230.36V231.368H273.957V230.36H279.033ZM281.007 226.196H279.987V221.564H284.283V222.584H281.115V225.116C281.283 224.972 281.499 224.852 281.763 224.756C282.027 224.66 282.291 224.612 282.555 224.612C283.219 224.612 283.719 224.784 284.055 225.128C284.391 225.472 284.559 225.932 284.559 226.508V228.332C284.559 229.092 284.359 229.676 283.959 230.084C283.567 230.492 282.979 230.696 282.195 230.696C281.403 230.696 280.791 230.492 280.359 230.084C279.927 229.676 279.711 229.092 279.711 228.332H280.839C280.839 228.812 280.963 229.16 281.211 229.376C281.467 229.584 281.795 229.688 282.195 229.688C282.579 229.688 282.879 229.584 283.095 229.376C283.319 229.16 283.431 228.812 283.431 228.332V226.748C283.431 226.356 283.343 226.072 283.167 225.896C282.991 225.72 282.711 225.632 282.327 225.632C282.063 225.632 281.819 225.684 281.595 225.788C281.371 225.892 281.175 226.028 281.007 226.196ZM288.909 228.284V223.88C288.909 223.432 288.797 223.084 288.573 222.836C288.349 222.588 288.029 222.464 287.613 222.464C287.181 222.464 286.857 222.588 286.641 222.836C286.425 223.084 286.317 223.432 286.317 223.88V228.284C286.317 228.74 286.425 229.088 286.641 229.328C286.857 229.568 287.181 229.688 287.613 229.688C288.029 229.688 288.349 229.568 288.573 229.328C288.797 229.088 288.909 228.74 288.909 228.284ZM290.037 223.772V228.392C290.037 229.096 289.821 229.656 289.389 230.072C288.965 230.488 288.373 230.696 287.613 230.696C286.845 230.696 286.249 230.488 285.825 230.072C285.401 229.656 285.189 229.096 285.189 228.392V223.772C285.189 223.068 285.401 222.508 285.825 222.092C286.249 221.668 286.845 221.456 287.613 221.456C288.373 221.456 288.965 221.668 289.389 222.092C289.821 222.508 290.037 223.068 290.037 223.772ZM294.386 228.284V223.88C294.386 223.432 294.274 223.084 294.05 222.836C293.826 222.588 293.506 222.464 293.09 222.464C292.658 222.464 292.334 222.588 292.118 222.836C291.902 223.084 291.794 223.432 291.794 223.88V228.284C291.794 228.74 291.902 229.088 292.118 229.328C292.334 229.568 292.658 229.688 293.09 229.688C293.506 229.688 293.826 229.568 294.05 229.328C294.274 229.088 294.386 228.74 294.386 228.284ZM295.514 223.772V228.392C295.514 229.096 295.298 229.656 294.866 230.072C294.442 230.488 293.85 230.696 293.09 230.696C292.322 230.696 291.726 230.488 291.302 230.072C290.878 229.656 290.666 229.096 290.666 228.392V223.772C290.666 223.068 290.878 222.508 291.302 222.092C291.726 221.668 292.322 221.456 293.09 221.456C293.85 221.456 294.442 221.668 294.866 222.092C295.298 222.508 295.514 223.068 295.514 223.772ZM302.994 225.68V226.7H299.346V228.392H298.218V226.7H296.01V225.68H302.994ZM305.49 230.36V231.368H296.802V228.608H297.93V230.36H305.49ZM300.078 225.068H298.602C297.898 225.068 297.346 224.888 296.946 224.528C296.546 224.168 296.346 223.688 296.346 223.088C296.346 222.496 296.546 222.02 296.946 221.66C297.346 221.3 297.898 221.12 298.602 221.12H300.078C300.774 221.12 301.322 221.3 301.722 221.66C302.13 222.02 302.334 222.496 302.334 223.088C302.334 223.688 302.13 224.168 301.722 224.528C301.322 224.888 300.774 225.068 300.078 225.068ZM298.602 224.048H300.078C300.414 224.048 300.686 223.968 300.894 223.808C301.102 223.64 301.206 223.4 301.206 223.088C301.206 222.776 301.102 222.54 300.894 222.38C300.686 222.212 300.414 222.128 300.078 222.128H298.602C298.266 222.128 297.994 222.212 297.786 222.38C297.578 222.54 297.474 222.776 297.474 223.088C297.474 223.4 297.578 223.64 297.786 223.808C297.994 223.968 298.266 224.048 298.602 224.048ZM305.262 221.12V229.208H304.134V228.308H301.47V227.324H304.134V221.12H305.262Z" fill="#FFECA9"/>
<path d="M87.752 249.26L88.124 246.5H86.888L86.516 249.26H85.388L85.76 246.5H84.608V245.492H85.904L86.228 243.116H85.004V242.108H86.36L86.744 239.336H87.872L87.488 242.108H88.724L89.108 239.336H90.236L89.852 242.108H91.028V243.116H89.72L89.396 245.492H90.632V246.5H89.252L88.88 249.26H87.752ZM88.268 245.492L88.592 243.116H87.356L87.032 245.492H88.268ZM93.2248 248.576H92.0968V240.584H91.0768V239.564H93.2248V248.576ZM98.4715 246.284V241.88C98.4715 241.432 98.3595 241.084 98.1355 240.836C97.9115 240.588 97.5915 240.464 97.1755 240.464C96.7435 240.464 96.4195 240.588 96.2035 240.836C95.9875 241.084 95.8795 241.432 95.8795 241.88V246.284C95.8795 246.74 95.9875 247.088 96.2035 247.328C96.4195 247.568 96.7435 247.688 97.1755 247.688C97.5915 247.688 97.9115 247.568 98.1355 247.328C98.3595 247.088 98.4715 246.74 98.4715 246.284ZM99.5995 241.772V246.392C99.5995 247.096 99.3835 247.656 98.9515 248.072C98.5275 248.488 97.9355 248.696 97.1755 248.696C96.4075 248.696 95.8115 248.488 95.3875 248.072C94.9635 247.656 94.7515 247.096 94.7515 246.392V241.772C94.7515 241.068 94.9635 240.508 95.3875 240.092C95.8115 239.668 96.4075 239.456 97.1755 239.456C97.9355 239.456 98.5275 239.668 98.9515 240.092C99.3835 240.508 99.5995 241.068 99.5995 241.772ZM100 250.052L99.6641 249.596C99.9041 249.436 100.076 249.248 100.18 249.032C100.284 248.816 100.336 248.516 100.336 248.132V247.58H101.632V248.132C101.632 248.62 101.488 249.028 101.2 249.356C100.92 249.692 100.52 249.924 100 250.052ZM106.085 246.284V241.88C106.085 241.432 105.973 241.084 105.749 240.836C105.525 240.588 105.205 240.464 104.789 240.464C104.357 240.464 104.033 240.588 103.817 240.836C103.601 241.084 103.493 241.432 103.493 241.88V246.284C103.493 246.74 103.601 247.088 103.817 247.328C104.033 247.568 104.357 247.688 104.789 247.688C105.205 247.688 105.525 247.568 105.749 247.328C105.973 247.088 106.085 246.74 106.085 246.284ZM107.213 241.772V246.392C107.213 247.096 106.997 247.656 106.565 248.072C106.141 248.488 105.549 248.696 104.789 248.696C104.021 248.696 103.425 248.488 103.001 248.072C102.577 247.656 102.365 247.096 102.365 246.392V241.772C102.365 241.068 102.577 240.508 103.001 240.092C103.425 239.668 104.021 239.456 104.789 239.456C105.549 239.456 106.141 239.668 106.565 240.092C106.997 240.508 107.213 241.068 107.213 241.772ZM111.561 246.284V241.88C111.561 241.432 111.449 241.084 111.225 240.836C111.001 240.588 110.681 240.464 110.265 240.464C109.833 240.464 109.509 240.588 109.293 240.836C109.077 241.084 108.969 241.432 108.969 241.88V246.284C108.969 246.74 109.077 247.088 109.293 247.328C109.509 247.568 109.833 247.688 110.265 247.688C110.681 247.688 111.001 247.568 111.225 247.328C111.449 247.088 111.561 246.74 111.561 246.284ZM112.689 241.772V246.392C112.689 247.096 112.473 247.656 112.041 248.072C111.617 248.488 111.025 248.696 110.265 248.696C109.497 248.696 108.901 248.488 108.477 248.072C108.053 247.656 107.841 247.096 107.841 246.392V241.772C107.841 241.068 108.053 240.508 108.477 240.092C108.901 239.668 109.497 239.456 110.265 239.456C111.025 239.456 111.617 239.668 112.041 240.092C112.473 240.508 112.689 241.068 112.689 241.772ZM117.038 246.284V241.88C117.038 241.432 116.926 241.084 116.702 240.836C116.478 240.588 116.158 240.464 115.742 240.464C115.31 240.464 114.986 240.588 114.77 240.836C114.554 241.084 114.446 241.432 114.446 241.88V246.284C114.446 246.74 114.554 247.088 114.77 247.328C114.986 247.568 115.31 247.688 115.742 247.688C116.158 247.688 116.478 247.568 116.702 247.328C116.926 247.088 117.038 246.74 117.038 246.284ZM118.166 241.772V246.392C118.166 247.096 117.95 247.656 117.518 248.072C117.094 248.488 116.502 248.696 115.742 248.696C114.974 248.696 114.378 248.488 113.954 248.072C113.53 247.656 113.318 247.096 113.318 246.392V241.772C113.318 241.068 113.53 240.508 113.954 240.092C114.378 239.668 114.974 239.456 115.742 239.456C116.502 239.456 117.094 239.668 117.518 240.092C117.95 240.508 118.166 241.068 118.166 241.772ZM118.566 250.052L118.23 249.596C118.47 249.436 118.642 249.248 118.746 249.032C118.85 248.816 118.902 248.516 118.902 248.132V247.58H120.198V248.132C120.198 248.62 120.054 249.028 119.766 249.356C119.486 249.692 119.086 249.924 118.566 250.052ZM124.651 246.284V241.88C124.651 241.432 124.539 241.084 124.315 240.836C124.091 240.588 123.771 240.464 123.355 240.464C122.923 240.464 122.599 240.588 122.383 240.836C122.167 241.084 122.059 241.432 122.059 241.88V246.284C122.059 246.74 122.167 247.088 122.383 247.328C122.599 247.568 122.923 247.688 123.355 247.688C123.771 247.688 124.091 247.568 124.315 247.328C124.539 247.088 124.651 246.74 124.651 246.284ZM125.779 241.772V246.392C125.779 247.096 125.563 247.656 125.131 248.072C124.707 248.488 124.115 248.696 123.355 248.696C122.587 248.696 121.991 248.488 121.567 248.072C121.143 247.656 120.931 247.096 120.931 246.392V241.772C120.931 241.068 121.143 240.508 121.567 240.092C121.991 239.668 122.587 239.456 123.355 239.456C124.115 239.456 124.707 239.668 125.131 240.092C125.563 240.508 125.779 241.068 125.779 241.772ZM130.128 246.284V241.88C130.128 241.432 130.016 241.084 129.792 240.836C129.568 240.588 129.248 240.464 128.832 240.464C128.4 240.464 128.076 240.588 127.86 240.836C127.644 241.084 127.536 241.432 127.536 241.88V246.284C127.536 246.74 127.644 247.088 127.86 247.328C128.076 247.568 128.4 247.688 128.832 247.688C129.248 247.688 129.568 247.568 129.792 247.328C130.016 247.088 130.128 246.74 130.128 246.284ZM131.256 241.772V246.392C131.256 247.096 131.04 247.656 130.608 248.072C130.184 248.488 129.592 248.696 128.832 248.696C128.064 248.696 127.468 248.488 127.044 248.072C126.62 247.656 126.408 247.096 126.408 246.392V241.772C126.408 241.068 126.62 240.508 127.044 240.092C127.468 239.668 128.064 239.456 128.832 239.456C129.592 239.456 130.184 239.668 130.608 240.092C131.04 240.508 131.256 241.068 131.256 241.772ZM135.604 246.284V241.88C135.604 241.432 135.492 241.084 135.268 240.836C135.044 240.588 134.724 240.464 134.308 240.464C133.876 240.464 133.552 240.588 133.336 240.836C133.12 241.084 133.012 241.432 133.012 241.88V246.284C133.012 246.74 133.12 247.088 133.336 247.328C133.552 247.568 133.876 247.688 134.308 247.688C134.724 247.688 135.044 247.568 135.268 247.328C135.492 247.088 135.604 246.74 135.604 246.284ZM136.732 241.772V246.392C136.732 247.096 136.516 247.656 136.084 248.072C135.66 248.488 135.068 248.696 134.308 248.696C133.54 248.696 132.944 248.488 132.52 248.072C132.096 247.656 131.884 247.096 131.884 246.392V241.772C131.884 241.068 132.096 240.508 132.52 240.092C132.944 239.668 133.54 239.456 134.308 239.456C135.068 239.456 135.66 239.668 136.084 240.092C136.516 240.508 136.732 241.068 136.732 241.772ZM142.773 242.384C142.773 243.296 142.525 243.996 142.029 244.484C141.541 244.964 140.849 245.204 139.953 245.204H138.597V248.576H137.469V239.564H139.953C140.849 239.564 141.541 239.812 142.029 240.308C142.525 240.796 142.773 241.488 142.773 242.384ZM141.645 242.384C141.645 241.712 141.481 241.244 141.153 240.98C140.833 240.716 140.393 240.584 139.833 240.584H138.597V244.196H139.833C140.393 244.196 140.833 244.064 141.153 243.8C141.481 243.536 141.645 243.064 141.645 242.384ZM148.338 248.36V249.368H143.262V248.36H148.338ZM149.616 244.592L149.064 243.68C150.048 243.488 150.928 243.104 151.704 242.528C152.488 241.952 153.06 241.228 153.42 240.356H149.508V239.336H158.304V240.356H154.62C154.572 240.5 154.52 240.64 154.464 240.776C154.408 240.904 154.348 241.028 154.284 241.148C154.836 241.716 155.504 242.196 156.288 242.588C157.08 242.972 157.904 243.24 158.76 243.392L158.256 244.316C157.416 244.148 156.592 243.86 155.784 243.452C154.984 243.044 154.296 242.564 153.72 242.012C153.224 242.66 152.616 243.204 151.896 243.644C151.176 244.084 150.416 244.4 149.616 244.592ZM158.868 245.66V246.668H154.476V249.596H153.348V246.668H148.944V245.66H158.868ZM160.604 241.88V242.336C160.604 242.816 160.756 243.228 161.06 243.572C161.372 243.908 161.784 244.076 162.296 244.076C162.8 244.076 163.208 243.908 163.52 243.572C163.832 243.228 163.988 242.816 163.988 242.336V241.88C163.988 241.4 163.832 240.988 163.52 240.644C163.208 240.3 162.8 240.128 162.296 240.128C161.784 240.128 161.372 240.3 161.06 240.644C160.756 240.988 160.604 241.4 160.604 241.88ZM159.476 242.336V241.88C159.476 241.488 159.544 241.124 159.68 240.788C159.824 240.452 160.024 240.16 160.28 239.912C160.528 239.664 160.824 239.472 161.168 239.336C161.512 239.192 161.888 239.12 162.296 239.12C162.688 239.12 163.056 239.192 163.4 239.336C163.744 239.472 164.044 239.664 164.3 239.912C164.548 240.16 164.744 240.452 164.888 240.788C165.04 241.124 165.116 241.488 165.116 241.88V242.336C165.116 242.736 165.04 243.104 164.888 243.44C164.744 243.776 164.548 244.068 164.3 244.316C164.044 244.556 163.744 244.748 163.4 244.892C163.056 245.028 162.688 245.096 162.296 245.096C161.888 245.096 161.512 245.028 161.168 244.892C160.824 244.748 160.528 244.556 160.28 244.316C160.024 244.068 159.824 243.776 159.68 243.44C159.544 243.104 159.476 242.736 159.476 242.336ZM168.728 248.36V249.368H160.04V246.104H161.168V248.36H168.728ZM168.5 239.12V246.956H167.372V239.12H168.5ZM176.321 249.596H172.709C171.861 249.596 171.197 249.412 170.717 249.044C170.245 248.684 170.009 248.196 170.009 247.58C170.009 246.956 170.245 246.46 170.717 246.092C171.197 245.724 171.861 245.54 172.709 245.54H176.321C177.161 245.54 177.821 245.724 178.301 246.092C178.789 246.46 179.033 246.956 179.033 247.58C179.033 248.196 178.789 248.684 178.301 249.044C177.821 249.412 177.161 249.596 176.321 249.596ZM172.709 248.576H176.321C176.825 248.576 177.205 248.484 177.461 248.3C177.717 248.124 177.845 247.884 177.845 247.58C177.845 247.268 177.717 247.02 177.461 246.836C177.205 246.652 176.825 246.56 176.321 246.56H172.709C172.253 246.56 171.885 246.652 171.605 246.836C171.325 247.02 171.185 247.268 171.185 247.58C171.185 247.884 171.313 248.124 171.569 248.3C171.825 248.484 172.205 248.576 172.709 248.576ZM174.293 243.512H179.477V244.532H169.553V243.512H173.165V241.652H174.293V243.512ZM178.913 242.84H177.785V240.356H170.117V239.336H178.913V242.84ZM189.338 248.36V249.368H180.422V246.62H188.09V245.924H180.422V244.916H189.218V247.616H181.55V248.36H189.338ZM179.858 243.176H189.782V244.184H179.858V243.176ZM182.342 241.544H187.19C187.47 241.544 187.71 241.484 187.91 241.364C188.11 241.236 188.21 241.06 188.21 240.836C188.21 240.612 188.11 240.436 187.91 240.308C187.71 240.18 187.47 240.116 187.19 240.116H182.342C182.054 240.116 181.83 240.18 181.67 240.308C181.518 240.436 181.442 240.612 181.442 240.836C181.442 241.06 181.518 241.236 181.67 241.364C181.83 241.484 182.054 241.544 182.342 241.544ZM182.342 239.12H187.19C187.814 239.12 188.326 239.268 188.726 239.564C189.134 239.852 189.338 240.276 189.338 240.836C189.338 241.404 189.134 241.832 188.726 242.12C188.326 242.4 187.814 242.54 187.19 242.54H182.342C181.718 242.54 181.222 242.4 180.854 242.12C180.494 241.832 180.314 241.404 180.314 240.836C180.314 240.276 180.494 239.852 180.854 239.564C181.222 239.268 181.718 239.12 182.342 239.12ZM195.478 248.36V249.368H190.402V248.36H195.478ZM203.98 239.12H205.108V241.484H206.572V242.504H205.108V245H203.98V239.12ZM205.228 245.54V246.536H201.712C201.664 246.624 201.612 246.708 201.556 246.788C201.5 246.868 201.444 246.944 201.388 247.016C201.924 247.432 202.576 247.756 203.344 247.988C204.112 248.22 204.872 248.372 205.624 248.444L205.204 249.368C204.804 249.32 204.4 249.248 203.992 249.152C203.592 249.056 203.2 248.936 202.816 248.792C202.424 248.656 202.052 248.496 201.7 248.312C201.348 248.128 201.032 247.928 200.752 247.712C200.216 248.2 199.604 248.58 198.916 248.852C198.236 249.132 197.548 249.304 196.852 249.368L196.372 248.444C197.22 248.372 198.008 248.18 198.736 247.868C199.472 247.548 200.052 247.104 200.476 246.536H196.768V245.54H205.228ZM196.936 245.096L196.084 244.316C196.844 243.98 197.484 243.512 198.004 242.912C198.532 242.304 198.868 241.64 199.012 240.92H196.54V239.9H198.964V238.772H200.092V239.9H202.528V240.92H200.152C200.128 241.048 200.1 241.176 200.068 241.304C200.036 241.432 200 241.556 199.96 241.676C200.296 242.18 200.732 242.632 201.268 243.032C201.812 243.424 202.384 243.724 202.984 243.932L202.348 244.82C201.82 244.612 201.296 244.32 200.776 243.944C200.256 243.568 199.824 243.164 199.48 242.732C199.176 243.244 198.804 243.708 198.364 244.124C197.924 244.532 197.448 244.856 196.936 245.096ZM206.917 242.9L206.389 241.976C206.917 241.912 207.421 241.812 207.901 241.676C208.381 241.54 208.821 241.356 209.221 241.124C209.613 240.9 209.957 240.624 210.253 240.296C210.549 239.96 210.777 239.568 210.937 239.12L212.101 239.288C212.053 239.416 211.997 239.54 211.933 239.66C211.877 239.78 211.821 239.892 211.765 239.996C212.341 240.476 213.025 240.872 213.817 241.184C214.617 241.496 215.449 241.708 216.313 241.82L215.845 242.732C214.981 242.604 214.129 242.38 213.289 242.06C212.457 241.732 211.745 241.328 211.153 240.848C210.641 241.424 210.017 241.884 209.281 242.228C208.553 242.564 207.765 242.788 206.917 242.9ZM215.749 245.204V249.368H206.953V245.204H208.081V246.224H214.621V245.204H215.749ZM208.081 248.372H214.621V247.22H208.081V248.372ZM206.389 243.524H216.313V244.532H206.389V243.524ZM225.946 239.12V249.488H224.818V239.12H225.946ZM217.15 249.032V239.336H218.278V248.012H223.69V249.032H217.15ZM233.766 249.032H227.454V239.336H233.094V240.356H228.582V248.012H233.766V249.032ZM236.022 244.268V249.488H234.894V239.12H236.022V243.26H237.486V244.268H236.022ZM238.899 248.924H237.543V247.58H238.899V248.924Z" fill="#FFECA9"/>
</svg>
