<svg width="338" height="69" viewBox="0 0 338 69" fill="none" xmlns="http://www.w3.org/2000/svg">
<g filter="url(#filter0_d_4642_37711)">
<rect x="1.13281" y="1" width="335" height="62" rx="31" fill="url(#paint0_linear_4642_37711)" shape-rendering="crispEdges"/>
<rect x="1.13281" y="1" width="335" height="62" rx="31" stroke="url(#paint1_linear_4642_37711)" shape-rendering="crispEdges"/>
<path d="M77.2888 39.06H74.6488V26.3H73.1488V23.86H77.2888V39.06ZM80.2443 39.06V35.48C80.2443 34.6667 80.3643 34.0067 80.6043 33.5C80.8576 32.9933 81.2843 32.5267 81.8843 32.1L85.0643 29.82C85.3843 29.58 85.6243 29.3 85.7843 28.98C85.9576 28.66 86.0443 28.3 86.0443 27.9C86.0443 27.3133 85.911 26.8667 85.6443 26.56C85.391 26.2533 84.9976 26.1 84.4643 26.1C83.9176 26.1 83.5176 26.26 83.2643 26.58C83.011 26.9 82.8843 27.3667 82.8843 27.98H80.2443C80.2443 26.4733 80.6243 25.38 81.3843 24.7C82.1576 24.0067 83.1843 23.66 84.4643 23.66C85.731 23.66 86.751 24 87.5243 24.68C88.311 25.36 88.7043 26.4333 88.7043 27.9C88.7043 28.82 88.5376 29.6067 88.2043 30.26C87.8843 30.9 87.4043 31.44 86.7643 31.88L83.7243 33.98C83.431 34.18 83.211 34.4067 83.0643 34.66C82.931 34.9133 82.8643 35.2267 82.8643 35.6V36.64H88.7043V39.06H80.2443ZM91.481 35.28V33.42H105.861V37.84H94.121V38.6H106.241V40.48H91.481V36.02H103.241V35.28H91.481ZM94.401 23.2H97.221C98.381 23.2 99.281 23.4333 99.921 23.9C100.561 24.3667 100.881 24.9933 100.881 25.78C100.881 26.58 100.561 27.2133 99.921 27.68C99.281 28.1467 98.381 28.38 97.221 28.38H94.401C93.241 28.38 92.341 28.1467 91.701 27.68C91.061 27.2133 90.741 26.58 90.741 25.78C90.741 24.9933 91.061 24.3667 91.701 23.9C92.341 23.4333 93.241 23.2 94.401 23.2ZM97.221 25.12H94.401C94.0143 25.12 93.7277 25.18 93.541 25.3C93.3677 25.42 93.281 25.58 93.281 25.78C93.281 25.9933 93.3677 26.1667 93.541 26.3C93.7277 26.42 94.0143 26.48 94.401 26.48H97.221C97.581 26.48 97.8543 26.42 98.041 26.3C98.241 26.1667 98.341 25.9933 98.341 25.78C98.341 25.58 98.241 25.42 98.041 25.3C97.8543 25.18 97.581 25.12 97.221 25.12ZM90.261 30.8V28.9H101.621V30.8H96.301V33.02H93.641V30.8H90.261ZM99.261 32.96V31.16H103.221V23.2H105.861V32.96H99.261ZM116.996 39.06H114.356V26.3H112.856V23.86H116.996V39.06ZM124.091 31.46C124.571 31.46 124.951 31.3333 125.231 31.08C125.525 30.8133 125.671 30.44 125.671 29.96V27.7C125.671 27.1933 125.531 26.8 125.251 26.52C124.985 26.24 124.598 26.1 124.091 26.1C123.571 26.1 123.178 26.24 122.911 26.52C122.645 26.8 122.511 27.1933 122.511 27.7V29.74C122.511 30.3 122.645 30.7267 122.911 31.02C123.178 31.3133 123.571 31.46 124.091 31.46ZM123.811 33.9C122.531 33.9 121.551 33.56 120.871 32.88C120.191 32.2 119.851 31.26 119.851 30.06V27.52C119.851 26.3067 120.211 25.36 120.931 24.68C121.665 24 122.718 23.66 124.091 23.66C125.451 23.66 126.491 24 127.211 24.68C127.945 25.36 128.311 26.3067 128.311 27.52V35.32C128.311 36.5867 127.931 37.5533 127.171 38.22C126.425 38.9 125.398 39.24 124.091 39.24C122.811 39.24 121.811 38.9133 121.091 38.26C120.371 37.6067 119.991 36.66 119.951 35.42H122.571C122.598 35.9267 122.731 36.2867 122.971 36.5C123.211 36.7133 123.585 36.82 124.091 36.82C124.598 36.82 124.985 36.68 125.251 36.4C125.531 36.12 125.671 35.7 125.671 35.14V33.16C125.471 33.4 125.198 33.5867 124.851 33.72C124.518 33.84 124.171 33.9 123.811 33.9ZM132.788 27.48C132.788 28.0933 132.981 28.5867 133.368 28.96C133.768 29.3333 134.275 29.52 134.888 29.52C135.488 29.52 135.995 29.3333 136.408 28.96C136.821 28.5867 137.028 28.0933 137.028 27.48C137.028 26.88 136.821 26.3933 136.408 26.02C135.995 25.6333 135.488 25.44 134.888 25.44C134.275 25.44 133.768 25.6333 133.368 26.02C132.981 26.3933 132.788 26.88 132.788 27.48ZM130.168 27.48C130.168 26.8667 130.281 26.3 130.508 25.78C130.748 25.2467 131.081 24.7933 131.508 24.42C131.921 24.0333 132.415 23.7333 132.988 23.52C133.575 23.3067 134.208 23.2 134.888 23.2C135.568 23.2 136.195 23.3067 136.768 23.52C137.355 23.7333 137.861 24.0333 138.288 24.42C138.715 24.7933 139.048 25.2467 139.288 25.78C139.528 26.3 139.648 26.8667 139.648 27.48C139.648 28.1067 139.528 28.68 139.288 29.2C139.048 29.72 138.715 30.1667 138.288 30.54C137.861 30.9267 137.355 31.2267 136.768 31.44C136.195 31.64 135.568 31.74 134.888 31.74C134.208 31.74 133.575 31.64 132.988 31.44C132.415 31.2267 131.921 30.9267 131.508 30.54C131.081 30.1667 130.748 29.72 130.508 29.2C130.281 28.68 130.168 28.1067 130.168 27.48ZM145.948 38.48V40.48H131.188V35.46H142.928V34.42H131.188V32.4H145.568V37.42H133.848V38.48H145.948ZM145.568 23.2V31.72H142.928V23.2H145.568ZM168.563 38.42V40.38H153.523V35.7H165.723V34.9H153.523V32.96H159.503V32H152.683V30H169.223V32H162.163V32.96H168.383V37.64H156.183V38.42H168.563ZM153.763 29.54L152.963 27.74C154.163 27.6867 155.35 27.5133 156.523 27.22C157.696 26.9133 158.73 26.4667 159.623 25.88H153.523V23.86H159.463V22.54H162.283V23.86H168.383V25.88H162.843C162.763 25.96 162.683 26.04 162.603 26.12C162.536 26.2 162.463 26.28 162.383 26.36C163.33 26.76 164.37 27.0467 165.503 27.22C166.636 27.3933 167.783 27.4933 168.943 27.52L168.243 29.36C167.63 29.3467 166.983 29.3067 166.303 29.24C165.636 29.16 164.97 29.0533 164.303 28.92C163.636 28.7733 162.983 28.6 162.343 28.4C161.716 28.2 161.143 27.96 160.623 27.68C159.596 28.28 158.476 28.7333 157.263 29.04C156.05 29.3333 154.883 29.5 153.763 29.54ZM171.731 36.72V34.34H186.291V40.66H183.651V36.72H171.731ZM174.451 23.2H177.111C177.111 23.8267 177.071 24.44 176.991 25.04C176.924 25.64 176.824 26.2267 176.691 26.8C177.251 27.68 177.971 28.52 178.851 29.32C179.744 30.1067 180.651 30.76 181.571 31.28C181.437 31.44 181.304 31.6067 181.171 31.78C181.037 31.94 180.904 32.1 180.771 32.26C180.651 32.42 180.524 32.5867 180.391 32.76C180.257 32.92 180.124 33.08 179.991 33.24C179.231 32.8133 178.477 32.2667 177.731 31.6C176.984 30.9333 176.311 30.24 175.711 29.52C175.311 30.36 174.831 31.1267 174.271 31.82C173.711 32.5133 173.077 33.1133 172.371 33.62C172.197 33.4867 172.024 33.3533 171.851 33.22C171.691 33.0733 171.531 32.9267 171.371 32.78C171.211 32.6333 171.044 32.4933 170.871 32.36C170.711 32.2133 170.551 32.0667 170.391 31.92C171.697 30.9867 172.697 29.7867 173.391 28.32C174.097 26.84 174.451 25.1333 174.451 23.2ZM183.651 26.16V23.2H186.291V33.48H183.651V28.52H179.691V26.16H183.651ZM195.646 39.96C195.246 39.8 194.852 39.64 194.466 39.48C194.079 39.3333 193.692 39.18 193.306 39.02C193.839 38.1267 194.292 37.2333 194.666 36.34C195.052 35.4467 195.372 34.5267 195.626 33.58C195.879 32.6333 196.066 31.6533 196.186 30.64C196.319 29.6133 196.399 28.5267 196.426 27.38H194.066V24.98H196.406V22.54H198.926V24.98H201.626V27.38H198.966C198.939 27.94 198.906 28.4867 198.866 29.02C198.839 29.5533 198.799 30.0733 198.746 30.58C199.092 31.9 199.592 33.2333 200.246 34.58C200.899 35.9267 201.646 37.14 202.486 38.22C202.299 38.3267 202.119 38.4333 201.946 38.54C201.772 38.6467 201.599 38.76 201.426 38.88C201.239 38.9867 201.059 39.0933 200.886 39.2C200.712 39.32 200.539 39.4333 200.366 39.54C199.886 38.8467 199.439 38.1 199.026 37.3C198.612 36.4867 198.239 35.6667 197.906 34.84C197.639 35.76 197.312 36.6467 196.926 37.5C196.552 38.34 196.126 39.16 195.646 39.96ZM209.006 40.48H206.466V23.2H209.006V40.48ZM205.146 23.28V40.28H202.646V32.4H200.366V29.98H202.646V23.28H205.146ZM227.113 35.98H224.453V32.48H212.253V30.06H224.453V25.92H212.253V23.48H227.113V35.98ZM227.953 37.38V39.82H211.413V37.38H227.953ZM230.181 35.42V33.26C230.181 31.8333 230.608 30.7267 231.461 29.94C232.328 29.14 233.435 28.74 234.781 28.74C235.435 28.74 236.041 28.8467 236.601 29.06C237.175 29.26 237.661 29.5533 238.061 29.94C238.475 30.3267 238.795 30.8 239.021 31.36C239.261 31.92 239.381 32.5533 239.381 33.26V35.42C239.381 36.86 238.941 37.9667 238.061 38.74C237.195 39.5133 236.101 39.9 234.781 39.9C233.435 39.9 232.328 39.5133 231.461 38.74C230.608 37.9667 230.181 36.86 230.181 35.42ZM244.661 32.24V40.48H242.001V23.2H244.661V29.7H246.901V32.24H244.661ZM239.881 27.38H229.701V24.98H233.381V22.54H236.061V24.98H239.881V27.38ZM232.721 33.26V35.42C232.721 36.1267 232.901 36.6667 233.261 37.04C233.635 37.4 234.141 37.58 234.781 37.58C235.408 37.58 235.908 37.4 236.281 37.04C236.655 36.6667 236.841 36.1267 236.841 35.42V33.26C236.841 32.5533 236.655 32.0133 236.281 31.64C235.908 31.2667 235.408 31.08 234.781 31.08C234.141 31.08 233.635 31.2667 233.261 31.64C232.901 32.0133 232.721 32.5533 232.721 33.26ZM263.029 23.2V40.48H260.389V23.2H263.029ZM248.189 23.48H256.649V27.58C256.649 28.8867 256.476 30.14 256.129 31.34C255.796 32.5267 255.309 33.64 254.669 34.68C254.029 35.72 253.242 36.6733 252.309 37.54C251.376 38.3933 250.322 39.1267 249.149 39.74L247.329 37.82C248.382 37.3133 249.316 36.7067 250.129 36C250.956 35.28 251.656 34.4933 252.229 33.64C252.802 32.7867 253.236 31.8733 253.529 30.9C253.836 29.9133 253.989 28.8933 253.989 27.84V25.9H248.189V23.48Z" fill="white"/>
</g>
<defs>
<filter id="filter0_d_4642_37711" x="0.632812" y="0.5" width="337" height="68" filterUnits="userSpaceOnUse" color-interpolation-filters="sRGB">
<feFlood flood-opacity="0" result="BackgroundImageFix"/>
<feColorMatrix in="SourceAlpha" type="matrix" values="0 0 0 0 0 0 0 0 0 0 0 0 0 0 0 0 0 0 127 0" result="hardAlpha"/>
<feOffset dx="1" dy="5"/>
<feComposite in2="hardAlpha" operator="out"/>
<feColorMatrix type="matrix" values="0 0 0 0 0.4875 0 0 0 0 0.306211 0 0 0 0 0.0609375 0 0 0 1 0"/>
<feBlend mode="normal" in2="BackgroundImageFix" result="effect1_dropShadow_4642_37711"/>
<feBlend mode="normal" in="SourceGraphic" in2="effect1_dropShadow_4642_37711" result="shape"/>
</filter>
<linearGradient id="paint0_linear_4642_37711" x1="47.1395" y1="1" x2="302.673" y2="58.878" gradientUnits="userSpaceOnUse">
<stop stop-color="#CBAC64"/>
<stop offset="1" stop-color="#BC8641"/>
</linearGradient>
<linearGradient id="paint1_linear_4642_37711" x1="1.13281" y1="32" x2="336.133" y2="32" gradientUnits="userSpaceOnUse">
<stop stop-color="#FFF5B1"/>
<stop offset="0.49" stop-color="#C39851"/>
<stop offset="1" stop-color="#FFF5B1"/>
</linearGradient>
</defs>
</svg>
