<svg width="247" height="122" viewBox="0 0 247 122" fill="none" xmlns="http://www.w3.org/2000/svg">
<path d="M3.61406 32.968V31.048H25.5981C27.1661 31.048 27.5181 31.784 27.5181 32.712C27.5181 32.904 27.4861 33.128 27.4541 33.352L24.5741 49.992H19.8701V48.68L21.0541 41.608H3.45406V39.688H21.3741L22.3981 33.704C22.4301 33.64 22.4301 33.576 22.4301 33.512C22.4301 33.16 22.2061 32.968 21.7261 32.968H3.61406ZM0.958063 55.112V53.192H29.6301V55.112H0.958063ZM49.8121 42.12V44.04H38.2921L36.2121 52.36C36.1801 52.52 36.1481 52.68 36.1481 52.776C36.1481 53 36.2121 53.192 36.8201 53.192H49.9721V55.112H32.9481C31.1881 55.112 30.9961 54.216 30.9961 53.48C30.9961 53.256 31.0281 53 31.0921 52.712L33.2681 44.04H31.0921V42.12H42.4521L44.4681 33.8C44.5001 33.64 44.5321 33.48 44.5321 33.384C44.5321 33.16 44.4681 32.968 43.8601 32.968H31.7321V31.048H47.7321C49.4921 31.048 49.6841 31.944 49.6841 32.68C49.6841 32.904 49.6521 33.16 49.5881 33.448L47.4761 42.12H49.8121ZM57.5241 30.76V55.432H52.3721V30.76H57.5241ZM84.2811 49.032L75.6411 34.408C75.4811 34.152 75.4811 34.056 75.2571 34.056C75.0971 34.056 74.9691 34.216 74.8091 34.504L67.2571 49.032H61.5931L70.0411 32.84C70.7131 31.656 71.7691 30.728 73.8171 30.728C75.7691 30.728 76.6011 31.56 77.3371 32.68L87.0331 49.032H84.2811ZM59.8331 55.112V53.192H88.5051V55.112H59.8331ZM108.079 55.112H91.8231C90.0631 55.112 89.9031 54.216 89.9031 53.352C89.9031 53.16 89.9351 52.936 89.9671 52.712L93.1031 32.968H90.2551V31.048H108.079V55.112ZM115.759 30.76V41.416H118.959V43.336H115.759V55.432H110.607V30.76H115.759ZM102.927 32.968H98.0311L95.0871 52.36C95.0551 52.488 95.0551 52.584 95.0551 52.68C95.0551 53.032 95.0871 53.192 95.6951 53.192H102.927V32.968ZM144.125 49.032L135.485 34.408C135.325 34.152 135.325 34.056 135.101 34.056C134.941 34.056 134.813 34.216 134.653 34.504L127.101 49.032H121.437L129.885 32.84C130.557 31.656 131.613 30.728 133.661 30.728C135.613 30.728 136.445 31.56 137.181 32.68L146.877 49.032H144.125ZM119.677 55.112V53.192H148.349V55.112H119.677ZM176.868 43.08C176.868 52.392 173.316 55.432 167.78 55.432C162.244 55.432 158.692 52.392 158.692 43.08C158.692 33.768 162.244 30.728 167.78 30.728C173.316 30.728 176.868 33.768 176.868 43.08ZM171.716 43.08C171.716 34.536 170.212 32.648 167.78 32.648C165.348 32.648 163.844 34.536 163.844 43.08C163.844 51.624 165.348 53.512 167.78 53.512C170.212 53.512 171.716 51.624 171.716 43.08ZM184.868 30.76V55.432H179.716V30.76H184.868ZM205.993 43.08C205.993 52.392 202.441 55.432 196.905 55.432C191.369 55.432 187.817 52.392 187.817 43.08C187.817 33.768 191.369 30.728 196.905 30.728C202.441 30.728 205.993 33.768 205.993 43.08ZM200.841 43.08C200.841 34.536 199.337 32.648 196.905 32.648C194.473 32.648 192.969 34.536 192.969 43.08C192.969 51.624 194.473 53.512 196.905 53.512C199.337 53.512 200.841 51.624 200.841 43.08ZM213.353 30.76V36.776H216.553V38.696H213.353V45.576H216.553V47.496H213.353V55.432H208.201V30.76H213.353ZM219.223 53.8L229.175 33.704C229.271 33.48 229.335 33.32 229.335 33.224C229.335 33.128 229.367 32.968 228.887 32.968H218.263V31.048H233.303C234.199 31.048 234.711 31.208 234.839 31.496C234.967 31.816 235.031 32.072 235.031 32.264C235.031 32.616 234.903 33.064 234.679 33.544L224.119 55.112H219.223V53.8ZM244.087 30.76V55.432H238.935V30.76H244.087Z" fill="#FFECA9"/>
<path d="M45.7995 2.1V8.76H46.8795V2.1H49.7395V17.52H46.8795V9.96H45.7995V17.52H42.9395V2.1H45.7995ZM36.1795 16.12H42.3395V17.32H34.1795C33.0595 17.32 32.9995 16.58 32.9995 16.18C32.9995 16.08 32.9995 15.96 33.0195 15.82L34.5795 2.28H37.0995V3.1L35.7995 15.6C35.7795 15.68 35.7795 15.74 35.7795 15.8C35.7795 16.02 35.7995 16.12 36.1795 16.12ZM57.4685 8.96L63.2285 2.8C63.7085 2.26 64.5085 2.08 65.3085 2.08C66.0285 2.08 66.7685 2.28 67.2485 2.74L73.7685 8.96H71.7485L66.6885 4.12C66.5085 3.98 66.3485 3.9 66.2085 3.9C66.0485 3.9 65.8685 3.94 65.7085 4.12L61.1685 8.96H57.4685ZM56.5685 11.62V10.42H63.9085V7.16H67.1285V10.42H74.4885V11.62H56.5685ZM61.2085 16.32H73.3685V17.52H58.6285C57.5885 17.52 57.4285 16.96 57.4285 16.58C57.4285 16.4 57.4685 16.22 57.5485 16.02L59.0085 12.56H61.9485V13.38L60.9085 15.8C60.8685 15.9 60.8485 16 60.8485 16.06C60.8485 16.24 60.9685 16.32 61.2085 16.32ZM86.9223 6.36C86.9223 9.48 84.7823 10.64 81.2423 10.64C77.7023 10.64 75.5623 9.48 75.5623 6.36C75.5623 3.24 77.7023 2.08 81.2423 2.08C84.7823 2.08 86.9223 3.24 86.9223 6.36ZM91.5223 2.1V6.66H93.5223V7.86H91.5223V14.22H88.3023V2.1H91.5223ZM75.7023 16.02L77.1623 11.96H80.1023V12.78L79.0023 15.8C78.9823 15.9 78.9623 15.98 78.9623 16.04C78.9623 16.22 79.0823 16.32 79.3023 16.32H91.7223V17.52H76.8623C75.8823 17.52 75.5823 17 75.5823 16.58C75.5823 16.4 75.6223 16.22 75.7023 16.02ZM83.7023 6.36C83.7023 4.3 82.8823 3.28 81.2423 3.28C79.6023 3.28 78.7823 4.3 78.7823 6.36C78.7823 8.42 79.6023 9.44 81.2423 9.44C82.8823 9.44 83.7023 8.42 83.7023 6.36ZM107.391 2.1V17.52H104.531V10.36H103.651C103.551 16.04 101.791 17.52 99.0109 17.52C96.1309 17.52 94.3709 15.92 94.3709 9.8C94.3709 3.68 96.1309 2.08 99.0109 2.08C101.791 2.08 103.551 3.58 103.651 9.16H104.531V2.1H107.391ZM110.931 2.1V17.52H108.071V2.1H110.931ZM100.851 9.8C100.851 4.52 100.051 3.28 99.0109 3.28C97.9709 3.28 97.1709 4.52 97.1709 9.8C97.1709 15.08 97.9709 16.32 99.0109 16.32C100.051 16.32 100.851 15.08 100.851 9.8ZM122.909 17.32L119.149 5.5C119.109 5.4 119.049 5.36 118.969 5.36C118.889 5.36 118.829 5.4 118.809 5.5L115.549 17.32H112.149L116.229 3.38C116.469 2.52 117.309 2.06 118.169 2.06C119.029 2.06 119.809 2.46 120.109 3.34L124.649 17.32H122.909ZM122.569 9.96V8.76H125.909V2.1H129.129V17.52H125.909V9.96H122.569ZM152.823 13.3V14.5H140.623L140.183 15.8C140.163 15.9 140.143 15.98 140.143 16.04C140.143 16.22 140.263 16.32 140.483 16.32H152.923V17.52H138.063C137.083 17.52 136.803 16.98 136.803 16.56C136.803 16.4 136.843 16.22 136.903 16.02L137.423 14.5H136.903V13.3H149.003L149.403 12C149.423 11.9 149.443 11.82 149.443 11.76C149.443 11.58 149.323 11.48 149.103 11.48H137.303V10.28H151.523C152.503 10.28 152.783 10.82 152.783 11.24C152.783 11.4 152.743 11.58 152.683 11.78L152.203 13.3H152.823ZM147.923 2.28V3.48H146.803L146.243 7.86H148.123V9.06H135.983V7.86H137.543V3.48H136.183V2.28H147.923ZM152.723 2.1V9.22H149.503V7.42H147.063V6.22H149.503V5.24H147.063V4.04H149.503V2.1H152.723ZM140.763 3.48V7.86H143.083L143.643 3.48H140.763ZM153.986 5.58V4.38H166.406V5.58H162.086L166.446 17.32H164.706L161.086 7.62C161.026 7.44 160.926 7.36 160.766 7.36C160.626 7.36 160.526 7.44 160.466 7.62L157.346 17.32H153.946L157.866 5.58H153.986ZM164.666 8.42V7.22H167.706V2.1H170.926V17.52H167.706V12.12H164.866V10.92H167.706V8.42H164.666ZM156.086 2.98V1.78H164.306V2.98H156.086ZM172.189 3.48V2.28H184.609V3.48H180.229C180.289 3.58 180.269 3.66 180.329 3.76L184.649 17.32H182.909L179.289 5.74C179.229 5.56 179.129 5.48 178.969 5.48C178.829 5.48 178.729 5.56 178.669 5.74L175.549 17.32H172.149L175.969 3.88C176.029 3.74 176.049 3.62 176.109 3.48H172.189ZM189.129 2.1V17.52H185.909V2.1H189.129ZM190.572 11.52V10.32H208.492V11.52H190.572ZM195.212 16.32H207.372V17.52H192.632C191.592 17.52 191.432 16.96 191.432 16.58C191.432 16.4 191.472 16.22 191.552 16.02L193.012 12.56H195.952V13.38L194.912 15.8C194.872 15.9 194.852 16 194.852 16.06C194.852 16.24 194.972 16.32 195.212 16.32ZM195.112 7.56H207.372V8.76H192.532C191.492 8.76 191.352 8.2 191.352 7.8C191.352 7.64 191.392 7.46 191.452 7.26L193.212 2.28H196.152V3.1L194.752 7.04C194.712 7.14 194.692 7.22 194.692 7.28C194.692 7.46 194.832 7.56 195.112 7.56Z" fill="white"/>
<path d="M54.7777 95.672H53.4617V90.758H49.9057V95.672H48.5897V85.158H49.9057V89.568H53.4617V85.158H54.7777V95.672ZM57.4236 96.078H55.8416V94.51H57.4236V96.078ZM64.6058 88.448C64.6058 89.512 64.3165 90.3287 63.7378 90.898C63.1685 91.458 62.3611 91.738 61.3158 91.738H59.7338V95.672H58.4178V85.158H61.3158C62.3611 85.158 63.1685 85.4473 63.7378 86.026C64.3165 86.5953 64.6058 87.4027 64.6058 88.448ZM63.2898 88.448C63.2898 87.664 63.0985 87.118 62.7158 86.81C62.3425 86.502 61.8291 86.348 61.1758 86.348H59.7338V90.562H61.1758C61.8291 90.562 62.3425 90.408 62.7158 90.1C63.0985 89.792 63.2898 89.2413 63.2898 88.448ZM64.8601 93.194V90.296C64.8601 89.4467 65.1261 88.798 65.6581 88.35C66.1901 87.8927 66.8855 87.664 67.7441 87.664C68.6028 87.664 69.2981 87.8927 69.8301 88.35C70.3715 88.798 70.6421 89.4467 70.6421 90.296V93.194C70.6421 94.0433 70.3715 94.692 69.8301 95.14C69.2981 95.588 68.6028 95.812 67.7441 95.812C66.8855 95.812 66.1901 95.588 65.6581 95.14C65.1261 94.692 64.8601 94.0433 64.8601 93.194ZM66.1761 90.492V92.998C66.1761 93.558 66.3021 93.9733 66.5541 94.244C66.8155 94.5053 67.2121 94.636 67.7441 94.636C68.2761 94.636 68.6728 94.5053 68.9341 94.244C69.1955 93.9733 69.3261 93.558 69.3261 92.998V90.492C69.3261 89.932 69.1955 89.5167 68.9341 89.246C68.6728 88.9753 68.2761 88.84 67.7441 88.84C67.2121 88.84 66.8155 88.9753 66.5541 89.246C66.3021 89.5167 66.1761 89.932 66.1761 90.492ZM71.5819 95.672V87.79H72.8979V95.672H71.5819ZM72.9679 86.614H71.5119V85.158H72.9679V86.614ZM79.6226 90.156V95.672H78.3066V90.296C78.3066 89.8387 78.1806 89.4793 77.9286 89.218C77.6766 88.9567 77.322 88.826 76.8646 88.826C76.398 88.826 76.0153 88.9987 75.7166 89.344C75.4273 89.68 75.2826 90.114 75.2826 90.646V95.672H73.9666V87.79H75.1566L75.2826 88.658C75.4506 88.3687 75.712 88.1307 76.0666 87.944C76.4306 87.7573 76.8273 87.664 77.2566 87.664C77.9753 87.664 78.5493 87.902 78.9786 88.378C79.408 88.8447 79.6226 89.4373 79.6226 90.156ZM80.8967 94.104V88.98H79.9727V87.79H80.8967V85.956L82.2127 85.69V87.79H83.5147V88.98H82.2127V93.852C82.2127 94.188 82.292 94.3887 82.4507 94.454C82.6187 94.5193 82.9313 94.538 83.3887 94.51V95.672C82.6047 95.812 81.9933 95.7653 81.5547 95.532C81.116 95.308 80.8967 94.832 80.8967 94.104ZM91.4289 88.056C91.4289 88.5507 91.3402 89.008 91.1629 89.428C90.9949 89.848 90.7522 90.2073 90.4349 90.506C90.1269 90.814 89.7536 91.052 89.3149 91.22C88.8762 91.388 88.3956 91.472 87.8729 91.472C87.3409 91.472 86.8556 91.388 86.4169 91.22C85.9876 91.052 85.6142 90.814 85.2969 90.506C84.9889 90.2073 84.7462 89.848 84.5689 89.428C84.4009 89.008 84.3169 88.5507 84.3169 88.056C84.3169 87.5707 84.4009 87.118 84.5689 86.698C84.7462 86.278 84.9889 85.9187 85.2969 85.62C85.6142 85.312 85.9876 85.074 86.4169 84.906C86.8556 84.7287 87.3409 84.64 87.8729 84.64C88.3956 84.64 88.8762 84.7287 89.3149 84.906C89.7536 85.074 90.1269 85.312 90.4349 85.62C90.7522 85.9187 90.9949 86.278 91.1629 86.698C91.3402 87.118 91.4289 87.5707 91.4289 88.056ZM94.4529 90.646V96.736H93.1369V84.64H94.4529V89.47H96.1609V90.646H94.4529ZM90.1129 88.056C90.1129 87.44 89.9122 86.9127 89.5109 86.474C89.1096 86.0353 88.5636 85.816 87.8729 85.816C87.1729 85.816 86.6222 86.0353 86.2209 86.474C85.8289 86.9127 85.6329 87.44 85.6329 88.056C85.6329 88.6813 85.8289 89.2133 86.2209 89.652C86.6222 90.0813 87.1729 90.296 87.8729 90.296C88.5636 90.296 89.1096 90.0813 89.5109 89.652C89.9122 89.2133 90.1129 88.6813 90.1129 88.056ZM92.1709 95.014V96.204H83.9249V95.014H87.1869V92.13H88.5029V95.014H92.1709ZM109.353 92.396V96.596H99.6233V92.396H109.353ZM102.773 91.598H102.255C101.854 91.598 101.485 91.5467 101.149 91.444C100.813 91.332 100.519 91.1733 100.267 90.968C100.025 90.7627 99.8333 90.52 99.6933 90.24C99.5533 89.96 99.4833 89.6427 99.4833 89.288C99.4833 88.952 99.5533 88.644 99.6933 88.364C99.8333 88.0747 100.025 87.832 100.267 87.636C100.519 87.4307 100.813 87.272 101.149 87.16C101.485 87.048 101.854 86.992 102.255 86.992H102.773C103.165 86.992 103.529 87.048 103.865 87.16C104.201 87.272 104.495 87.4307 104.747 87.636C104.99 87.832 105.181 88.0747 105.321 88.364C105.471 88.644 105.545 88.952 105.545 89.288C105.545 89.6427 105.471 89.96 105.321 90.24C105.181 90.52 104.99 90.7627 104.747 90.968C104.495 91.1733 104.201 91.332 103.865 91.444C103.529 91.5467 103.165 91.598 102.773 91.598ZM100.939 95.434H108.037V93.558H100.939V95.434ZM111.061 87.594V88.784H109.353V91.836H108.037V84.64H109.353V87.594H111.061ZM106.203 85.298V86.446H98.9653V85.298H101.849V84.234H103.165V85.298H106.203ZM102.255 90.478H102.773C103.165 90.478 103.506 90.3707 103.795 90.156C104.085 89.9413 104.229 89.652 104.229 89.288C104.229 88.9333 104.085 88.644 103.795 88.42C103.506 88.196 103.165 88.084 102.773 88.084H102.255C101.854 88.084 101.509 88.196 101.219 88.42C100.939 88.644 100.799 88.9333 100.799 89.288C100.799 89.652 100.939 89.9413 101.219 90.156C101.509 90.3707 101.854 90.478 102.255 90.478ZM121.725 96.736H120.409V84.64H121.725V96.736ZM114.473 84.892H116.853V88.686C116.853 88.826 116.848 88.966 116.839 89.106C116.839 89.2367 116.839 89.3673 116.839 89.498H117.973V84.696H119.289V96.596H117.973V90.688H116.783C116.699 91.6867 116.526 92.6713 116.265 93.642C116.003 94.6127 115.579 95.5133 114.991 96.344L113.731 95.812C114.104 95.3267 114.407 94.804 114.641 94.244C114.874 93.6747 115.056 93.082 115.187 92.466C115.317 91.8593 115.406 91.2387 115.453 90.604C115.509 89.9693 115.537 89.344 115.537 88.728V86.082H114.473V84.892ZM111.463 84.892H114.095V88.294C114.095 88.9473 114.067 89.61 114.011 90.282C113.964 90.954 113.871 91.6167 113.731 92.27C113.591 92.9233 113.395 93.5627 113.143 94.188C112.891 94.8133 112.569 95.4013 112.177 95.952L110.931 95.42C111.295 94.9347 111.593 94.4073 111.827 93.838C112.069 93.2687 112.261 92.6807 112.401 92.074C112.541 91.4673 112.639 90.8467 112.695 90.212C112.751 89.5773 112.779 88.952 112.779 88.336V86.082H111.463V84.892ZM136.751 93.852H135.435V90.814H126.489V89.638H135.435V86.082H126.489V84.892H136.751V93.852ZM137.409 95.014V96.204H125.831V95.014H137.409ZM145.441 95.014V96.204H138.469V89.764H143.201V86.082H138.469V84.892H144.517V90.954H139.785V95.014H145.441ZM148.731 84.64V96.736H147.415V84.64H148.731ZM161.62 95.014V96.204H150.042V95.014H161.62ZM150.84 91.682L150.042 90.702C150.742 90.45 151.391 90.1233 151.988 89.722C152.595 89.3207 153.127 88.8587 153.584 88.336C154.051 87.8133 154.438 87.2393 154.746 86.614C155.054 85.9887 155.273 85.3307 155.404 84.64L156.706 84.892C156.65 85.2 156.575 85.5033 156.482 85.802C156.398 86.1007 156.295 86.39 156.174 86.67C156.837 87.4913 157.639 88.2147 158.582 88.84C159.534 89.456 160.547 89.904 161.62 90.184L160.934 91.234C159.926 90.9353 158.946 90.4873 157.994 89.89C157.051 89.2833 156.239 88.5973 155.558 87.832C154.998 88.7093 154.303 89.484 153.472 90.156C152.651 90.828 151.773 91.3367 150.84 91.682ZM168.602 84.892V96.204H162.68V84.892H168.602ZM163.996 95.014H167.286V86.082H163.996V95.014ZM172.676 90.646V96.736H171.36V84.64H172.676V89.47H174.384V90.646H172.676ZM185.831 95.014V96.204H174.253V95.014H185.831ZM175.051 91.682L174.253 90.702C174.953 90.45 175.602 90.1233 176.199 89.722C176.806 89.3207 177.338 88.8587 177.795 88.336C178.262 87.8133 178.649 87.2393 178.957 86.614C179.265 85.9887 179.484 85.3307 179.615 84.64L180.917 84.892C180.861 85.2 180.786 85.5033 180.693 85.802C180.609 86.1007 180.506 86.39 180.385 86.67C181.048 87.4913 181.85 88.2147 182.793 88.84C183.745 89.456 184.758 89.904 185.831 90.184L185.145 91.234C184.137 90.9353 183.157 90.4873 182.205 89.89C181.262 89.2833 180.45 88.5973 179.769 87.832C179.209 88.7093 178.514 89.484 177.683 90.156C176.862 90.828 175.984 91.3367 175.051 91.682ZM186.358 96.204V95.014H194.87V96.204H186.358ZM195.836 96.736V84.64H197.152V96.736H195.836ZM193.862 88.056C193.862 88.5507 193.774 89.008 193.596 89.428C193.428 89.848 193.186 90.2073 192.868 90.506C192.56 90.814 192.187 91.052 191.748 91.22C191.31 91.388 190.829 91.472 190.306 91.472C189.774 91.472 189.289 91.388 188.85 91.22C188.421 91.052 188.048 90.814 187.73 90.506C187.422 90.2073 187.18 89.848 187.002 89.428C186.834 89.008 186.75 88.5507 186.75 88.056C186.75 87.5707 186.834 87.118 187.002 86.698C187.18 86.278 187.422 85.9187 187.73 85.62C188.048 85.312 188.421 85.074 188.85 84.906C189.289 84.7287 189.774 84.64 190.306 84.64C190.829 84.64 191.31 84.7287 191.748 84.906C192.187 85.074 192.56 85.312 192.868 85.62C193.186 85.9187 193.428 86.278 193.596 86.698C193.774 87.118 193.862 87.5707 193.862 88.056ZM192.546 88.056C192.546 87.44 192.346 86.9127 191.944 86.474C191.543 86.0353 190.997 85.816 190.306 85.816C189.606 85.816 189.056 86.0353 188.654 86.474C188.262 86.9127 188.066 87.44 188.066 88.056C188.066 88.6813 188.262 89.2133 188.654 89.652C189.056 90.0813 189.606 90.296 190.306 90.296C190.997 90.296 191.543 90.0813 191.944 89.652C192.346 89.2133 192.546 88.6813 192.546 88.056ZM54.567 117.204H47.203V105.892H53.783V107.082H48.519V116.014H54.567V117.204ZM57.199 111.646V117.736H55.883V105.64H57.199V110.47H58.907V111.646H57.199ZM66.4065 117.862H62.5985C61.6091 117.862 60.8345 117.638 60.2745 117.19C59.7145 116.742 59.4345 116.159 59.4345 115.44C59.4345 114.721 59.7145 114.138 60.2745 113.69C60.8345 113.233 61.6091 113.004 62.5985 113.004H66.4065C67.3865 113.004 68.1565 113.233 68.7165 113.69C69.2858 114.138 69.5705 114.721 69.5705 115.44C69.5705 116.159 69.2858 116.742 68.7165 117.19C68.1565 117.638 67.3865 117.862 66.4065 117.862ZM59.0425 108.86C59.0425 108.403 59.1218 107.978 59.2805 107.586C59.4485 107.194 59.6818 106.853 59.9805 106.564C60.2698 106.275 60.6151 106.051 61.0165 105.892C61.4178 105.724 61.8565 105.64 62.3325 105.64C62.7898 105.64 63.2191 105.724 63.6205 105.892C64.0218 106.051 64.3718 106.275 64.6705 106.564C64.9598 106.853 65.1885 107.194 65.3565 107.586C65.5338 107.978 65.6225 108.403 65.6225 108.86C65.6225 109.327 65.5338 109.756 65.3565 110.148C65.1885 110.54 64.9598 110.881 64.6705 111.17C64.3718 111.459 64.0218 111.683 63.6205 111.842C63.2191 112.001 62.7898 112.08 62.3325 112.08C61.8565 112.08 61.4178 112.001 61.0165 111.842C60.6151 111.683 60.2698 111.459 59.9805 111.17C59.6818 110.881 59.4485 110.54 59.2805 110.148C59.1218 109.756 59.0425 109.327 59.0425 108.86ZM62.5985 116.7H66.4065C66.9385 116.7 67.3678 116.588 67.6945 116.364C68.0211 116.14 68.1845 115.832 68.1845 115.44C68.1845 115.048 68.0211 114.74 67.6945 114.516C67.3678 114.283 66.9385 114.166 66.4065 114.166H62.5985C62.0665 114.166 61.6371 114.283 61.3105 114.516C60.9838 114.74 60.8205 115.048 60.8205 115.44C60.8205 115.832 60.9838 116.14 61.3105 116.364C61.6371 116.588 62.0665 116.7 62.5985 116.7ZM69.3045 111.1V112.57H67.9885V105.64H69.3045V107.208H71.0125V108.398H69.3045V109.91H71.0125V111.1H69.3045ZM60.3585 108.86C60.3585 109.42 60.5358 109.901 60.8905 110.302C61.2545 110.703 61.7351 110.904 62.3325 110.904C62.9205 110.904 63.3965 110.703 63.7605 110.302C64.1245 109.901 64.3065 109.42 64.3065 108.86C64.3065 108.3 64.1245 107.819 63.7605 107.418C63.3965 107.017 62.9205 106.816 62.3325 106.816C61.7351 106.816 61.2545 107.017 60.8905 107.418C60.5358 107.819 60.3585 108.3 60.3585 108.86ZM77.6019 110.904C77.6019 111.287 77.5226 111.641 77.3639 111.968C77.2146 112.285 77.0093 112.561 76.7479 112.794C76.4773 113.027 76.1553 113.209 75.7819 113.34C75.4086 113.471 75.0026 113.536 74.5639 113.536C74.1159 113.536 73.7053 113.471 73.3319 113.34C72.9586 113.209 72.6413 113.027 72.3799 112.794C72.1093 112.561 71.8993 112.285 71.7499 111.968C71.6099 111.641 71.5399 111.287 71.5399 110.904C71.5399 110.531 71.6099 110.185 71.7499 109.868C71.8993 109.541 72.1093 109.261 72.3799 109.028C72.6413 108.795 72.9586 108.613 73.3319 108.482C73.7053 108.342 74.1159 108.272 74.5639 108.272C75.0026 108.272 75.4086 108.342 75.7819 108.482C76.1553 108.613 76.4773 108.795 76.7479 109.028C77.0093 109.261 77.2146 109.541 77.3639 109.868C77.5226 110.185 77.6019 110.531 77.6019 110.904ZM81.6759 116.42V117.596H71.6799V114.054H72.9959V116.42H81.6759ZM83.1179 109.406V110.582H81.4099V114.908H80.0939V105.64H81.4099V109.406H83.1179ZM78.2599 106.494V107.656H71.0219V106.494H73.9059V105.234H75.2219V106.494H78.2599ZM76.2859 110.904C76.2859 110.484 76.1366 110.125 75.8379 109.826C75.5486 109.518 75.1239 109.364 74.5639 109.364C74.0039 109.364 73.5793 109.518 73.2899 109.826C73.0006 110.125 72.8559 110.484 72.8559 110.904C72.8559 111.333 73.0006 111.693 73.2899 111.982C73.5793 112.271 74.0039 112.416 74.5639 112.416C75.1239 112.416 75.5486 112.271 75.8379 111.982C76.1366 111.693 76.2859 111.333 76.2859 110.904ZM96.7023 111.03H95.3863V109.644H86.4403V108.482H95.3863V107.082H86.4403V105.892H96.7023V111.03ZM91.3123 111.954H97.3603V113.13H85.7823V111.954H89.9963V110.176H91.3123V111.954ZM96.8423 116.42V117.596H86.4403V114.054H87.7563V116.42H96.8423ZM103.292 111.688V112.878H98.4198V105.892H102.886V107.082H99.7358V108.734H102.76V109.91H99.7358V111.688H103.292ZM108.948 116.42V117.596H98.8118V113.928H100.128V116.42H108.948ZM105.966 105.696V114.25H104.664V109.91H103.194V108.734H104.664V105.696H105.966ZM107.366 114.516V105.64H108.682V114.516H107.366ZM121.571 116.014V117.204H109.993V116.014H121.571ZM110.903 113.732L110.133 112.738C111.375 112.327 112.453 111.725 113.367 110.932C114.291 110.129 114.917 109.154 115.243 108.006H110.651V106.816H115.033V105.234H116.419V106.816H120.913V108.006H116.601C116.545 108.23 116.48 108.449 116.405 108.664C116.331 108.879 116.247 109.084 116.153 109.28C116.797 110.045 117.577 110.685 118.491 111.198C119.415 111.702 120.4 112.08 121.445 112.332L120.829 113.41C119.821 113.13 118.86 112.729 117.945 112.206C117.031 111.674 116.223 111.063 115.523 110.372C114.982 111.156 114.305 111.833 113.493 112.402C112.691 112.962 111.827 113.405 110.903 113.732ZM133.159 116.462V117.596H122.757V114.684H131.703V114.068H122.757V112.934H133.019V115.804H124.073V116.462H133.159ZM122.099 111.156H133.677V112.304H122.099V111.156ZM133.159 109.406V110.54H122.757V107.656H131.703V107.026H122.757V105.892H133.019V108.776H124.073V109.406H133.159ZM147.919 105.892V107.082H143.873C143.798 107.166 143.724 107.25 143.649 107.334C143.584 107.418 143.509 107.497 143.425 107.572C144.05 107.955 144.792 108.263 145.651 108.496C146.519 108.72 147.41 108.86 148.325 108.916L147.751 109.966C146.827 109.882 145.898 109.7 144.965 109.42C144.041 109.131 143.234 108.762 142.543 108.314C141.862 108.799 141.106 109.196 140.275 109.504C139.444 109.812 138.637 110.008 137.853 110.092L137.265 109.028C138.217 108.935 139.132 108.725 140.009 108.398C140.886 108.071 141.624 107.633 142.221 107.082H137.657V105.892H147.919ZM148.059 116.42V117.596H137.657V114.418H146.603V113.62H137.657V112.458H147.919V115.58H138.973V116.42H148.059ZM136.999 110.456H148.577V111.618H136.999V110.456ZM158.583 113.62H155.559V112.444H158.583V109.672H155.559V108.496H158.583V105.64H159.899V117.736H158.583V113.62ZM149.637 105.892H155.027V108.244C155.027 109.196 154.915 110.115 154.691 111.002C154.467 111.889 154.14 112.715 153.711 113.48C153.281 114.255 152.749 114.959 152.115 115.594C151.489 116.229 150.771 116.77 149.959 117.218L149.105 116.252C149.861 115.86 150.523 115.384 151.093 114.824C151.671 114.264 152.152 113.653 152.535 112.99C152.917 112.318 153.207 111.604 153.403 110.848C153.608 110.083 153.711 109.299 153.711 108.496V107.082H149.637V105.892ZM172.13 105.892V113.13H161.868V105.892H163.184V108.272H170.814V105.892H172.13ZM163.184 111.954H170.814V109.448H163.184V111.954ZM172.788 116.014V117.204H161.21V116.014H166.348V113.746H167.664V116.014H172.788ZM174.422 117.372L173.19 116.882C173.638 116.079 173.997 115.23 174.268 114.334C174.548 113.429 174.762 112.505 174.912 111.562C175.061 110.61 175.159 109.649 175.206 108.678C175.262 107.698 175.29 106.727 175.29 105.766H176.606C176.606 106.457 176.592 107.152 176.564 107.852C176.536 108.552 176.489 109.252 176.424 109.952C176.704 111.072 177.105 112.187 177.628 113.298C178.15 114.399 178.79 115.403 179.546 116.308L178.468 117.078C177.954 116.462 177.492 115.771 177.082 115.006C176.68 114.241 176.335 113.457 176.046 112.654C175.878 113.503 175.663 114.329 175.402 115.132C175.14 115.925 174.814 116.672 174.422 117.372ZM184.11 117.736H182.794V105.64H184.11V117.736ZM181.282 105.696V117.596H179.966V111.156H177.796V109.98H179.966V105.696H181.282ZM192.799 112.22H189.635C189.075 112.22 188.557 112.145 188.081 111.996C187.614 111.837 187.213 111.613 186.877 111.324C186.541 111.035 186.28 110.689 186.093 110.288C185.906 109.877 185.813 109.425 185.813 108.93C185.813 108.445 185.906 108.001 186.093 107.6C186.28 107.189 186.541 106.839 186.877 106.55C187.213 106.261 187.614 106.037 188.081 105.878C188.557 105.719 189.075 105.64 189.635 105.64H192.799C193.35 105.64 193.858 105.719 194.325 105.878C194.792 106.037 195.193 106.261 195.529 106.55C195.865 106.839 196.126 107.189 196.313 107.6C196.509 108.001 196.607 108.445 196.607 108.93C196.607 109.425 196.509 109.877 196.313 110.288C196.126 110.689 195.865 111.035 195.529 111.324C195.193 111.613 194.792 111.837 194.325 111.996C193.858 112.145 193.35 112.22 192.799 112.22ZM189.635 111.03H192.799C193.518 111.03 194.101 110.839 194.549 110.456C194.997 110.064 195.221 109.555 195.221 108.93C195.221 108.305 194.997 107.796 194.549 107.404C194.101 107.012 193.518 106.816 192.799 106.816H189.635C188.907 106.816 188.319 107.012 187.871 107.404C187.423 107.796 187.199 108.305 187.199 108.93C187.199 109.555 187.423 110.064 187.871 110.456C188.319 110.839 188.907 111.03 189.635 111.03ZM196.999 116.014V117.204H185.421V116.014H188.053V113.004H189.369V116.014H193.051V113.004H194.367V116.014H196.999ZM199.388 117.078H197.806V115.51H199.388V117.078Z" fill="white"/>
</svg>
